<?xml version="1.0" encoding="utf-8"?>
<!-- Generator: Adobe Illustrator 15.1.0, SVG Export Plug-In . SVG Version: 6.00 Build 0)  -->
<!DOCTYPE svg PUBLIC "-//W3C//DTD SVG 1.1//EN" "http://www.w3.org/Graphics/SVG/1.1/DTD/svg11.dtd">
<svg version="1.1" id="Layer_1" xmlns="http://www.w3.org/2000/svg" xmlns:xlink="http://www.w3.org/1999/xlink" x="0px" y="0px"
	 width="1024px" height="768px" viewBox="0 0 1024 768" enable-background="new 0 0 1024 768" xml:space="preserve">
<g>
	<g>
		<g>
			<g>
				<linearGradient id="SVGID_1_" gradientUnits="userSpaceOnUse" x1="294.5522" y1="174.4146" x2="814.3075" y2="497.9362">
					<stop  offset="0" style="stop-color:#BE965D"/>
					<stop  offset="0.2784" style="stop-color:#976F40"/>
					<stop  offset="0.4259" style="stop-color:#C99B61"/>
					<stop  offset="0.5584" style="stop-color:#F0BE7B"/>
					<stop  offset="0.6275" style="stop-color:#FFCB85"/>
					<stop  offset="0.7085" style="stop-color:#EEBC79"/>
					<stop  offset="0.8693" style="stop-color:#C0935B"/>
					<stop  offset="1" style="stop-color:#976F40"/>
				</linearGradient>
				<path fill="url(#SVGID_1_)" d="M246.818,311.422c138.088,0,276.175,0,414.263,0c38.701,0,77.4,0,116.1,0
					c2.133,0,2.137-3.314,0-3.314c-138.088,0-276.176,0-414.263,0c-38.7,0-77.399,0-116.1,0
					C244.686,308.108,244.683,311.422,246.818,311.422L246.818,311.422z"/>
			</g>
			<g>
				<linearGradient id="SVGID_2_" gradientUnits="userSpaceOnUse" x1="237.7451" y1="287.4531" x2="757.4993" y2="610.9741">
					<stop  offset="0" style="stop-color:#BE965D"/>
					<stop  offset="0.2784" style="stop-color:#976F40"/>
					<stop  offset="0.4259" style="stop-color:#C99B61"/>
					<stop  offset="0.5584" style="stop-color:#F0BE7B"/>
					<stop  offset="0.6275" style="stop-color:#FFCB85"/>
					<stop  offset="0.7085" style="stop-color:#EEBC79"/>
					<stop  offset="0.8693" style="stop-color:#C0935B"/>
					<stop  offset="1" style="stop-color:#976F40"/>
				</linearGradient>
				<path fill="url(#SVGID_2_)" d="M246.818,459.82c138.088,0,276.175,0,414.263,0c38.701,0,77.4,0,116.1,0
					c2.133,0,2.137-3.314,0-3.314c-138.088,0-276.176,0-414.263,0c-38.7,0-77.399,0-116.1,0
					C244.686,456.506,244.683,459.82,246.818,459.82L246.818,459.82z"/>
			</g>
		</g>
		<g>
			<linearGradient id="SVGID_3_" gradientUnits="userSpaceOnUse" x1="303.083" y1="160.6958" x2="822.855" y2="484.2279">
				<stop  offset="0" style="stop-color:#BE965D"/>
				<stop  offset="0.2784" style="stop-color:#976F40"/>
				<stop  offset="0.4259" style="stop-color:#C99B61"/>
				<stop  offset="0.5584" style="stop-color:#F0BE7B"/>
				<stop  offset="0.6275" style="stop-color:#FFCB85"/>
				<stop  offset="0.7085" style="stop-color:#EEBC79"/>
				<stop  offset="0.8693" style="stop-color:#C0935B"/>
				<stop  offset="1" style="stop-color:#976F40"/>
			</linearGradient>
			<path fill="url(#SVGID_3_)" d="M484.67,302.447c11.931,0.665,21.508-9.185,23.351-20.433c2.2-13.435-5.002-25.519-14.602-34.272
				c-1.573-1.435-3.925,0.903-2.344,2.344c12.159,11.087,22.744,35.57,3.812,46.435c-8.495,4.875-19.86,2.457-23.909-7.051
				c-4.285-10.068,3.552-22.145,14.9-18.358c2.771,1.311,4.806,3.902,5.509,6.884c0.361,1.541,0.331,3.217-0.162,4.725
				c-0.196,0.598-0.484,1.189-0.844,1.728c0.212-2.298-1.174-4.95-3.996-5.69c-6.355-1.668-8.943,5.515-5.136,9.813
				c4.158,4.693,11.291,2.725,13.78-2.627c2.884-6.2-0.79-13.76-6.299-17.058c-0.08-0.049-0.158-0.103-0.24-0.15
				c-0.005-0.003-0.012-0.008-0.017-0.012c-0.011-0.005-0.021-0.007-0.03-0.013c-0.357-0.208-0.726-0.404-1.108-0.573
				c-0.04-0.018-0.08-0.024-0.119-0.039c-0.087-0.047-0.176-0.093-0.277-0.127c-9.442-3.281-19.09,2.947-20.469,12.787
				C464.934,291.713,473.744,301.839,484.67,302.447z"/>
			<linearGradient id="SVGID_4_" gradientUnits="userSpaceOnUse" x1="229.2061" y1="301.1665" x2="748.9651" y2="624.6906">
				<stop  offset="0" style="stop-color:#BE965D"/>
				<stop  offset="0.2784" style="stop-color:#976F40"/>
				<stop  offset="0.4259" style="stop-color:#C99B61"/>
				<stop  offset="0.5584" style="stop-color:#F0BE7B"/>
				<stop  offset="0.6275" style="stop-color:#FFCB85"/>
				<stop  offset="0.7085" style="stop-color:#EEBC79"/>
				<stop  offset="0.8693" style="stop-color:#C0935B"/>
				<stop  offset="1" style="stop-color:#976F40"/>
			</linearGradient>
			<path fill="url(#SVGID_4_)" d="M539.329,465.48c-11.93-0.664-21.508,9.184-23.351,20.434
				c-2.199,13.434,5.003,25.52,14.601,34.271c1.574,1.436,3.926-0.902,2.344-2.344c-12.156-11.086-22.741-35.568-3.811-46.434
				c8.494-4.877,19.859-2.457,23.908,7.051c4.285,10.068-3.551,22.145-14.9,18.357c-2.771-1.311-4.807-3.9-5.508-6.885
				c-0.361-1.541-0.332-3.215,0.162-4.725c0.195-0.596,0.484-1.188,0.844-1.727c-0.211,2.297,1.172,4.949,3.994,5.689
				c6.355,1.668,8.945-5.514,5.139-9.813c-4.16-4.693-11.293-2.725-13.781,2.627c-2.885,6.199,0.791,13.762,6.299,17.061
				c0.08,0.049,0.158,0.102,0.24,0.148c0.006,0.004,0.012,0.008,0.018,0.012c0.008,0.006,0.018,0.008,0.029,0.014
				c0.359,0.209,0.725,0.404,1.107,0.572c0.041,0.02,0.08,0.025,0.119,0.041c0.088,0.045,0.176,0.092,0.277,0.127
				c9.443,3.279,19.09-2.949,20.471-12.787C559.063,476.215,550.257,466.088,539.329,465.48z"/>
			<linearGradient id="SVGID_5_" gradientUnits="userSpaceOnUse" x1="315.8589" y1="140.1841" x2="835.6135" y2="463.7054">
				<stop  offset="0" style="stop-color:#BE965D"/>
				<stop  offset="0.2784" style="stop-color:#976F40"/>
				<stop  offset="0.4259" style="stop-color:#C99B61"/>
				<stop  offset="0.5584" style="stop-color:#F0BE7B"/>
				<stop  offset="0.6275" style="stop-color:#FFCB85"/>
				<stop  offset="0.7085" style="stop-color:#EEBC79"/>
				<stop  offset="0.8693" style="stop-color:#C0935B"/>
				<stop  offset="1" style="stop-color:#976F40"/>
			</linearGradient>
			<path fill="url(#SVGID_5_)" d="M515.814,280.968c1.5,11.669,11.136,22.167,23.515,21.479c10.582-0.586,19.217-10.1,18.291-20.733
				c-0.895-10.258-10.693-17.172-20.561-13.744c-0.102,0.035-0.189,0.081-0.275,0.127c-0.041,0.014-0.08,0.021-0.121,0.039
				c-0.383,0.169-0.748,0.365-1.107,0.573c-0.012,0.005-0.021,0.008-0.029,0.013c-0.006,0.004-0.014,0.008-0.018,0.012
				c-0.082,0.047-0.158,0.1-0.238,0.149c-5.516,3.301-9.174,10.855-6.301,17.06c2.482,5.36,9.625,7.313,13.781,2.627
				c3.818-4.306,1.189-11.472-5.139-9.813c-2.791,0.733-4.176,3.339-3.998,5.62c-0.201-0.33-0.375-0.653-0.51-0.938
				c-0.809-1.686-0.918-3.631-0.492-5.443c0.703-2.983,2.736-5.573,5.51-6.885c10.369-3.451,18.734,6.866,15.576,16.829
				c-3.25,10.256-15.715,14.062-24.586,8.581c-18.472-11.41-8.732-34.996,3.811-46.435c1.58-1.44-0.77-3.779-2.344-2.344
				C521.255,256.245,514.134,267.884,515.814,280.968z"/>
			<linearGradient id="SVGID_6_" gradientUnits="userSpaceOnUse" x1="216.4321" y1="321.6807" x2="736.1976" y2="645.2087">
				<stop  offset="0" style="stop-color:#BE965D"/>
				<stop  offset="0.2784" style="stop-color:#976F40"/>
				<stop  offset="0.4259" style="stop-color:#C99B61"/>
				<stop  offset="0.5584" style="stop-color:#F0BE7B"/>
				<stop  offset="0.6275" style="stop-color:#FFCB85"/>
				<stop  offset="0.7085" style="stop-color:#EEBC79"/>
				<stop  offset="0.8693" style="stop-color:#C0935B"/>
				<stop  offset="1" style="stop-color:#976F40"/>
			</linearGradient>
			<path fill="url(#SVGID_6_)" d="M508.185,486.959c-1.5-11.67-11.137-22.164-23.515-21.479
				c-10.583,0.588-19.218,10.1-18.291,20.732c0.896,10.26,10.694,17.174,20.56,13.746c0.102-0.035,0.189-0.082,0.277-0.127
				c0.039-0.016,0.079-0.021,0.119-0.041c0.383-0.168,0.751-0.363,1.108-0.572c0.01-0.006,0.02-0.008,0.03-0.014
				c0.005-0.004,0.012-0.008,0.018-0.012c0.08-0.047,0.156-0.1,0.235-0.148c5.518-3.301,9.175-10.855,6.303-17.061
				c-2.48-5.359-9.625-7.313-13.78-2.627c-3.818,4.307-1.191,11.473,5.136,9.813c2.795-0.732,4.179-3.34,4.001-5.619
				c0.2,0.33,0.373,0.654,0.511,0.939c0.805,1.684,0.918,3.631,0.49,5.441c-0.704,2.984-2.736,5.574-5.509,6.887
				c-10.371,3.449-18.735-6.865-15.578-16.83c3.25-10.256,15.716-14.063,24.587-8.58c18.472,11.408,8.732,34.996-3.812,46.434
				c-1.579,1.441,0.771,3.781,2.344,2.344C502.744,511.684,509.865,500.043,508.185,486.959z"/>
			<linearGradient id="SVGID_7_" gradientUnits="userSpaceOnUse" x1="322.8247" y1="128.9785" x2="842.5966" y2="452.5106">
				<stop  offset="0" style="stop-color:#BE965D"/>
				<stop  offset="0.2784" style="stop-color:#976F40"/>
				<stop  offset="0.4259" style="stop-color:#C99B61"/>
				<stop  offset="0.5584" style="stop-color:#F0BE7B"/>
				<stop  offset="0.6275" style="stop-color:#FFCB85"/>
				<stop  offset="0.7085" style="stop-color:#EEBC79"/>
				<stop  offset="0.8693" style="stop-color:#C0935B"/>
				<stop  offset="1" style="stop-color:#976F40"/>
			</linearGradient>
			<path fill="url(#SVGID_7_)" d="M511.276,267.372c0.46,0.228,0.988,0.228,1.445,0c0.567-0.196,1-0.646,0.996-1.272
				c3.369-8.189,9.941-18.759,9.152-27.845c-0.5-5.768-4.805-10.846-10.871-10.807c-20.665,0.134-5.295,29.995-1.717,38.649
				C510.277,266.724,510.71,267.174,511.276,267.372z M508.811,234.71c2.057-1.371,4.32-1.371,6.377,0
				c6.458,4.968,0.372,18.569-3.187,26.872C508.449,253.274,502.379,239.658,508.811,234.71z"/>
			<linearGradient id="SVGID_8_" gradientUnits="userSpaceOnUse" x1="209.4546" y1="332.8779" x2="729.2264" y2="656.41">
				<stop  offset="0" style="stop-color:#BE965D"/>
				<stop  offset="0.2784" style="stop-color:#976F40"/>
				<stop  offset="0.4259" style="stop-color:#C99B61"/>
				<stop  offset="0.5584" style="stop-color:#F0BE7B"/>
				<stop  offset="0.6275" style="stop-color:#FFCB85"/>
				<stop  offset="0.7085" style="stop-color:#EEBC79"/>
				<stop  offset="0.8693" style="stop-color:#C0935B"/>
				<stop  offset="1" style="stop-color:#976F40"/>
			</linearGradient>
			<path fill="url(#SVGID_8_)" d="M512.722,500.555c-0.457-0.227-0.985-0.227-1.445,0c-0.566,0.197-0.999,0.646-0.995,1.273
				c-3.369,8.189-9.942,18.76-9.153,27.846c0.5,5.766,4.805,10.846,10.871,10.807c20.666-0.135,5.295-29.994,1.717-38.648
				C513.722,501.205,513.289,500.752,512.722,500.555z M515.188,533.217c-2.057,1.371-4.32,1.371-6.377,0
				c-6.458-4.967-0.369-18.568,3.188-26.871C515.549,514.654,521.62,528.27,515.188,533.217z"/>
			<linearGradient id="SVGID_9_" gradientUnits="userSpaceOnUse" x1="299.3379" y1="166.7261" x2="819.093" y2="490.2477">
				<stop  offset="0" style="stop-color:#BE965D"/>
				<stop  offset="0.2784" style="stop-color:#976F40"/>
				<stop  offset="0.4259" style="stop-color:#C99B61"/>
				<stop  offset="0.5584" style="stop-color:#F0BE7B"/>
				<stop  offset="0.6275" style="stop-color:#FFCB85"/>
				<stop  offset="0.7085" style="stop-color:#EEBC79"/>
				<stop  offset="0.8693" style="stop-color:#C0935B"/>
				<stop  offset="1" style="stop-color:#976F40"/>
			</linearGradient>
			<path fill="url(#SVGID_9_)" d="M457.396,285.588c0.034,0.052,0.071,0.101,0.11,0.145c0.023,0.027,0.047,0.052,0.073,0.077
				c0.466,0.465,1.117,0.476,1.671,0.203c0.038-0.016,0.074-0.03,0.112-0.048c0.26-0.108,0.492-0.289,0.673-0.543
				c0.017-0.022,0.033-0.043,0.05-0.066c0.076-0.119,0.145-0.25,0.195-0.4c2.803-8.341,8.888-19.579,7.577-28.636
				c-0.846-5.843-5.436-10.665-11.629-10.202c-20.476,1.532-3.427,30.196,0.796,38.77
				C457.079,285.162,457.206,285.4,457.396,285.588z M458.566,279.698c-0.051,0.145-0.103,0.29-0.153,0.433
				c-0.104-0.208-0.211-0.418-0.318-0.633c-1.328-2.741-2.635-5.491-3.933-8.246c-2.86-6.738-4.672-13.952-0.418-17.814
				c1.897-1.334,4.075-1.542,6.139-0.34c4.803,3.25,3.557,11.256,1.353,18.659C460.35,274.406,459.465,277.053,458.566,279.698z"/>
			<linearGradient id="SVGID_10_" gradientUnits="userSpaceOnUse" x1="232.9448" y1="295.1333" x2="752.7175" y2="618.6658">
				<stop  offset="0" style="stop-color:#BE965D"/>
				<stop  offset="0.2784" style="stop-color:#976F40"/>
				<stop  offset="0.4259" style="stop-color:#C99B61"/>
				<stop  offset="0.5584" style="stop-color:#F0BE7B"/>
				<stop  offset="0.6275" style="stop-color:#FFCB85"/>
				<stop  offset="0.7085" style="stop-color:#EEBC79"/>
				<stop  offset="0.8693" style="stop-color:#C0935B"/>
				<stop  offset="1" style="stop-color:#976F40"/>
			</linearGradient>
			<path fill="url(#SVGID_10_)" d="M566.603,482.34c-0.035-0.053-0.07-0.1-0.109-0.145c-0.023-0.027-0.047-0.053-0.074-0.076
				c-0.465-0.467-1.117-0.479-1.668-0.205c-0.039,0.016-0.076,0.031-0.113,0.049c-0.262,0.107-0.494,0.291-0.674,0.543
				c-0.018,0.021-0.033,0.043-0.051,0.066c-0.076,0.119-0.145,0.25-0.195,0.4c-2.803,8.34-8.887,19.58-7.576,28.637
				c0.844,5.844,5.436,10.666,11.629,10.201c20.475-1.533,3.426-30.195-0.795-38.77C566.921,482.768,566.792,482.527,566.603,482.34
				z M565.431,488.23c0.055-0.146,0.105-0.291,0.154-0.432c0.105,0.207,0.211,0.416,0.318,0.631c1.328,2.74,2.637,5.492,3.934,8.246
				c2.861,6.738,4.672,13.953,0.418,17.814c-1.898,1.336-4.074,1.543-6.139,0.34c-4.801-3.25-3.555-11.256-1.352-18.658
				C563.647,493.521,564.534,490.873,565.431,488.23z"/>
			<linearGradient id="SVGID_11_" gradientUnits="userSpaceOnUse" x1="329.7441" y1="117.8711" x2="849.4927" y2="441.3886">
				<stop  offset="0" style="stop-color:#BE965D"/>
				<stop  offset="0.2784" style="stop-color:#976F40"/>
				<stop  offset="0.4259" style="stop-color:#C99B61"/>
				<stop  offset="0.5584" style="stop-color:#F0BE7B"/>
				<stop  offset="0.6275" style="stop-color:#FFCB85"/>
				<stop  offset="0.7085" style="stop-color:#EEBC79"/>
				<stop  offset="0.8693" style="stop-color:#C0935B"/>
				<stop  offset="1" style="stop-color:#976F40"/>
			</linearGradient>
			<path fill="url(#SVGID_11_)" d="M563.915,285.356c0.014,0.02,0.027,0.039,0.043,0.058c0.184,0.261,0.422,0.445,0.688,0.554
				c0.029,0.012,0.055,0.023,0.084,0.036c0.557,0.285,1.221,0.279,1.693-0.195c0.025-0.023,0.047-0.048,0.068-0.073
				c0.039-0.045,0.076-0.093,0.111-0.144c0.189-0.189,0.32-0.429,0.373-0.706c4.248-8.628,21.266-37.236,0.795-38.769
				c-6.092-0.456-10.676,4.22-11.6,9.981c-1.467,9.126,4.732,20.482,7.547,28.856C563.769,285.106,563.839,285.236,563.915,285.356z
				 M562.823,271.927c-2.229-7.453-3.529-15.565,1.293-18.83c2.063-1.201,4.24-0.994,6.139,0.34
				c4.295,3.901,2.383,11.256-0.541,18.075c-1.221,2.587-2.445,5.171-3.693,7.745c-0.148,0.295-0.293,0.585-0.436,0.868
				c-0.045-0.124-0.088-0.252-0.133-0.379C564.567,277.142,563.696,274.535,562.823,271.927z"/>
			<linearGradient id="SVGID_12_" gradientUnits="userSpaceOnUse" x1="202.5586" y1="344.0005" x2="722.2873" y2="667.5057">
				<stop  offset="0" style="stop-color:#BE965D"/>
				<stop  offset="0.2784" style="stop-color:#976F40"/>
				<stop  offset="0.4259" style="stop-color:#C99B61"/>
				<stop  offset="0.5584" style="stop-color:#F0BE7B"/>
				<stop  offset="0.6275" style="stop-color:#FFCB85"/>
				<stop  offset="0.7085" style="stop-color:#EEBC79"/>
				<stop  offset="0.8693" style="stop-color:#C0935B"/>
				<stop  offset="1" style="stop-color:#976F40"/>
			</linearGradient>
			<path fill="url(#SVGID_12_)" d="M460.083,482.57c-0.013-0.02-0.028-0.037-0.043-0.057c-0.184-0.26-0.421-0.445-0.688-0.553
				c-0.026-0.014-0.053-0.025-0.081-0.035c-0.558-0.285-1.222-0.279-1.694,0.195c-0.024,0.023-0.048,0.045-0.071,0.072
				c-0.038,0.043-0.074,0.092-0.109,0.145c-0.19,0.189-0.319,0.43-0.374,0.705c-4.248,8.629-21.266,37.236-0.794,38.768
				c6.09,0.457,10.674-4.219,11.599-9.98c1.467-9.127-4.732-20.482-7.547-28.857C460.229,482.822,460.161,482.691,460.083,482.57z
				 M461.175,495.998c2.231,7.455,3.53,15.566-1.292,18.832c-2.062,1.201-4.239,0.996-6.139-0.34
				c-4.296-3.902-2.381-11.256,0.54-18.076c1.22-2.588,2.444-5.168,3.692-7.742c0.149-0.297,0.295-0.586,0.437-0.871
				c0.044,0.129,0.091,0.256,0.137,0.385C459.432,490.787,460.304,493.393,461.175,495.998z"/>
			<linearGradient id="SVGID_13_" gradientUnits="userSpaceOnUse" x1="291.2231" y1="179.7539" x2="810.9913" y2="503.2836">
				<stop  offset="0" style="stop-color:#BE965D"/>
				<stop  offset="0.2784" style="stop-color:#976F40"/>
				<stop  offset="0.4259" style="stop-color:#C99B61"/>
				<stop  offset="0.5584" style="stop-color:#F0BE7B"/>
				<stop  offset="0.6275" style="stop-color:#FFCB85"/>
				<stop  offset="0.7085" style="stop-color:#EEBC79"/>
				<stop  offset="0.8693" style="stop-color:#C0935B"/>
				<stop  offset="1" style="stop-color:#976F40"/>
			</linearGradient>
			<path fill="url(#SVGID_13_)" d="M450.451,288.924c0.141,0.067,0.28,0.108,0.418,0.137c0.033,0.006,0.064,0.009,0.096,0.013
				c0.145,0.021,0.283,0.025,0.42,0.01c0.005,0,0.01,0,0.017-0.001c0.107-0.013,0.212-0.037,0.313-0.07
				c0.693-0.138,1.276-0.64,1.276-1.38c0.002-0.043-0.002-0.087-0.005-0.132c-0.004-0.042-0.007-0.083-0.015-0.126
				c0.013-0.316-0.071-0.629-0.29-0.893c-2.931-8.065-5.109-18.59-10.687-25.213c-4.174-4.958-11.394-6.875-16.61-2.225
				c-4.887,4.357-4.304,11.441-0.205,16.096C431.18,281.957,442.457,285.124,450.451,288.924z M427.842,266.583
				c0.533-2.316,2.223-3.808,4.509-4.228c6.323-0.418,9.271,6.34,11.303,11.108c1.479,3.479,2.927,6.973,4.375,10.465
				c-3.271-1.7-6.543-3.4-9.799-5.129C433.734,276.412,426.755,272.804,427.842,266.583z"/>
			<linearGradient id="SVGID_14_" gradientUnits="userSpaceOnUse" x1="241.0684" y1="282.1108" x2="760.8235" y2="605.6325">
				<stop  offset="0" style="stop-color:#BE965D"/>
				<stop  offset="0.2784" style="stop-color:#976F40"/>
				<stop  offset="0.4259" style="stop-color:#C99B61"/>
				<stop  offset="0.5584" style="stop-color:#F0BE7B"/>
				<stop  offset="0.6275" style="stop-color:#FFCB85"/>
				<stop  offset="0.7085" style="stop-color:#EEBC79"/>
				<stop  offset="0.8693" style="stop-color:#C0935B"/>
				<stop  offset="1" style="stop-color:#976F40"/>
			</linearGradient>
			<path fill="url(#SVGID_14_)" d="M573.548,479.004c-0.143-0.066-0.281-0.109-0.418-0.137c-0.031-0.006-0.064-0.008-0.096-0.014
				c-0.143-0.021-0.285-0.023-0.42-0.01c-0.006,0.002-0.01,0.002-0.018,0.002c-0.107,0.014-0.209,0.037-0.311,0.07
				c-0.693,0.139-1.277,0.639-1.277,1.381c0,0.043,0,0.086,0.006,0.131c0.004,0.043,0.006,0.084,0.014,0.127
				c-0.014,0.316,0.072,0.629,0.289,0.893c2.93,8.064,5.109,18.59,10.686,25.213c4.178,4.957,11.395,6.875,16.611,2.225
				c4.887-4.357,4.305-11.439,0.205-16.096C592.819,485.973,581.542,482.803,573.548,479.004z M596.157,501.344
				c-0.535,2.318-2.223,3.809-4.51,4.23c-6.322,0.416-9.271-6.342-11.301-11.111c-1.482-3.477-2.928-6.971-4.375-10.463
				c3.271,1.699,6.543,3.4,9.797,5.129C590.265,491.518,597.243,495.123,596.157,501.344z"/>
			<linearGradient id="SVGID_15_" gradientUnits="userSpaceOnUse" x1="331.1089" y1="115.688" x2="850.8577" y2="439.2057">
				<stop  offset="0" style="stop-color:#BE965D"/>
				<stop  offset="0.2784" style="stop-color:#976F40"/>
				<stop  offset="0.4259" style="stop-color:#C99B61"/>
				<stop  offset="0.5584" style="stop-color:#F0BE7B"/>
				<stop  offset="0.6275" style="stop-color:#FFCB85"/>
				<stop  offset="0.7085" style="stop-color:#EEBC79"/>
				<stop  offset="0.8693" style="stop-color:#C0935B"/>
				<stop  offset="1" style="stop-color:#976F40"/>
			</linearGradient>
			<path fill="url(#SVGID_15_)" d="M571.028,287.372c-0.008,0.043-0.01,0.084-0.014,0.125c-0.006,0.047-0.006,0.093-0.006,0.138
				c0.002,0.731,0.574,1.229,1.258,1.373c0.01,0.002,0.02,0.004,0.029,0.007c0.092,0.03,0.188,0.053,0.285,0.066
				c0.018,0.002,0.035,0.002,0.051,0.003c0.127,0.013,0.258,0.01,0.391-0.009c0.037-0.005,0.072-0.008,0.109-0.015
				c0.137-0.029,0.273-0.07,0.416-0.137c7.82-3.717,18.553-6.791,24.703-13.134c4.516-4.653,5.535-12.137,0.363-16.747
				c-5.139-4.581-12.287-2.795-16.48,2.057c-5.686,6.577-7.879,17.292-10.816,25.382
				C571.101,286.745,571.017,287.056,571.028,287.372z M591.647,262.355c2.287,0.42,3.977,1.913,4.51,4.228
				c1.086,6.221-5.893,9.829-10.389,12.217c-3.254,1.729-6.525,3.429-9.797,5.129c1.447-3.493,2.893-6.987,4.375-10.465
				C582.376,268.695,585.325,261.937,591.647,262.355z"/>
			<linearGradient id="SVGID_16_" gradientUnits="userSpaceOnUse" x1="201.1826" y1="346.1768" x2="720.9564" y2="669.71">
				<stop  offset="0" style="stop-color:#BE965D"/>
				<stop  offset="0.2784" style="stop-color:#976F40"/>
				<stop  offset="0.4259" style="stop-color:#C99B61"/>
				<stop  offset="0.5584" style="stop-color:#F0BE7B"/>
				<stop  offset="0.6275" style="stop-color:#FFCB85"/>
				<stop  offset="0.7085" style="stop-color:#EEBC79"/>
				<stop  offset="0.8693" style="stop-color:#C0935B"/>
				<stop  offset="1" style="stop-color:#976F40"/>
			</linearGradient>
			<path fill="url(#SVGID_16_)" d="M452.971,480.557c0.008-0.043,0.01-0.084,0.015-0.125c0.003-0.049,0.007-0.092,0.005-0.139
				c-0.003-0.73-0.573-1.229-1.256-1.373c-0.012-0.004-0.021-0.004-0.032-0.008c-0.093-0.029-0.187-0.053-0.284-0.064
				c-0.017-0.004-0.033-0.004-0.052-0.006c-0.126-0.012-0.257-0.008-0.39,0.01c-0.036,0.006-0.073,0.01-0.109,0.016
				c-0.136,0.027-0.275,0.07-0.416,0.137c-7.82,3.719-18.553,6.791-24.704,13.133c-4.515,4.654-5.535,12.137-0.363,16.748
				c5.14,4.58,12.287,2.795,16.481-2.057c5.685-6.576,7.879-17.293,10.815-25.383C452.897,481.184,452.981,480.871,452.971,480.557z
				 M432.351,505.574c-2.286-0.422-3.976-1.914-4.509-4.23c-1.087-6.221,5.893-9.826,10.388-12.215
				c3.256-1.729,6.527-3.43,9.799-5.129c-1.448,3.492-2.896,6.986-4.375,10.463C441.622,499.232,438.674,505.99,432.351,505.574z"/>
			<linearGradient id="SVGID_17_" gradientUnits="userSpaceOnUse" x1="278.0186" y1="200.9727" x2="797.7772" y2="524.4965">
				<stop  offset="0" style="stop-color:#BE965D"/>
				<stop  offset="0.2784" style="stop-color:#976F40"/>
				<stop  offset="0.4259" style="stop-color:#C99B61"/>
				<stop  offset="0.5584" style="stop-color:#F0BE7B"/>
				<stop  offset="0.6275" style="stop-color:#FFCB85"/>
				<stop  offset="0.7085" style="stop-color:#EEBC79"/>
				<stop  offset="0.8693" style="stop-color:#C0935B"/>
				<stop  offset="1" style="stop-color:#976F40"/>
			</linearGradient>
			<path fill="url(#SVGID_17_)" d="M409.354,288.848c-3.041,20.81,30.037,9.268,38.509,7.215v-0.001
				c0.016-0.004,0.028-0.009,0.044-0.015c0.141-0.037,0.267-0.09,0.381-0.151c0.026-0.016,0.053-0.032,0.079-0.05
				c0.471-0.295,0.68-0.782,0.673-1.287c0.049-0.413-0.058-0.834-0.366-1.18c-0.02-0.022-0.038-0.044-0.058-0.065
				c-0.102-0.101-0.216-0.197-0.356-0.28c-7.466-4.392-16.377-11.809-25.16-13.186C416.828,278.864,410.338,282.113,409.354,288.848
				z M415.953,292.825c-0.957-2.026-0.579-4.313,0.919-5.955c6.015-5.81,18.492,2.217,26.193,6.949
				C434.363,296.097,420.039,300.155,415.953,292.825z"/>
			<linearGradient id="SVGID_18_" gradientUnits="userSpaceOnUse" x1="254.2666" y1="260.8882" x2="774.0386" y2="584.4203">
				<stop  offset="0" style="stop-color:#BE965D"/>
				<stop  offset="0.2784" style="stop-color:#976F40"/>
				<stop  offset="0.4259" style="stop-color:#C99B61"/>
				<stop  offset="0.5584" style="stop-color:#F0BE7B"/>
				<stop  offset="0.6275" style="stop-color:#FFCB85"/>
				<stop  offset="0.7085" style="stop-color:#EEBC79"/>
				<stop  offset="0.8693" style="stop-color:#C0935B"/>
				<stop  offset="1" style="stop-color:#976F40"/>
			</linearGradient>
			<path fill="url(#SVGID_18_)" d="M614.646,479.08c3.041-20.811-30.039-9.268-38.51-7.215l0,0c-0.016,0.006-0.029,0.01-0.041,0.016
				c-0.143,0.037-0.27,0.09-0.383,0.152c-0.027,0.016-0.053,0.031-0.08,0.049c-0.471,0.295-0.68,0.783-0.672,1.289
				c-0.049,0.412,0.057,0.832,0.367,1.18c0.018,0.021,0.035,0.043,0.057,0.064c0.1,0.102,0.215,0.197,0.355,0.279
				c7.467,4.395,16.377,11.811,25.16,13.188C607.171,489.064,613.661,485.814,614.646,479.08z M608.046,475.104
				c0.957,2.025,0.58,4.313-0.92,5.955c-6.012,5.809-18.492-2.219-26.193-6.949C589.636,471.83,603.958,467.771,608.046,475.104z"/>
			<linearGradient id="SVGID_19_" gradientUnits="userSpaceOnUse" x1="326.563" y1="122.9932" x2="846.314" y2="446.5122">
				<stop  offset="0" style="stop-color:#BE965D"/>
				<stop  offset="0.2784" style="stop-color:#976F40"/>
				<stop  offset="0.4259" style="stop-color:#C99B61"/>
				<stop  offset="0.5584" style="stop-color:#F0BE7B"/>
				<stop  offset="0.6275" style="stop-color:#FFCB85"/>
				<stop  offset="0.7085" style="stop-color:#EEBC79"/>
				<stop  offset="0.8693" style="stop-color:#C0935B"/>
				<stop  offset="1" style="stop-color:#976F40"/>
			</linearGradient>
			<path fill="url(#SVGID_19_)" d="M575.739,293.033c-0.141,0.083-0.256,0.179-0.355,0.281c-0.02,0.02-0.037,0.041-0.055,0.062
				c-0.309,0.344-0.414,0.763-0.371,1.175c-0.008,0.507,0.199,0.998,0.674,1.294c0.027,0.018,0.051,0.033,0.08,0.049
				c0.111,0.062,0.236,0.114,0.377,0.152c0.02,0.007,0.041,0.013,0.063,0.02c8.41,2.041,19.104,6.563,27.902,5.352
				c6.285-0.867,11.576-5.834,10.592-12.57c-0.932-6.374-6.848-9.71-12.887-9.106C592.669,280.652,583.329,288.567,575.739,293.033z
				 M607.126,286.87c1.5,1.642,1.877,3.929,0.92,5.955c-4.049,7.261-18.396,3.253-27.105,0.99
				C588.64,289.085,601.12,281.068,607.126,286.87z"/>
			<linearGradient id="SVGID_20_" gradientUnits="userSpaceOnUse" x1="205.7314" y1="338.8721" x2="725.4976" y2="662.4006">
				<stop  offset="0" style="stop-color:#BE965D"/>
				<stop  offset="0.2784" style="stop-color:#976F40"/>
				<stop  offset="0.4259" style="stop-color:#C99B61"/>
				<stop  offset="0.5584" style="stop-color:#F0BE7B"/>
				<stop  offset="0.6275" style="stop-color:#FFCB85"/>
				<stop  offset="0.7085" style="stop-color:#EEBC79"/>
				<stop  offset="0.8693" style="stop-color:#C0935B"/>
				<stop  offset="1" style="stop-color:#976F40"/>
			</linearGradient>
			<path fill="url(#SVGID_20_)" d="M448.259,474.895c0.141-0.082,0.255-0.178,0.356-0.279c0.02-0.021,0.036-0.041,0.055-0.063
				c0.309-0.344,0.416-0.766,0.369-1.176c0.011-0.508-0.198-0.998-0.673-1.295c-0.024-0.016-0.051-0.033-0.077-0.047
				c-0.113-0.064-0.239-0.115-0.378-0.152c-0.021-0.008-0.042-0.014-0.063-0.021c-8.408-2.041-19.103-6.564-27.901-5.35
				c-6.285,0.865-11.577,5.832-10.593,12.568c0.933,6.375,6.85,9.711,12.887,9.105C431.33,487.275,440.67,479.361,448.259,474.895z
				 M416.872,481.059c-1.498-1.643-1.876-3.928-0.919-5.955c4.048-7.262,18.396-3.254,27.106-0.99
				C435.359,478.842,422.878,486.859,416.872,481.059z"/>
			<linearGradient id="SVGID_21_" gradientUnits="userSpaceOnUse" x1="300.5645" y1="164.7832" x2="820.2891" y2="488.2859">
				<stop  offset="0" style="stop-color:#BE965D"/>
				<stop  offset="0.2784" style="stop-color:#976F40"/>
				<stop  offset="0.4259" style="stop-color:#C99B61"/>
				<stop  offset="0.5584" style="stop-color:#F0BE7B"/>
				<stop  offset="0.6275" style="stop-color:#FFCB85"/>
				<stop  offset="0.7085" style="stop-color:#EEBC79"/>
				<stop  offset="0.8693" style="stop-color:#C0935B"/>
				<stop  offset="1" style="stop-color:#976F40"/>
			</linearGradient>
			<path fill="url(#SVGID_21_)" d="M511.999,290.353c-3.215,0-5.938,2.629-6.063,5.836c-0.129,3.29,2.315,5.751,5.393,6.22
				c0.194,0.073,0.416,0.111,0.671,0.098c0.249,0.013,0.466-0.025,0.656-0.093c2.995-0.451,5.42-2.782,5.42-5.985
				C518.075,293.128,515.299,290.353,511.999,290.353z M511.999,299.191c-3.539-0.191-3.569-5.524,0-5.524
				C515.572,293.667,515.541,299,511.999,299.191z"/>
			<linearGradient id="SVGID_22_" gradientUnits="userSpaceOnUse" x1="231.7612" y1="297.1021" x2="751.4859" y2="620.6047">
				<stop  offset="0" style="stop-color:#BE965D"/>
				<stop  offset="0.2784" style="stop-color:#976F40"/>
				<stop  offset="0.4259" style="stop-color:#C99B61"/>
				<stop  offset="0.5584" style="stop-color:#F0BE7B"/>
				<stop  offset="0.6275" style="stop-color:#FFCB85"/>
				<stop  offset="0.7085" style="stop-color:#EEBC79"/>
				<stop  offset="0.8693" style="stop-color:#C0935B"/>
				<stop  offset="1" style="stop-color:#976F40"/>
			</linearGradient>
			<path fill="url(#SVGID_22_)" d="M511.999,465.422c-0.248-0.014-0.464,0.023-0.654,0.094c-2.994,0.449-5.423,2.781-5.423,5.984
				c0,3.299,2.778,6.076,6.077,6.076c3.216,0,5.938-2.631,6.064-5.836c0.129-3.291-2.313-5.752-5.393-6.223
				C512.477,465.445,512.255,465.408,511.999,465.422z M511.999,474.262c-3.572,0-3.539-5.334,0-5.525
				C515.541,468.928,515.569,474.262,511.999,474.262z"/>
			<linearGradient id="SVGID_23_" gradientUnits="userSpaceOnUse" x1="285.7998" y1="188.4683" x2="805.5633" y2="511.9951">
				<stop  offset="0" style="stop-color:#BE965D"/>
				<stop  offset="0.2784" style="stop-color:#976F40"/>
				<stop  offset="0.4259" style="stop-color:#C99B61"/>
				<stop  offset="0.5584" style="stop-color:#F0BE7B"/>
				<stop  offset="0.6275" style="stop-color:#FFCB85"/>
				<stop  offset="0.7085" style="stop-color:#EEBC79"/>
				<stop  offset="0.8693" style="stop-color:#C0935B"/>
				<stop  offset="1" style="stop-color:#976F40"/>
			</linearGradient>
			<path fill="url(#SVGID_23_)" d="M459.185,290.353c-3.215,0-5.939,2.629-6.065,5.836c-0.129,3.29,2.315,5.751,5.393,6.22
				c0.194,0.073,0.418,0.111,0.673,0.098c0.249,0.013,0.465-0.025,0.655-0.093c2.994-0.451,5.422-2.782,5.422-5.985
				C465.262,293.128,462.482,290.353,459.185,290.353z M459.185,299.191c-3.541-0.191-3.571-5.524,0-5.524
				C462.758,293.667,462.725,299,459.185,299.191z"/>
			<linearGradient id="SVGID_24_" gradientUnits="userSpaceOnUse" x1="246.4863" y1="273.3936" x2="766.2509" y2="596.921">
				<stop  offset="0" style="stop-color:#BE965D"/>
				<stop  offset="0.2784" style="stop-color:#976F40"/>
				<stop  offset="0.4259" style="stop-color:#C99B61"/>
				<stop  offset="0.5584" style="stop-color:#F0BE7B"/>
				<stop  offset="0.6275" style="stop-color:#FFCB85"/>
				<stop  offset="0.7085" style="stop-color:#EEBC79"/>
				<stop  offset="0.8693" style="stop-color:#C0935B"/>
				<stop  offset="1" style="stop-color:#976F40"/>
			</linearGradient>
			<path fill="url(#SVGID_24_)" d="M564.815,465.422c-0.25-0.014-0.467,0.023-0.656,0.094c-2.994,0.449-5.422,2.781-5.422,5.984
				c0,3.299,2.777,6.076,6.078,6.076c3.215,0,5.938-2.631,6.063-5.836c0.131-3.291-2.314-5.752-5.393-6.223
				C565.292,465.445,565.069,465.408,564.815,465.422z M564.815,474.262c-3.574,0-3.541-5.334,0-5.525
				C568.354,468.928,568.384,474.262,564.815,474.262z"/>
			<linearGradient id="SVGID_25_" gradientUnits="userSpaceOnUse" x1="315.3164" y1="141.0913" x2="835.039" y2="464.5927">
				<stop  offset="0" style="stop-color:#BE965D"/>
				<stop  offset="0.2784" style="stop-color:#976F40"/>
				<stop  offset="0.4259" style="stop-color:#C99B61"/>
				<stop  offset="0.5584" style="stop-color:#F0BE7B"/>
				<stop  offset="0.6275" style="stop-color:#FFCB85"/>
				<stop  offset="0.7085" style="stop-color:#EEBC79"/>
				<stop  offset="0.8693" style="stop-color:#C0935B"/>
				<stop  offset="1" style="stop-color:#976F40"/>
			</linearGradient>
			<path fill="url(#SVGID_25_)" d="M564.815,290.353c-3.215,0-5.938,2.629-6.064,5.836c-0.131,3.29,2.314,5.751,5.391,6.22
				c0.195,0.073,0.418,0.111,0.674,0.098c0.248,0.013,0.463-0.025,0.654-0.093c2.994-0.451,5.422-2.782,5.422-5.985
				C570.892,293.128,568.112,290.353,564.815,290.353z M564.815,299.191c-3.541-0.191-3.572-5.524,0-5.524
				S568.354,299,564.815,299.191z"/>
			<linearGradient id="SVGID_26_" gradientUnits="userSpaceOnUse" x1="217.0117" y1="320.7959" x2="736.7333" y2="644.2966">
				<stop  offset="0" style="stop-color:#BE965D"/>
				<stop  offset="0.2784" style="stop-color:#976F40"/>
				<stop  offset="0.4259" style="stop-color:#C99B61"/>
				<stop  offset="0.5584" style="stop-color:#F0BE7B"/>
				<stop  offset="0.6275" style="stop-color:#FFCB85"/>
				<stop  offset="0.7085" style="stop-color:#EEBC79"/>
				<stop  offset="0.8693" style="stop-color:#C0935B"/>
				<stop  offset="1" style="stop-color:#976F40"/>
			</linearGradient>
			<path fill="url(#SVGID_26_)" d="M459.185,465.422c-0.248-0.014-0.465,0.023-0.656,0.094c-2.994,0.449-5.421,2.781-5.421,5.984
				c0,3.299,2.778,6.076,6.077,6.076c3.216,0,5.938-2.631,6.064-5.836c0.129-3.291-2.315-5.752-5.393-6.223
				C459.662,465.445,459.44,465.408,459.185,465.422z M459.185,474.262c-3.574,0-3.541-5.334,0-5.525
				C462.725,468.928,462.755,474.262,459.185,474.262z"/>
			<linearGradient id="SVGID_27_" gradientUnits="userSpaceOnUse" x1="268.6538" y1="216.0161" x2="788.4173" y2="539.5429">
				<stop  offset="0" style="stop-color:#BE965D"/>
				<stop  offset="0.2784" style="stop-color:#976F40"/>
				<stop  offset="0.4259" style="stop-color:#C99B61"/>
				<stop  offset="0.5584" style="stop-color:#F0BE7B"/>
				<stop  offset="0.6275" style="stop-color:#FFCB85"/>
				<stop  offset="0.7085" style="stop-color:#EEBC79"/>
				<stop  offset="0.8693" style="stop-color:#C0935B"/>
				<stop  offset="1" style="stop-color:#976F40"/>
			</linearGradient>
			<path fill="url(#SVGID_27_)" d="M384.593,294.619c0.193,0.073,0.417,0.111,0.673,0.097c0.248,0.013,0.464-0.023,0.654-0.093
				c2.995-0.449,5.423-2.782,5.423-5.984c0-3.299-2.779-6.077-6.077-6.077c-3.215,0-5.939,2.63-6.064,5.837
				C379.07,291.688,381.515,294.149,384.593,294.619z M385.266,285.877c3.573,0,3.54,5.334,0,5.524
				C381.724,291.211,381.694,285.877,385.266,285.877z"/>
			<linearGradient id="SVGID_28_" gradientUnits="userSpaceOnUse" x1="263.6328" y1="245.8447" x2="783.3973" y2="569.3722">
				<stop  offset="0" style="stop-color:#BE965D"/>
				<stop  offset="0.2784" style="stop-color:#976F40"/>
				<stop  offset="0.4259" style="stop-color:#C99B61"/>
				<stop  offset="0.5584" style="stop-color:#F0BE7B"/>
				<stop  offset="0.6275" style="stop-color:#FFCB85"/>
				<stop  offset="0.7085" style="stop-color:#EEBC79"/>
				<stop  offset="0.8693" style="stop-color:#C0935B"/>
				<stop  offset="1" style="stop-color:#976F40"/>
			</linearGradient>
			<path fill="url(#SVGID_28_)" d="M639.405,473.309c-0.193-0.072-0.416-0.111-0.672-0.098c-0.248-0.014-0.465,0.025-0.656,0.094
				c-2.994,0.449-5.42,2.781-5.42,5.984c0,3.301,2.777,6.076,6.076,6.076c3.217,0,5.939-2.629,6.064-5.836
				C644.927,476.238,642.483,473.777,639.405,473.309z M638.733,482.051c-3.572,0-3.541-5.332,0-5.525
				C642.274,476.719,642.304,482.051,638.733,482.051z"/>
			<linearGradient id="SVGID_29_" gradientUnits="userSpaceOnUse" x1="339.4316" y1="102.3003" x2="859.1962" y2="425.8278">
				<stop  offset="0" style="stop-color:#BE965D"/>
				<stop  offset="0.2784" style="stop-color:#976F40"/>
				<stop  offset="0.4259" style="stop-color:#C99B61"/>
				<stop  offset="0.5584" style="stop-color:#F0BE7B"/>
				<stop  offset="0.6275" style="stop-color:#FFCB85"/>
				<stop  offset="0.7085" style="stop-color:#EEBC79"/>
				<stop  offset="0.8693" style="stop-color:#C0935B"/>
				<stop  offset="1" style="stop-color:#976F40"/>
			</linearGradient>
			<path fill="url(#SVGID_29_)" d="M638.062,294.619c0.193,0.073,0.418,0.111,0.672,0.097c0.25,0.013,0.465-0.023,0.656-0.093
				c2.994-0.449,5.422-2.782,5.422-5.984c0-3.299-2.779-6.077-6.078-6.077c-3.215,0-5.939,2.63-6.063,5.837
				C632.54,291.689,634.983,294.149,638.062,294.619z M638.733,285.877c3.574,0,3.541,5.334,0,5.524
				C635.192,291.211,635.163,285.877,638.733,285.877z"/>
			<linearGradient id="SVGID_30_" gradientUnits="userSpaceOnUse" x1="192.8569" y1="359.5615" x2="712.6204" y2="683.0883">
				<stop  offset="0" style="stop-color:#BE965D"/>
				<stop  offset="0.2784" style="stop-color:#976F40"/>
				<stop  offset="0.4259" style="stop-color:#C99B61"/>
				<stop  offset="0.5584" style="stop-color:#F0BE7B"/>
				<stop  offset="0.6275" style="stop-color:#FFCB85"/>
				<stop  offset="0.7085" style="stop-color:#EEBC79"/>
				<stop  offset="0.8693" style="stop-color:#C0935B"/>
				<stop  offset="1" style="stop-color:#976F40"/>
			</linearGradient>
			<path fill="url(#SVGID_30_)" d="M385.937,473.309c-0.193-0.072-0.416-0.111-0.671-0.098c-0.249-0.014-0.466,0.025-0.656,0.094
				c-2.995,0.449-5.421,2.781-5.421,5.984c0,3.301,2.777,6.076,6.077,6.076c3.215,0,5.938-2.629,6.063-5.836
				C391.459,476.238,389.014,473.777,385.937,473.309z M385.266,482.051c-3.575,0-3.542-5.332,0-5.525
				C388.806,476.719,388.835,482.051,385.266,482.051z"/>
			<linearGradient id="SVGID_31_" gradientUnits="userSpaceOnUse" x1="241.5156" y1="259.6094" x2="761.3146" y2="583.1583">
				<stop  offset="0" style="stop-color:#BE965D"/>
				<stop  offset="0.2784" style="stop-color:#976F40"/>
				<stop  offset="0.4259" style="stop-color:#C99B61"/>
				<stop  offset="0.5584" style="stop-color:#F0BE7B"/>
				<stop  offset="0.6275" style="stop-color:#FFCB85"/>
				<stop  offset="0.7085" style="stop-color:#EEBC79"/>
				<stop  offset="0.8693" style="stop-color:#C0935B"/>
				<stop  offset="1" style="stop-color:#976F40"/>
			</linearGradient>
			<path fill="url(#SVGID_31_)" d="M292.776,294.587c0.206,0.097,0.433,0.148,0.67,0.128c0.235,0.02,0.461-0.031,0.666-0.127
				c1.186-0.336,2.095-1.289,2.095-2.634c0-1.498-1.263-2.763-2.761-2.763s-2.763,1.265-2.763,2.763
				C290.684,293.299,291.594,294.25,292.776,294.587z"/>
			<linearGradient id="SVGID_32_" gradientUnits="userSpaceOnUse" x1="290.7412" y1="202.2329" x2="810.5374" y2="525.7801">
				<stop  offset="0" style="stop-color:#BE965D"/>
				<stop  offset="0.2784" style="stop-color:#976F40"/>
				<stop  offset="0.4259" style="stop-color:#C99B61"/>
				<stop  offset="0.5584" style="stop-color:#F0BE7B"/>
				<stop  offset="0.6275" style="stop-color:#FFCB85"/>
				<stop  offset="0.7085" style="stop-color:#EEBC79"/>
				<stop  offset="0.8693" style="stop-color:#C0935B"/>
				<stop  offset="1" style="stop-color:#976F40"/>
			</linearGradient>
			<path fill="url(#SVGID_32_)" d="M731.224,473.34c-0.207-0.096-0.434-0.146-0.67-0.129c-0.238-0.018-0.461,0.031-0.668,0.127
				c-1.184,0.34-2.096,1.291-2.096,2.637c0,1.498,1.264,2.762,2.764,2.762c1.498,0,2.762-1.264,2.762-2.762
				C733.315,474.629,732.405,473.678,731.224,473.34z"/>
			<linearGradient id="SVGID_33_" gradientUnits="userSpaceOnUse" x1="363.5557" y1="63.4961" x2="883.3491" y2="387.0415">
				<stop  offset="0" style="stop-color:#BE965D"/>
				<stop  offset="0.2784" style="stop-color:#976F40"/>
				<stop  offset="0.4259" style="stop-color:#C99B61"/>
				<stop  offset="0.5584" style="stop-color:#F0BE7B"/>
				<stop  offset="0.6275" style="stop-color:#FFCB85"/>
				<stop  offset="0.7085" style="stop-color:#EEBC79"/>
				<stop  offset="0.8693" style="stop-color:#C0935B"/>
				<stop  offset="1" style="stop-color:#976F40"/>
			</linearGradient>
			<path fill="url(#SVGID_33_)" d="M729.884,294.587c0.205,0.097,0.432,0.148,0.67,0.128c0.234,0.02,0.461-0.031,0.666-0.127
				c1.186-0.336,2.096-1.289,2.096-2.634c0-1.498-1.264-2.763-2.762-2.763c-1.5,0-2.764,1.265-2.764,2.763
				C727.79,293.299,728.7,294.25,729.884,294.587z"/>
			<linearGradient id="SVGID_34_" gradientUnits="userSpaceOnUse" x1="168.7476" y1="398.375" x2="688.3612" y2="721.8085">
				<stop  offset="0" style="stop-color:#BE965D"/>
				<stop  offset="0.2784" style="stop-color:#976F40"/>
				<stop  offset="0.4259" style="stop-color:#C99B61"/>
				<stop  offset="0.5584" style="stop-color:#F0BE7B"/>
				<stop  offset="0.6275" style="stop-color:#FFCB85"/>
				<stop  offset="0.7085" style="stop-color:#EEBC79"/>
				<stop  offset="0.8693" style="stop-color:#C0935B"/>
				<stop  offset="1" style="stop-color:#976F40"/>
			</linearGradient>
			<path fill="url(#SVGID_34_)" d="M294.116,473.34c-0.207-0.096-0.433-0.146-0.67-0.129c-0.237-0.018-0.461,0.031-0.668,0.127
				c-1.183,0.338-2.095,1.291-2.095,2.637c0,1.498,1.265,2.762,2.763,2.762s2.761-1.264,2.761-2.762
				C296.207,474.629,295.298,473.678,294.116,473.34z"/>
			<linearGradient id="SVGID_35_" gradientUnits="userSpaceOnUse" x1="244.9395" y1="254.1069" x2="764.7384" y2="577.6558">
				<stop  offset="0" style="stop-color:#BE965D"/>
				<stop  offset="0.2784" style="stop-color:#976F40"/>
				<stop  offset="0.4259" style="stop-color:#C99B61"/>
				<stop  offset="0.5584" style="stop-color:#F0BE7B"/>
				<stop  offset="0.6275" style="stop-color:#FFCB85"/>
				<stop  offset="0.7085" style="stop-color:#EEBC79"/>
				<stop  offset="0.8693" style="stop-color:#C0935B"/>
				<stop  offset="1" style="stop-color:#976F40"/>
			</linearGradient>
			<path fill="url(#SVGID_35_)" d="M305.04,294.587c0.207,0.097,0.433,0.148,0.67,0.128c0.237,0.02,0.462-0.031,0.668-0.127
				c1.184-0.336,2.095-1.289,2.095-2.634c0-1.498-1.265-2.763-2.763-2.763s-2.763,1.265-2.763,2.763
				C302.947,293.299,303.858,294.25,305.04,294.587z"/>
			<linearGradient id="SVGID_36_" gradientUnits="userSpaceOnUse" x1="287.3931" y1="207.7832" x2="807.097" y2="531.273">
				<stop  offset="0" style="stop-color:#BE965D"/>
				<stop  offset="0.2784" style="stop-color:#976F40"/>
				<stop  offset="0.4259" style="stop-color:#C99B61"/>
				<stop  offset="0.5584" style="stop-color:#F0BE7B"/>
				<stop  offset="0.6275" style="stop-color:#FFCB85"/>
				<stop  offset="0.7085" style="stop-color:#EEBC79"/>
				<stop  offset="0.8693" style="stop-color:#C0935B"/>
				<stop  offset="1" style="stop-color:#976F40"/>
			</linearGradient>
			<path fill="url(#SVGID_36_)" d="M718.958,473.34c-0.207-0.096-0.434-0.146-0.67-0.129c-0.234-0.018-0.461,0.031-0.668,0.127
				c-1.184,0.34-2.094,1.291-2.094,2.637c0,1.498,1.264,2.762,2.762,2.762s2.762-1.264,2.762-2.762
				C721.05,474.629,720.142,473.678,718.958,473.34z"/>
			<linearGradient id="SVGID_37_" gradientUnits="userSpaceOnUse" x1="360.1943" y1="69.0381" x2="879.8955" y2="392.5261">
				<stop  offset="0" style="stop-color:#BE965D"/>
				<stop  offset="0.2784" style="stop-color:#976F40"/>
				<stop  offset="0.4259" style="stop-color:#C99B61"/>
				<stop  offset="0.5584" style="stop-color:#F0BE7B"/>
				<stop  offset="0.6275" style="stop-color:#FFCB85"/>
				<stop  offset="0.7085" style="stop-color:#EEBC79"/>
				<stop  offset="0.8693" style="stop-color:#C0935B"/>
				<stop  offset="1" style="stop-color:#976F40"/>
			</linearGradient>
			<path fill="url(#SVGID_37_)" d="M717.618,294.587c0.207,0.097,0.434,0.148,0.67,0.128c0.236,0.02,0.461-0.031,0.668-0.127
				c1.184-0.336,2.094-1.289,2.094-2.634c0-1.498-1.264-2.763-2.762-2.763s-2.762,1.265-2.762,2.763
				C715.526,293.299,716.435,294.25,717.618,294.587z"/>
			<linearGradient id="SVGID_38_" gradientUnits="userSpaceOnUse" x1="172.1274" y1="392.8457" x2="691.9255" y2="716.394">
				<stop  offset="0" style="stop-color:#BE965D"/>
				<stop  offset="0.2784" style="stop-color:#976F40"/>
				<stop  offset="0.4259" style="stop-color:#C99B61"/>
				<stop  offset="0.5584" style="stop-color:#F0BE7B"/>
				<stop  offset="0.6275" style="stop-color:#FFCB85"/>
				<stop  offset="0.7085" style="stop-color:#EEBC79"/>
				<stop  offset="0.8693" style="stop-color:#C0935B"/>
				<stop  offset="1" style="stop-color:#976F40"/>
			</linearGradient>
			<path fill="url(#SVGID_38_)" d="M306.38,473.34c-0.206-0.096-0.433-0.146-0.67-0.129c-0.235-0.018-0.461,0.031-0.666,0.127
				c-1.186,0.338-2.097,1.291-2.097,2.637c0,1.498,1.265,2.762,2.763,2.762s2.763-1.264,2.763-2.762
				C308.473,474.629,307.563,473.678,306.38,473.34z"/>
			<linearGradient id="SVGID_39_" gradientUnits="userSpaceOnUse" x1="248.376" y1="248.6118" x2="768.0828" y2="572.1033">
				<stop  offset="0" style="stop-color:#BE965D"/>
				<stop  offset="0.2784" style="stop-color:#976F40"/>
				<stop  offset="0.4259" style="stop-color:#C99B61"/>
				<stop  offset="0.5584" style="stop-color:#F0BE7B"/>
				<stop  offset="0.6275" style="stop-color:#FFCB85"/>
				<stop  offset="0.7085" style="stop-color:#EEBC79"/>
				<stop  offset="0.8693" style="stop-color:#C0935B"/>
				<stop  offset="1" style="stop-color:#976F40"/>
			</linearGradient>
			<path fill="url(#SVGID_39_)" d="M317.306,294.587c0.207,0.097,0.433,0.148,0.67,0.128c0.234,0.02,0.46-0.031,0.667-0.127
				c1.184-0.336,2.095-1.289,2.095-2.634c0-1.498-1.264-2.763-2.762-2.763c-1.499,0-2.763,1.265-2.763,2.763
				C315.213,293.299,316.122,294.25,317.306,294.587z"/>
			<linearGradient id="SVGID_40_" gradientUnits="userSpaceOnUse" x1="283.9648" y1="213.2837" x2="803.6716" y2="536.7752">
				<stop  offset="0" style="stop-color:#BE965D"/>
				<stop  offset="0.2784" style="stop-color:#976F40"/>
				<stop  offset="0.4259" style="stop-color:#C99B61"/>
				<stop  offset="0.5584" style="stop-color:#F0BE7B"/>
				<stop  offset="0.6275" style="stop-color:#FFCB85"/>
				<stop  offset="0.7085" style="stop-color:#EEBC79"/>
				<stop  offset="0.8693" style="stop-color:#C0935B"/>
				<stop  offset="1" style="stop-color:#976F40"/>
			</linearGradient>
			<path fill="url(#SVGID_40_)" d="M706.692,473.34c-0.205-0.096-0.432-0.146-0.67-0.129c-0.234-0.018-0.461,0.031-0.666,0.127
				c-1.186,0.34-2.094,1.291-2.094,2.637c0,1.498,1.262,2.762,2.76,2.762c1.5,0,2.764-1.264,2.764-2.762
				C708.786,474.629,707.876,473.678,706.692,473.34z"/>
			<linearGradient id="SVGID_41_" gradientUnits="userSpaceOnUse" x1="356.7656" y1="74.5376" x2="876.4729" y2="398.0294">
				<stop  offset="0" style="stop-color:#BE965D"/>
				<stop  offset="0.2784" style="stop-color:#976F40"/>
				<stop  offset="0.4259" style="stop-color:#C99B61"/>
				<stop  offset="0.5584" style="stop-color:#F0BE7B"/>
				<stop  offset="0.6275" style="stop-color:#FFCB85"/>
				<stop  offset="0.7085" style="stop-color:#EEBC79"/>
				<stop  offset="0.8693" style="stop-color:#C0935B"/>
				<stop  offset="1" style="stop-color:#976F40"/>
			</linearGradient>
			<path fill="url(#SVGID_41_)" d="M705.353,294.587c0.209,0.097,0.434,0.148,0.67,0.128c0.238,0.02,0.463-0.031,0.668-0.127
				c1.184-0.336,2.096-1.289,2.096-2.634c0-1.498-1.264-2.763-2.764-2.763c-1.498,0-2.76,1.265-2.76,2.763
				C703.263,293.299,704.171,294.25,705.353,294.587z"/>
			<linearGradient id="SVGID_42_" gradientUnits="userSpaceOnUse" x1="175.5518" y1="387.3428" x2="695.3498" y2="710.8911">
				<stop  offset="0" style="stop-color:#BE965D"/>
				<stop  offset="0.2784" style="stop-color:#976F40"/>
				<stop  offset="0.4259" style="stop-color:#C99B61"/>
				<stop  offset="0.5584" style="stop-color:#F0BE7B"/>
				<stop  offset="0.6275" style="stop-color:#FFCB85"/>
				<stop  offset="0.7085" style="stop-color:#EEBC79"/>
				<stop  offset="0.8693" style="stop-color:#C0935B"/>
				<stop  offset="1" style="stop-color:#976F40"/>
			</linearGradient>
			<path fill="url(#SVGID_42_)" d="M318.645,473.34c-0.207-0.096-0.433-0.146-0.669-0.129c-0.235-0.018-0.461,0.031-0.668,0.127
				c-1.184,0.338-2.095,1.291-2.095,2.637c0,1.498,1.264,2.762,2.763,2.762c1.498,0,2.762-1.264,2.762-2.762
				C320.737,474.629,319.828,473.678,318.645,473.34z"/>
			<linearGradient id="SVGID_43_" gradientUnits="userSpaceOnUse" x1="251.8022" y1="243.1099" x2="771.509" y2="566.6014">
				<stop  offset="0" style="stop-color:#BE965D"/>
				<stop  offset="0.2784" style="stop-color:#976F40"/>
				<stop  offset="0.4259" style="stop-color:#C99B61"/>
				<stop  offset="0.5584" style="stop-color:#F0BE7B"/>
				<stop  offset="0.6275" style="stop-color:#FFCB85"/>
				<stop  offset="0.7085" style="stop-color:#EEBC79"/>
				<stop  offset="0.8693" style="stop-color:#C0935B"/>
				<stop  offset="1" style="stop-color:#976F40"/>
			</linearGradient>
			<path fill="url(#SVGID_43_)" d="M329.57,294.587c0.206,0.097,0.433,0.148,0.67,0.128c0.235,0.02,0.461-0.031,0.666-0.127
				c1.186-0.336,2.095-1.289,2.095-2.634c0-1.498-1.263-2.763-2.761-2.763s-2.763,1.265-2.763,2.763
				C327.478,293.299,328.388,294.25,329.57,294.587z"/>
			<linearGradient id="SVGID_44_" gradientUnits="userSpaceOnUse" x1="280.4668" y1="218.7407" x2="800.2657" y2="542.2896">
				<stop  offset="0" style="stop-color:#BE965D"/>
				<stop  offset="0.2784" style="stop-color:#976F40"/>
				<stop  offset="0.4259" style="stop-color:#C99B61"/>
				<stop  offset="0.5584" style="stop-color:#F0BE7B"/>
				<stop  offset="0.6275" style="stop-color:#FFCB85"/>
				<stop  offset="0.7085" style="stop-color:#EEBC79"/>
				<stop  offset="0.8693" style="stop-color:#C0935B"/>
				<stop  offset="1" style="stop-color:#976F40"/>
			</linearGradient>
			<path fill="url(#SVGID_44_)" d="M694.429,473.34c-0.207-0.096-0.432-0.146-0.67-0.129c-0.236-0.018-0.461,0.031-0.668,0.127
				c-1.182,0.34-2.094,1.291-2.094,2.637c0,1.498,1.262,2.762,2.762,2.762c1.498,0,2.764-1.264,2.764-2.762
				C696.522,474.629,695.61,473.678,694.429,473.34z"/>
			<linearGradient id="SVGID_45_" gradientUnits="userSpaceOnUse" x1="353.2793" y1="80.0015" x2="873.0787" y2="403.5507">
				<stop  offset="0" style="stop-color:#BE965D"/>
				<stop  offset="0.2784" style="stop-color:#976F40"/>
				<stop  offset="0.4259" style="stop-color:#C99B61"/>
				<stop  offset="0.5584" style="stop-color:#F0BE7B"/>
				<stop  offset="0.6275" style="stop-color:#FFCB85"/>
				<stop  offset="0.7085" style="stop-color:#EEBC79"/>
				<stop  offset="0.8693" style="stop-color:#C0935B"/>
				<stop  offset="1" style="stop-color:#976F40"/>
			</linearGradient>
			<path fill="url(#SVGID_45_)" d="M693.091,294.587c0.205,0.097,0.432,0.148,0.668,0.128c0.236,0.02,0.461-0.031,0.666-0.127
				c1.186-0.336,2.098-1.289,2.098-2.634c0-1.498-1.266-2.763-2.764-2.763c-1.5,0-2.762,1.265-2.762,2.763
				C690.997,293.299,691.907,294.25,693.091,294.587z"/>
			<linearGradient id="SVGID_46_" gradientUnits="userSpaceOnUse" x1="179.0024" y1="381.856" x2="698.7083" y2="705.3469">
				<stop  offset="0" style="stop-color:#BE965D"/>
				<stop  offset="0.2784" style="stop-color:#976F40"/>
				<stop  offset="0.4259" style="stop-color:#C99B61"/>
				<stop  offset="0.5584" style="stop-color:#F0BE7B"/>
				<stop  offset="0.6275" style="stop-color:#FFCB85"/>
				<stop  offset="0.7085" style="stop-color:#EEBC79"/>
				<stop  offset="0.8693" style="stop-color:#C0935B"/>
				<stop  offset="1" style="stop-color:#976F40"/>
			</linearGradient>
			<path fill="url(#SVGID_46_)" d="M330.91,473.34c-0.207-0.096-0.433-0.146-0.67-0.129c-0.237-0.018-0.461,0.031-0.668,0.127
				c-1.183,0.338-2.095,1.291-2.095,2.637c0,1.498,1.265,2.762,2.763,2.762s2.761-1.264,2.761-2.762
				C333.001,474.629,332.092,473.678,330.91,473.34z"/>
			<linearGradient id="SVGID_47_" gradientUnits="userSpaceOnUse" x1="255.2285" y1="237.6089" x2="774.9353" y2="561.1004">
				<stop  offset="0" style="stop-color:#BE965D"/>
				<stop  offset="0.2784" style="stop-color:#976F40"/>
				<stop  offset="0.4259" style="stop-color:#C99B61"/>
				<stop  offset="0.5584" style="stop-color:#F0BE7B"/>
				<stop  offset="0.6275" style="stop-color:#FFCB85"/>
				<stop  offset="0.7085" style="stop-color:#EEBC79"/>
				<stop  offset="0.8693" style="stop-color:#C0935B"/>
				<stop  offset="1" style="stop-color:#976F40"/>
			</linearGradient>
			<path fill="url(#SVGID_47_)" d="M341.834,294.587c0.207,0.097,0.433,0.148,0.67,0.128c0.237,0.02,0.462-0.031,0.668-0.127
				c1.183-0.336,2.095-1.289,2.095-2.634c0-1.498-1.265-2.763-2.763-2.763s-2.761,1.265-2.761,2.763
				C339.743,293.299,340.652,294.25,341.834,294.587z"/>
			<linearGradient id="SVGID_48_" gradientUnits="userSpaceOnUse" x1="277.041" y1="224.2427" x2="796.84" y2="547.7916">
				<stop  offset="0" style="stop-color:#BE965D"/>
				<stop  offset="0.2784" style="stop-color:#976F40"/>
				<stop  offset="0.4259" style="stop-color:#C99B61"/>
				<stop  offset="0.5584" style="stop-color:#F0BE7B"/>
				<stop  offset="0.6275" style="stop-color:#FFCB85"/>
				<stop  offset="0.7085" style="stop-color:#EEBC79"/>
				<stop  offset="0.8693" style="stop-color:#C0935B"/>
				<stop  offset="1" style="stop-color:#976F40"/>
			</linearGradient>
			<path fill="url(#SVGID_48_)" d="M682.163,473.34c-0.205-0.096-0.432-0.146-0.668-0.129c-0.236-0.018-0.461,0.031-0.668,0.127
				c-1.184,0.34-2.096,1.291-2.096,2.637c0,1.498,1.264,2.762,2.764,2.762c1.498,0,2.762-1.264,2.762-2.762
				C684.257,474.629,683.347,473.678,682.163,473.34z"/>
			<linearGradient id="SVGID_49_" gradientUnits="userSpaceOnUse" x1="349.854" y1="85.5044" x2="869.6534" y2="409.0536">
				<stop  offset="0" style="stop-color:#BE965D"/>
				<stop  offset="0.2784" style="stop-color:#976F40"/>
				<stop  offset="0.4259" style="stop-color:#C99B61"/>
				<stop  offset="0.5584" style="stop-color:#F0BE7B"/>
				<stop  offset="0.6275" style="stop-color:#FFCB85"/>
				<stop  offset="0.7085" style="stop-color:#EEBC79"/>
				<stop  offset="0.8693" style="stop-color:#C0935B"/>
				<stop  offset="1" style="stop-color:#976F40"/>
			</linearGradient>
			<path fill="url(#SVGID_49_)" d="M680.825,294.587c0.207,0.097,0.432,0.148,0.67,0.128c0.234,0.02,0.459-0.031,0.666-0.127
				c1.184-0.336,2.096-1.289,2.096-2.634c0-1.498-1.264-2.763-2.762-2.763c-1.5,0-2.764,1.265-2.764,2.763
				C678.731,293.299,679.642,294.25,680.825,294.587z"/>
			<linearGradient id="SVGID_50_" gradientUnits="userSpaceOnUse" x1="182.457" y1="376.3726" x2="702.0707" y2="699.8061">
				<stop  offset="0" style="stop-color:#BE965D"/>
				<stop  offset="0.2784" style="stop-color:#976F40"/>
				<stop  offset="0.4259" style="stop-color:#C99B61"/>
				<stop  offset="0.5584" style="stop-color:#F0BE7B"/>
				<stop  offset="0.6275" style="stop-color:#FFCB85"/>
				<stop  offset="0.7085" style="stop-color:#EEBC79"/>
				<stop  offset="0.8693" style="stop-color:#C0935B"/>
				<stop  offset="1" style="stop-color:#976F40"/>
			</linearGradient>
			<path fill="url(#SVGID_50_)" d="M343.174,473.34c-0.206-0.096-0.433-0.146-0.67-0.129c-0.235-0.018-0.461,0.031-0.666,0.127
				c-1.186,0.338-2.095,1.291-2.095,2.637c0,1.498,1.263,2.762,2.761,2.762s2.763-1.264,2.763-2.762
				C345.267,474.629,344.356,473.678,343.174,473.34z"/>
			<linearGradient id="SVGID_51_" gradientUnits="userSpaceOnUse" x1="258.6367" y1="232.0962" x2="778.4357" y2="555.6451">
				<stop  offset="0" style="stop-color:#BE965D"/>
				<stop  offset="0.2784" style="stop-color:#976F40"/>
				<stop  offset="0.4259" style="stop-color:#C99B61"/>
				<stop  offset="0.5584" style="stop-color:#F0BE7B"/>
				<stop  offset="0.6275" style="stop-color:#FFCB85"/>
				<stop  offset="0.7085" style="stop-color:#EEBC79"/>
				<stop  offset="0.8693" style="stop-color:#C0935B"/>
				<stop  offset="1" style="stop-color:#976F40"/>
			</linearGradient>
			<path fill="url(#SVGID_51_)" d="M354.1,294.587c0.207,0.097,0.433,0.148,0.669,0.128c0.235,0.02,0.461-0.031,0.668-0.127
				c1.184-0.336,2.095-1.289,2.095-2.634c0-1.498-1.264-2.763-2.763-2.763c-1.498,0-2.762,1.265-2.762,2.763
				C352.007,293.299,352.916,294.25,354.1,294.587z"/>
			<linearGradient id="SVGID_52_" gradientUnits="userSpaceOnUse" x1="273.6162" y1="229.7446" x2="793.4152" y2="553.2935">
				<stop  offset="0" style="stop-color:#BE965D"/>
				<stop  offset="0.2784" style="stop-color:#976F40"/>
				<stop  offset="0.4259" style="stop-color:#C99B61"/>
				<stop  offset="0.5584" style="stop-color:#F0BE7B"/>
				<stop  offset="0.6275" style="stop-color:#FFCB85"/>
				<stop  offset="0.7085" style="stop-color:#EEBC79"/>
				<stop  offset="0.8693" style="stop-color:#C0935B"/>
				<stop  offset="1" style="stop-color:#976F40"/>
			</linearGradient>
			<path fill="url(#SVGID_52_)" d="M669.899,473.34c-0.207-0.096-0.434-0.146-0.67-0.129c-0.236-0.018-0.461,0.031-0.666,0.127
				c-1.186,0.34-2.098,1.291-2.098,2.637c0,1.498,1.266,2.762,2.764,2.762c1.5,0,2.762-1.264,2.762-2.762
				C671.991,474.629,671.081,473.678,669.899,473.34z"/>
			<linearGradient id="SVGID_53_" gradientUnits="userSpaceOnUse" x1="346.4292" y1="91.0063" x2="866.2286" y2="414.5555">
				<stop  offset="0" style="stop-color:#BE965D"/>
				<stop  offset="0.2784" style="stop-color:#976F40"/>
				<stop  offset="0.4259" style="stop-color:#C99B61"/>
				<stop  offset="0.5584" style="stop-color:#F0BE7B"/>
				<stop  offset="0.6275" style="stop-color:#FFCB85"/>
				<stop  offset="0.7085" style="stop-color:#EEBC79"/>
				<stop  offset="0.8693" style="stop-color:#C0935B"/>
				<stop  offset="1" style="stop-color:#976F40"/>
			</linearGradient>
			<path fill="url(#SVGID_53_)" d="M668.56,294.587c0.207,0.097,0.432,0.148,0.67,0.128c0.236,0.02,0.461-0.031,0.668-0.127
				c1.184-0.336,2.094-1.289,2.094-2.634c0-1.498-1.262-2.763-2.762-2.763c-1.498,0-2.764,1.265-2.764,2.763
				C666.466,293.299,667.378,294.25,668.56,294.587z"/>
			<linearGradient id="SVGID_54_" gradientUnits="userSpaceOnUse" x1="185.8545" y1="370.8535" x2="705.5603" y2="694.3444">
				<stop  offset="0" style="stop-color:#BE965D"/>
				<stop  offset="0.2784" style="stop-color:#976F40"/>
				<stop  offset="0.4259" style="stop-color:#C99B61"/>
				<stop  offset="0.5584" style="stop-color:#F0BE7B"/>
				<stop  offset="0.6275" style="stop-color:#FFCB85"/>
				<stop  offset="0.7085" style="stop-color:#EEBC79"/>
				<stop  offset="0.8693" style="stop-color:#C0935B"/>
				<stop  offset="1" style="stop-color:#976F40"/>
			</linearGradient>
			<path fill="url(#SVGID_54_)" d="M355.438,473.34c-0.205-0.096-0.433-0.146-0.67-0.129c-0.234-0.018-0.46,0.031-0.667,0.127
				c-1.184,0.338-2.095,1.291-2.095,2.637c0,1.498,1.264,2.762,2.762,2.762c1.499,0,2.763-1.264,2.763-2.762
				C357.531,474.629,356.622,473.678,355.438,473.34z"/>
			<linearGradient id="SVGID_55_" gradientUnits="userSpaceOnUse" x1="262.0801" y1="226.605" x2="781.7869" y2="550.0965">
				<stop  offset="0" style="stop-color:#BE965D"/>
				<stop  offset="0.2784" style="stop-color:#976F40"/>
				<stop  offset="0.4259" style="stop-color:#C99B61"/>
				<stop  offset="0.5584" style="stop-color:#F0BE7B"/>
				<stop  offset="0.6275" style="stop-color:#FFCB85"/>
				<stop  offset="0.7085" style="stop-color:#EEBC79"/>
				<stop  offset="0.8693" style="stop-color:#C0935B"/>
				<stop  offset="1" style="stop-color:#976F40"/>
			</linearGradient>
			<path fill="url(#SVGID_55_)" d="M366.364,294.587c0.206,0.097,0.433,0.148,0.67,0.128c0.235,0.02,0.461-0.031,0.666-0.127
				c1.186-0.336,2.095-1.289,2.095-2.634c0-1.498-1.263-2.763-2.761-2.763s-2.763,1.265-2.763,2.763
				C364.271,293.299,365.182,294.25,366.364,294.587z"/>
			<linearGradient id="SVGID_56_" gradientUnits="userSpaceOnUse" x1="270.1943" y1="235.248" x2="789.9933" y2="558.7969">
				<stop  offset="0" style="stop-color:#BE965D"/>
				<stop  offset="0.2784" style="stop-color:#976F40"/>
				<stop  offset="0.4259" style="stop-color:#C99B61"/>
				<stop  offset="0.5584" style="stop-color:#F0BE7B"/>
				<stop  offset="0.6275" style="stop-color:#FFCB85"/>
				<stop  offset="0.7085" style="stop-color:#EEBC79"/>
				<stop  offset="0.8693" style="stop-color:#C0935B"/>
				<stop  offset="1" style="stop-color:#976F40"/>
			</linearGradient>
			<path fill="url(#SVGID_56_)" d="M657.636,473.34c-0.207-0.096-0.434-0.146-0.67-0.129c-0.236-0.018-0.463,0.031-0.668,0.127
				c-1.184,0.34-2.096,1.291-2.096,2.637c0,1.498,1.266,2.762,2.764,2.762s2.762-1.264,2.762-2.762
				C659.728,474.629,658.817,473.678,657.636,473.34z"/>
			<linearGradient id="SVGID_57_" gradientUnits="userSpaceOnUse" x1="343.0068" y1="96.5103" x2="862.8063" y2="420.0594">
				<stop  offset="0" style="stop-color:#BE965D"/>
				<stop  offset="0.2784" style="stop-color:#976F40"/>
				<stop  offset="0.4259" style="stop-color:#C99B61"/>
				<stop  offset="0.5584" style="stop-color:#F0BE7B"/>
				<stop  offset="0.6275" style="stop-color:#FFCB85"/>
				<stop  offset="0.7085" style="stop-color:#EEBC79"/>
				<stop  offset="0.8693" style="stop-color:#C0935B"/>
				<stop  offset="1" style="stop-color:#976F40"/>
			</linearGradient>
			<path fill="url(#SVGID_57_)" d="M656.296,294.587c0.205,0.097,0.434,0.148,0.67,0.128c0.234,0.02,0.461-0.031,0.666-0.127
				c1.186-0.336,2.096-1.289,2.096-2.634c0-1.498-1.264-2.763-2.762-2.763s-2.764,1.265-2.764,2.763
				C654.202,293.299,655.112,294.25,656.296,294.587z"/>
			<linearGradient id="SVGID_58_" gradientUnits="userSpaceOnUse" x1="189.2803" y1="365.3516" x2="708.9861" y2="688.8425">
				<stop  offset="0" style="stop-color:#BE965D"/>
				<stop  offset="0.2784" style="stop-color:#976F40"/>
				<stop  offset="0.4259" style="stop-color:#C99B61"/>
				<stop  offset="0.5584" style="stop-color:#F0BE7B"/>
				<stop  offset="0.6275" style="stop-color:#FFCB85"/>
				<stop  offset="0.7085" style="stop-color:#EEBC79"/>
				<stop  offset="0.8693" style="stop-color:#C0935B"/>
				<stop  offset="1" style="stop-color:#976F40"/>
			</linearGradient>
			<path fill="url(#SVGID_58_)" d="M367.704,473.34c-0.208-0.096-0.433-0.146-0.67-0.129c-0.237-0.018-0.462,0.031-0.668,0.127
				c-1.184,0.338-2.095,1.291-2.095,2.637c0,1.498,1.265,2.762,2.763,2.762s2.761-1.264,2.761-2.762
				C369.795,474.629,368.886,473.678,367.704,473.34z"/>
			<linearGradient id="SVGID_59_" gradientUnits="userSpaceOnUse" x1="259.437" y1="230.8291" x2="779.1877" y2="554.348">
				<stop  offset="0" style="stop-color:#BE965D"/>
				<stop  offset="0.2784" style="stop-color:#976F40"/>
				<stop  offset="0.4259" style="stop-color:#C99B61"/>
				<stop  offset="0.5584" style="stop-color:#F0BE7B"/>
				<stop  offset="0.6275" style="stop-color:#FFCB85"/>
				<stop  offset="0.7085" style="stop-color:#EEBC79"/>
				<stop  offset="0.8693" style="stop-color:#C0935B"/>
				<stop  offset="1" style="stop-color:#976F40"/>
			</linearGradient>
			<path fill="url(#SVGID_59_)" d="M282.618,302.472c40.619,0,81.235,0,121.854,0c0.368,0.084,0.715,0.028,1.013-0.129
				c0.525-0.222,0.83-0.706,0.913-1.231c0.081-0.378,0.035-0.774-0.172-1.122c-0.164-0.323-0.435-0.585-0.809-0.723
				c-11.783-7.294-5.37-27.298,8.541-26.223c2.128,0.165,2.116-3.151,0-3.314c-8.238-0.637-14.229,4.68-16.682,11.38
				c-0.113,0.135-0.202,0.304-0.257,0.51c-0.133,0.489-0.245,0.971-0.345,1.45c-0.513,2.007-0.723,4.091-0.585,6.146
				c0.005,0.955,0.038,1.923,0.101,2.924c0.252,4.122-1.854,6.178-4.849,7.017c-36.24,0-72.482,0-108.725,0
				C280.485,299.157,280.481,302.472,282.618,302.472z"/>
			<linearGradient id="SVGID_60_" gradientUnits="userSpaceOnUse" x1="272.8638" y1="231.0405" x2="792.6136" y2="554.5588">
				<stop  offset="0" style="stop-color:#BE965D"/>
				<stop  offset="0.2784" style="stop-color:#976F40"/>
				<stop  offset="0.4259" style="stop-color:#C99B61"/>
				<stop  offset="0.5584" style="stop-color:#F0BE7B"/>
				<stop  offset="0.6275" style="stop-color:#FFCB85"/>
				<stop  offset="0.7085" style="stop-color:#EEBC79"/>
				<stop  offset="0.8693" style="stop-color:#C0935B"/>
				<stop  offset="1" style="stop-color:#976F40"/>
			</linearGradient>
			<path fill="url(#SVGID_60_)" d="M741.382,465.455c-40.619,0-81.238,0-121.857,0c-0.367-0.084-0.713-0.025-1.01,0.131
				c-0.527,0.223-0.832,0.705-0.916,1.232c-0.08,0.375-0.033,0.773,0.174,1.119c0.164,0.324,0.434,0.588,0.809,0.725
				c11.783,7.293,5.369,27.299-8.541,26.223c-2.127-0.166-2.117,3.15,0,3.314c8.238,0.637,14.23-4.68,16.682-11.381
				c0.111-0.135,0.201-0.305,0.258-0.512c0.131-0.486,0.244-0.969,0.344-1.449c0.512-2.006,0.723-4.092,0.584-6.146
				c-0.004-0.953-0.037-1.924-0.1-2.924c-0.254-4.121,1.855-6.18,4.848-7.018c36.242,0,72.484,0,108.727,0
				C743.515,468.77,743.519,465.455,741.382,465.455z"/>
			<linearGradient id="SVGID_61_" gradientUnits="userSpaceOnUse" x1="345.5605" y1="92.4668" x2="865.3157" y2="415.9884">
				<stop  offset="0" style="stop-color:#BE965D"/>
				<stop  offset="0.2784" style="stop-color:#976F40"/>
				<stop  offset="0.4259" style="stop-color:#C99B61"/>
				<stop  offset="0.5584" style="stop-color:#F0BE7B"/>
				<stop  offset="0.6275" style="stop-color:#FFCB85"/>
				<stop  offset="0.7085" style="stop-color:#EEBC79"/>
				<stop  offset="0.8693" style="stop-color:#C0935B"/>
				<stop  offset="1" style="stop-color:#976F40"/>
			</linearGradient>
			<path fill="url(#SVGID_61_)" d="M610.04,273.044c13.896-1.075,20.336,18.922,8.541,26.223c-0.373,0.138-0.643,0.398-0.807,0.719
				c-0.207,0.346-0.256,0.744-0.176,1.12c0.082,0.529,0.387,1.013,0.914,1.236c0.297,0.158,0.645,0.215,1.012,0.129
				c40.619,0,81.238,0,121.857,0c2.133,0,2.137-3.314,0-3.314c-36.252,0-72.502,0-108.752,0c-2.979-0.834-5.076-2.883-4.822-7.017
				c0.063-1.002,0.096-1.973,0.1-2.93c0.139-2.052-0.074-4.13-0.584-6.133c-0.1-0.481-0.211-0.966-0.344-1.457
				c-0.057-0.206-0.146-0.375-0.258-0.51c-2.451-6.7-8.443-12.018-16.682-11.38C607.927,269.893,607.909,273.209,610.04,273.044z"/>
			<linearGradient id="SVGID_62_" gradientUnits="userSpaceOnUse" x1="186.7368" y1="369.4004" x2="706.488" y2="692.9196">
				<stop  offset="0" style="stop-color:#BE965D"/>
				<stop  offset="0.2784" style="stop-color:#976F40"/>
				<stop  offset="0.4259" style="stop-color:#C99B61"/>
				<stop  offset="0.5584" style="stop-color:#F0BE7B"/>
				<stop  offset="0.6275" style="stop-color:#FFCB85"/>
				<stop  offset="0.7085" style="stop-color:#EEBC79"/>
				<stop  offset="0.8693" style="stop-color:#C0935B"/>
				<stop  offset="1" style="stop-color:#976F40"/>
			</linearGradient>
			<path fill="url(#SVGID_62_)" d="M413.959,494.885c-13.897,1.074-20.338-18.922-8.541-26.223c0.372-0.137,0.641-0.398,0.805-0.719
				c0.209-0.348,0.257-0.744,0.178-1.123c-0.081-0.527-0.386-1.01-0.913-1.234c-0.299-0.158-0.645-0.215-1.015-0.131
				c-40.619,0-81.237,0-121.854,0c-2.133,0-2.137,3.314,0,3.314c36.25,0,72.501,0,108.753,0c2.978,0.836,5.074,2.883,4.82,7.018
				c-0.063,1.002-0.096,1.973-0.1,2.93c-0.139,2.051,0.073,4.131,0.582,6.137c0.102,0.48,0.214,0.965,0.347,1.453
				c0.055,0.207,0.144,0.377,0.257,0.512c2.451,6.701,8.442,12.018,16.682,11.381C416.072,498.035,416.09,494.719,413.959,494.885z"
				/>
		</g>
	</g>
	<g>
		<path fill="#FFFFFF" d="M367.945,367.266c-0.883-1.438-2.147-3.369-3.791-5.795c-2.796-4.152-4.985-7.594-6.566-10.328
			c-1.583-2.732-2.497-5.045-2.744-6.936c-0.123-0.863-0.185-1.686-0.185-2.467c0-2.959,0.688-5.488,2.065-7.582
			c1.377-2.098,3.217-3.66,5.519-4.688s4.81-1.541,7.522-1.541c3.246,0,5.888,0.863,7.921,2.59c2.035,1.725,3.053,4.049,3.053,6.967
			c0,3.205-0.689,5.785-2.064,7.738c-1.379,1.953-3.444,2.928-6.196,2.928c-1.357,0-2.539-0.4-3.545-1.203
			c-1.01-0.801-1.512-1.734-1.512-2.803c3.124-0.781,5.25-2.18,6.382-4.193c1.131-2.014,1.695-4.09,1.695-6.229
			c0-1.271-0.391-2.25-1.171-2.928c-0.782-0.678-1.85-1.018-3.207-1.018c-1.563,0-3.186,0.422-4.871,1.264s-3.092,2.066-4.223,3.668
			c-1.132,1.604-1.695,3.475-1.695,5.611c0,1.316,0.554,2.949,1.664,4.902s2.753,4.43,4.932,7.43c2.713,3.904,4.78,7.131,6.197,9.68
			c1.418,2.549,2.127,4.893,2.127,7.027c0,2.592-0.719,4.791-2.157,6.598c-1.44,1.809-3.474,2.713-6.104,2.713
			c-2.713,0-5.109-0.516-7.185-1.541c-2.074-1.027-3.688-2.445-4.839-4.254c-1.151-1.809-1.727-3.801-1.727-5.98
			c0-1.768,0.421-3.299,1.265-4.594c0.842-1.295,2.023-1.943,3.545-1.943c0.821,0,1.531,0.166,2.128,0.494
			c0.595,0.33,0.893,0.822,0.893,1.48c-0.946,0.289-1.582,0.863-1.91,1.727c-0.33,0.861-0.494,1.91-0.494,3.145
			c0,1.273,0.39,2.672,1.172,4.191c0.78,1.521,1.756,2.816,2.928,3.885c1.172,1.07,2.291,1.604,3.361,1.604
			c1.149,0,2.043-0.359,2.682-1.08c0.636-0.719,0.956-1.736,0.956-3.053c0-0.779-0.083-1.52-0.247-2.219
			C369.354,369.795,368.829,368.706,367.945,367.266z"/>
		<path fill="#FFFFFF" d="M412.986,357.032c0.616,0,0.925,0.41,0.925,1.232c0,0.289-0.062,0.658-0.186,1.109
			c-1.355,4.398-2.601,7.904-3.729,10.514c-1.133,2.611-2.405,4.604-3.824,5.98c-1.418,1.377-3.094,2.064-5.024,2.064
			c-1.44,0-2.786-0.637-4.039-1.91c-1.254-1.273-2.25-2.795-2.991-4.563c-0.739-1.768-1.068-3.268-0.985-4.502
			c-0.453,1.027-1.182,2.373-2.189,4.039s-2.158,3.166-3.452,4.502c-1.294,1.334-2.539,2.002-3.73,2.002
			c-1.521,0-2.713-0.902-3.576-2.713c-0.863-1.807-1.295-3.883-1.295-6.227c0-2.426,0.503-4.871,1.512-7.338
			c1.006-2.465,2.435-4.551,4.284-6.258c1.85-1.705,3.987-2.68,6.412-2.928c0.288-0.041,0.719-0.061,1.296-0.061
			c1.931,0,3.441,0.398,4.53,1.201s1.635,1.717,1.635,2.744c0,1.109-0.299,1.984-0.894,2.621c-0.597,0.637-1.326,0.914-2.189,0.83
			c0.206-0.615,0.309-1.109,0.309-1.479c0-0.617-0.145-1.09-0.431-1.42c-0.289-0.328-0.68-0.471-1.172-0.43
			c-1.563,0.164-3.197,1.367-4.902,3.605c-1.707,2.242-3.144,4.811-4.315,7.709s-1.759,5.25-1.759,7.059
			c0,0.822,0.226,1.234,0.68,1.234c0.492,0,1.241-0.441,2.251-1.326c1.006-0.885,2.064-2.168,3.175-3.854
			c1.109-1.686,2.075-3.639,2.897-5.859c0.205-0.533,0.308-1.025,0.308-1.479c0-0.451-0.103-0.885-0.308-1.295
			c0.124-0.205,0.462-0.432,1.018-0.678c0.555-0.246,1.182-0.369,1.881-0.369c1.272,0,2.104,0.246,2.495,0.738
			c0.392,0.494,0.627,1.521,0.71,3.082c0,0.289,0.063,1.451,0.186,3.484c0.122,2.035,0.44,3.824,0.956,5.365
			c0.512,1.541,1.201,2.311,2.064,2.311c1.728,0,3.216-0.842,4.47-2.527c1.255-1.686,2.282-3.73,3.083-6.135
			c0.802-2.404,1.758-5.641,2.867-9.709C412.39,357.155,412.739,357.032,412.986,357.032z"/>
		<path fill="#FFFFFF" d="M417.979,367.575c-0.041,0.945-0.083,1.645-0.123,2.096c-0.124,1.357-0.186,2.652-0.186,3.885
			c0,0.535,0.04,1.213,0.123,2.035c0.946-0.699,1.788-2.096,2.529-4.193c0.738-2.096,1.889-5.939,3.451-11.529
			c0.617-2.26,1.562-4.09,2.836-5.488c1.274-1.395,2.59-2.094,3.947-2.094c0.903,0,1.654,0.244,2.251,0.738
			c0.595,0.494,0.894,1.027,0.894,1.604c0,0.492-0.164,0.842-0.494,1.049c-0.287-0.125-0.595-0.186-0.925-0.186
			c-1.274,0-2.476,0.977-3.606,2.928c-1.132,1.953-2.497,4.82-4.1,8.602c-1.646,3.783-2.981,6.557-4.009,8.324
			c-1.027,1.766-2.116,2.588-3.267,2.465c-1.398-0.123-2.52-0.914-3.361-2.373c-0.843-1.457-1.46-3.092-1.849-4.902
			c-0.392-1.807-0.771-4.068-1.141-6.781c-0.083-0.41-0.124-0.844-0.124-1.295c-0.247-1.973-0.546-3.586-0.894-4.84
			c-0.35-1.254-0.978-2.045-1.881-2.375c0.04-0.492,0.431-0.924,1.172-1.295c0.739-0.369,1.541-0.514,2.404-0.43
			c1.972,0.205,3.422,0.801,4.347,1.787s1.5,2.209,1.728,3.668c0.225,1.461,0.338,3.484,0.338,6.074
			C418.041,365.786,418.02,366.629,417.979,367.575z"/>
		<path fill="#FFFFFF" d="M453.862,365.139c0.328-0.225,0.678-0.34,1.047-0.34c0.616,0,1.142,0.248,1.573,0.74
			c0.431,0.494,0.647,1.213,0.647,2.16c0,1.684-0.516,3.328-1.543,4.932c-1.027,1.602-2.395,2.908-4.1,3.914
			c-1.705,1.008-3.504,1.512-5.395,1.512c-2.632,0-4.851-0.588-6.659-1.758c-1.81-1.172-3.165-2.734-4.068-4.686
			c-0.904-1.953-1.357-4.121-1.357-6.506c0-2.26,0.565-4.293,1.696-6.104c1.13-1.807,2.63-3.217,4.501-4.225
			c1.869-1.006,3.833-1.51,5.888-1.51c1.644,0,3,0.289,4.07,0.865c1.067,0.574,1.603,1.498,1.603,2.773
			c0,1.109-0.309,2.24-0.925,3.391c-0.616,1.152-1.45,2.096-2.497,2.836c-1.048,0.74-2.189,1.109-3.423,1.109
			c-0.904,0-1.871-0.164-2.896-0.492c-0.124,0.287-0.247,0.832-0.371,1.633c-0.123,0.803-0.185,1.799-0.185,2.992
			c0,2.178,0.432,4.016,1.295,5.518c0.863,1.5,2.055,2.25,3.576,2.25c1.11,0,2.25-0.42,3.422-1.264
			c1.172-0.842,2.137-1.9,2.897-3.176c0.76-1.273,1.142-2.486,1.142-3.637c0-0.742-0.186-1.42-0.556-2.035
			C453.326,365.665,453.532,365.366,453.862,365.139z M446.154,356.848c-0.863,0.699-1.624,1.563-2.28,2.588
			c-0.658,1.027-1.091,1.973-1.296,2.838c0.124,0.121,0.329,0.215,0.616,0.275c0.288,0.063,0.514,0.094,0.68,0.094
			c0.739,0,1.52-0.217,2.342-0.648c0.821-0.432,1.521-1.057,2.096-1.881c0.575-0.82,0.863-1.809,0.863-2.959
			c0-0.494-0.041-0.842-0.122-1.049c-0.083-0.205-0.228-0.309-0.433-0.309C447.84,355.797,447.018,356.147,446.154,356.848z"/>
		<path fill="#FFFFFF" d="M497.883,356.415c0.411,0,0.741,0.176,0.986,0.523c0.247,0.35,0.288,0.73,0.124,1.143
			c-2.304,5.59-4.87,10.449-7.708,14.582c-2.835,4.129-5.836,6.195-9,6.195c-2.509,0-4.308-1.254-5.396-3.762
			c-1.089-2.506-1.635-5.65-1.635-9.432c0-1.975,0.125-3.844,0.37-5.611c0.247-1.809,0.586-3.639,1.018-5.488
			c0.433-1.85,0.729-3.041,0.895-3.576c-0.577-0.123-1.151-0.184-1.727-0.184c-0.905,0-1.717,0.145-2.435,0.43
			c-0.721,0.289-1.225,0.658-1.512,1.111c-0.452,0-0.822-0.236-1.11-0.709c-0.286-0.473-0.431-1.059-0.431-1.758
			c0-0.82,0.33-1.428,0.986-1.818c0.657-0.391,1.52-0.586,2.59-0.586c1.603,0,3.083,0.287,4.438,0.861
			c0.493-1.107,0.74-2.258,0.74-3.451c0-0.822-0.144-1.5-0.433-2.035c0.125-0.369,0.514-0.709,1.172-1.018s1.397-0.463,2.221-0.463
			c1.272,0,2.116,0.414,2.527,1.234c0.411,0.822,0.616,2.035,0.616,3.639c0,0.945-0.071,1.85-0.215,2.713
			c-0.145,0.861-0.237,1.377-0.278,1.541c0.329,0.123,0.679,0.184,1.049,0.184c0.697,0,1.365-0.154,2.004-0.461
			c0.636-0.309,1.099-0.689,1.387-1.141c0.616-0.082,1.099,0.031,1.448,0.34s0.545,0.729,0.587,1.262
			c0.081,0.742-0.269,1.297-1.049,1.666c-0.781,0.369-1.767,0.555-2.959,0.555c-1.028,0-2.015-0.123-2.959-0.371
			c-0.863,3.125-1.645,6.619-2.344,10.482c-0.699,3.865-1.047,7.049-1.047,9.557c0,2.797,0.512,4.193,1.541,4.193
			c1.767,0,3.616-1.131,5.548-3.393c1.933-2.258,3.689-4.91,5.272-7.953c1.582-3.041,2.764-5.734,3.544-8.076
			C496.917,356.723,497.308,356.415,497.883,356.415z"/>
		<path fill="#FFFFFF" d="M527.663,357.032c0.617,0,0.924,0.41,0.924,1.232c0,0.289-0.061,0.658-0.184,1.109
			c-1.357,4.398-2.6,7.904-3.73,10.514c-1.131,2.611-2.404,4.604-3.822,5.98c-1.42,1.377-3.094,2.064-5.024,2.064
			c-2.674,0-4.677-1.016-6.011-3.051c-1.338-2.035-2.006-4.656-2.006-7.861c-0.041-0.576-0.061-1.52-0.061-2.836
			c0-1.439,0.061-3.041,0.186-4.811c-0.824,0.412-2.025,1.871-3.608,4.379c-1.582,2.508-2.999,5.189-4.254,8.047
			s-1.879,4.982-1.879,6.379c-0.741-0.041-1.471-0.369-2.189-0.984c-0.72-0.617-1.203-1.52-1.448-2.713
			c-0.905-4.811-1.357-9.947-1.357-15.414c0-2.262,0.04-4.008,0.122-5.24c0.125-2.055,0.372-4.275,0.741-6.66
			s0.595-3.842,0.678-4.377c0.411-2.262,0.709-4.08,0.895-5.457c0.185-1.377,0.277-2.621,0.277-3.73
			c0-1.643-0.247-2.855-0.739-3.637c0.986-1.563,2.28-2.344,3.883-2.344c0.535,0,1.11,0.104,1.727,0.309
			c1.027,0.369,1.686,1.348,1.974,2.928c0.287,1.584,0.432,3.32,0.432,5.211c0,1.768-0.196,3.834-0.585,6.197
			c-0.392,2.363-0.957,5.293-1.695,8.783c-0.864,4.277-1.492,7.637-1.882,10.082c-0.391,2.445-0.545,4.654-0.462,6.629
			c0.123-0.164,1.265-2.26,3.422-6.289c2.158-4.029,4.265-6.043,6.319-6.043c2.261,0,3.895,0.566,4.902,1.695
			c1.006,1.133,1.51,2.58,1.51,4.348c0,0.451-0.021,0.803-0.062,1.047c-0.411,4.029-0.616,6.906-0.616,8.633
			c0,1.602,0.164,2.773,0.493,3.516c0.328,0.738,0.884,1.107,1.664,1.107c1.726,0,3.216-0.842,4.47-2.527s2.281-3.73,3.084-6.135
			c0.801-2.404,1.756-5.641,2.867-9.709C527.067,357.155,527.417,357.032,527.663,357.032z"/>
		<path fill="#FFFFFF" d="M542.274,365.139c0.328-0.225,0.678-0.34,1.049-0.34c0.615,0,1.141,0.248,1.572,0.74
			c0.43,0.494,0.648,1.213,0.648,2.16c0,1.684-0.516,3.328-1.543,4.932c-1.029,1.602-2.396,2.908-4.102,3.914
			c-1.705,1.008-3.502,1.512-5.395,1.512c-2.631,0-4.85-0.588-6.658-1.758c-1.809-1.172-3.164-2.734-4.068-4.686
			c-0.904-1.953-1.357-4.121-1.357-6.506c0-2.26,0.566-4.293,1.695-6.104c1.131-1.807,2.631-3.217,4.502-4.225
			c1.869-1.006,3.832-1.51,5.887-1.51c1.645,0,3,0.289,4.07,0.865c1.068,0.574,1.604,1.498,1.604,2.773
			c0,1.109-0.309,2.24-0.926,3.391c-0.615,1.152-1.449,2.096-2.496,2.836c-1.049,0.74-2.189,1.109-3.422,1.109
			c-0.906,0-1.871-0.164-2.898-0.492c-0.123,0.287-0.246,0.832-0.371,1.633c-0.121,0.803-0.184,1.799-0.184,2.992
			c0,2.178,0.432,4.016,1.295,5.518c0.863,1.5,2.055,2.25,3.576,2.25c1.109,0,2.25-0.42,3.422-1.264
			c1.172-0.842,2.137-1.9,2.896-3.176c0.762-1.273,1.143-2.486,1.143-3.637c0-0.742-0.186-1.42-0.555-2.035
			C541.739,365.665,541.944,365.366,542.274,365.139z M534.567,356.848c-0.863,0.699-1.625,1.563-2.281,2.588
			c-0.658,1.027-1.09,1.973-1.295,2.838c0.123,0.121,0.33,0.215,0.615,0.275c0.289,0.063,0.514,0.094,0.68,0.094
			c0.74,0,1.52-0.217,2.342-0.648s1.521-1.057,2.098-1.881c0.574-0.82,0.863-1.809,0.863-2.959c0-0.494-0.043-0.842-0.123-1.049
			c-0.084-0.205-0.227-0.309-0.434-0.309C536.253,355.797,535.431,356.147,534.567,356.848z"/>
		<path fill="#FFFFFF" d="M595.237,330.397c3.738,1.973,6.598,4.85,8.568,8.631c1.975,3.783,2.877,8.324,2.713,13.627
			c-0.121,3.658-1.293,7.398-3.514,11.221c-2.219,3.824-5.025,6.977-8.416,9.465c-3.391,2.486-6.773,3.73-10.143,3.73
			c-0.738,0-1.273-0.195-1.602-0.588c-0.33-0.389-0.453-0.83-0.371-1.324c0-0.207,0.063-0.422,0.186-0.646
			c0.123-0.227,0.285-0.381,0.492-0.463c0.535,0.205,1.027,0.309,1.48,0.309c1.932,0,4.059-1.15,6.381-3.453s4.305-5.24,5.949-8.818
			c1.645-3.576,2.529-7.172,2.652-10.789c0.164-3.863-0.402-7.389-1.695-10.574c-1.295-3.184-3.217-5.703-5.764-7.553
			c-2.551-1.85-5.551-2.773-9.004-2.773c0.535,0.615,0.914,1.273,1.141,1.973s0.34,1.645,0.34,2.836
			c0,0.369-0.041,1.254-0.123,2.652c-0.207,2.426-0.762,7.232-1.664,14.428c-0.617,4.684-1.102,8.59-1.451,11.713
			c-0.35,3.125-0.523,5.756-0.523,7.891c0,3.084,0.412,4.791,1.232,5.119c0,0.451-0.184,0.82-0.555,1.109
			c-0.369,0.287-0.801,0.391-1.295,0.309c-1.891-0.248-3.268-2.014-4.131-5.301c-0.861-3.289-1.295-7.523-1.295-12.701
			c0-5.262,0.393-10.762,1.172-16.496c0.781-5.732,1.727-10.223,2.836-13.471c-1.686,0.289-3.236,1.039-4.652,2.25
			c-1.42,1.213-2.551,2.713-3.393,4.502c-0.842,1.787-1.264,3.607-1.264,5.457c0,0.986,0.123,1.951,0.369,2.896
			c-0.451,0.289-1.008,0.434-1.664,0.434c-0.822,0-1.645-0.258-2.467-0.771s-1.418-1.182-1.789-2.004
			c-0.615-1.357-0.924-2.629-0.924-3.822c0-3.248,1.994-6.146,5.98-8.695c1.48-0.943,3.422-1.734,5.828-2.373
			c2.404-0.637,4.818-0.934,7.242-0.895C587.118,327.436,591.497,328.424,595.237,330.397z"/>
		<path fill="#FFFFFF" d="M642.464,357.032c0.617,0,0.926,0.41,0.926,1.232c0,0.289-0.063,0.658-0.186,1.109
			c-1.355,4.398-2.6,7.904-3.729,10.514c-1.133,2.611-2.404,4.604-3.824,5.98c-1.418,1.377-3.094,2.064-5.023,2.064
			c-1.441,0-2.787-0.637-4.039-1.91c-1.256-1.273-2.252-2.795-2.992-4.563c-0.738-1.768-1.068-3.268-0.986-4.502
			c-0.451,1.027-1.182,2.373-2.189,4.039c-1.006,1.666-2.156,3.166-3.451,4.502c-1.295,1.334-2.539,2.002-3.73,2.002
			c-1.521,0-2.713-0.902-3.576-2.713c-0.863-1.807-1.295-3.883-1.295-6.227c0-2.426,0.502-4.871,1.512-7.338
			c1.006-2.465,2.436-4.551,4.285-6.258c1.848-1.705,3.986-2.68,6.41-2.928c0.289-0.041,0.721-0.061,1.297-0.061
			c1.93,0,3.441,0.398,4.531,1.201c1.088,0.803,1.633,1.717,1.633,2.744c0,1.109-0.297,1.984-0.893,2.621s-1.326,0.914-2.189,0.83
			c0.205-0.615,0.309-1.109,0.309-1.479c0-0.617-0.145-1.09-0.432-1.42c-0.287-0.328-0.68-0.471-1.172-0.43
			c-1.563,0.164-3.195,1.367-4.9,3.605c-1.707,2.242-3.145,4.811-4.316,7.709s-1.758,5.25-1.758,7.059
			c0,0.822,0.225,1.234,0.68,1.234c0.492,0,1.24-0.441,2.25-1.326c1.006-0.885,2.064-2.168,3.176-3.854
			c1.107-1.686,2.074-3.639,2.896-5.859c0.205-0.533,0.309-1.025,0.309-1.479c0-0.451-0.104-0.885-0.309-1.295
			c0.125-0.205,0.463-0.432,1.018-0.678s1.182-0.369,1.881-0.369c1.273,0,2.105,0.246,2.496,0.738
			c0.391,0.494,0.625,1.521,0.709,3.082c0,0.289,0.063,1.451,0.186,3.484c0.123,2.035,0.441,3.824,0.957,5.365
			c0.512,1.541,1.201,2.311,2.064,2.311c1.727,0,3.215-0.842,4.469-2.527c1.256-1.686,2.283-3.73,3.082-6.135
			c0.803-2.404,1.76-5.641,2.867-9.709C641.868,357.155,642.218,357.032,642.464,357.032z"/>
		<path fill="#FFFFFF" d="M662.933,356.415c0.412,0,0.742,0.176,0.986,0.523c0.248,0.35,0.289,0.73,0.125,1.143
			c-2.305,5.59-4.871,10.449-7.709,14.582c-2.834,4.129-5.836,6.195-9,6.195c-2.508,0-4.307-1.254-5.396-3.762
			c-1.088-2.506-1.633-5.65-1.633-9.432c0-1.975,0.123-3.844,0.369-5.611c0.246-1.809,0.586-3.639,1.018-5.488
			s0.729-3.041,0.895-3.576c-0.576-0.123-1.15-0.184-1.727-0.184c-0.904,0-1.717,0.145-2.434,0.43
			c-0.721,0.289-1.225,0.658-1.512,1.111c-0.453,0-0.822-0.236-1.111-0.709c-0.287-0.473-0.43-1.059-0.43-1.758
			c0-0.82,0.33-1.428,0.986-1.818s1.52-0.586,2.59-0.586c1.602,0,3.082,0.287,4.438,0.861c0.494-1.107,0.74-2.258,0.74-3.451
			c0-0.822-0.143-1.5-0.432-2.035c0.125-0.369,0.514-0.709,1.172-1.018s1.396-0.463,2.221-0.463c1.271,0,2.115,0.414,2.527,1.234
			c0.41,0.822,0.615,2.035,0.615,3.639c0,0.945-0.07,1.85-0.215,2.713c-0.145,0.861-0.236,1.377-0.277,1.541
			c0.328,0.123,0.678,0.184,1.049,0.184c0.697,0,1.365-0.154,2.002-0.461c0.637-0.309,1.1-0.689,1.389-1.141
			c0.615-0.082,1.098,0.031,1.447,0.34s0.545,0.729,0.588,1.262c0.08,0.742-0.27,1.297-1.049,1.666
			c-0.781,0.369-1.768,0.555-2.959,0.555c-1.029,0-2.016-0.123-2.959-0.371c-0.865,3.125-1.645,6.619-2.344,10.482
			c-0.699,3.865-1.049,7.049-1.049,9.557c0,2.797,0.514,4.193,1.543,4.193c1.766,0,3.615-1.131,5.547-3.393
			c1.934-2.258,3.689-4.91,5.271-7.953c1.584-3.041,2.766-5.734,3.545-8.076C661.968,356.723,662.358,356.415,662.933,356.415z"/>
		<path fill="#FFFFFF" d="M677.792,365.139c0.328-0.225,0.678-0.34,1.047-0.34c0.617,0,1.143,0.248,1.572,0.74
			c0.432,0.494,0.648,1.213,0.648,2.16c0,1.684-0.516,3.328-1.543,4.932c-1.027,1.602-2.395,2.908-4.1,3.914
			c-1.705,1.008-3.504,1.512-5.395,1.512c-2.631,0-4.85-0.588-6.658-1.758c-1.811-1.172-3.166-2.734-4.068-4.686
			c-0.904-1.953-1.357-4.121-1.357-6.506c0-2.26,0.564-4.293,1.695-6.104c1.131-1.807,2.631-3.217,4.5-4.225
			c1.871-1.006,3.834-1.51,5.889-1.51c1.645,0,3,0.289,4.07,0.865c1.068,0.574,1.604,1.498,1.604,2.773
			c0,1.109-0.309,2.24-0.926,3.391c-0.615,1.152-1.449,2.096-2.498,2.836c-1.047,0.74-2.188,1.109-3.422,1.109
			c-0.904,0-1.871-0.164-2.896-0.492c-0.125,0.287-0.246,0.832-0.371,1.633c-0.123,0.803-0.184,1.799-0.184,2.992
			c0,2.178,0.43,4.016,1.295,5.518c0.863,1.5,2.055,2.25,3.576,2.25c1.109,0,2.25-0.42,3.422-1.264
			c1.172-0.842,2.137-1.9,2.896-3.176c0.76-1.273,1.143-2.486,1.143-3.637c0-0.742-0.186-1.42-0.557-2.035
			C677.257,365.665,677.462,365.366,677.792,365.139z M670.085,356.848c-0.863,0.699-1.625,1.563-2.281,2.588
			c-0.658,1.027-1.09,1.973-1.295,2.838c0.123,0.121,0.328,0.215,0.615,0.275c0.289,0.063,0.514,0.094,0.68,0.094
			c0.738,0,1.52-0.217,2.342-0.648s1.521-1.057,2.096-1.881c0.576-0.82,0.863-1.809,0.863-2.959c0-0.494-0.041-0.842-0.121-1.049
			c-0.084-0.205-0.229-0.309-0.434-0.309C671.771,355.797,670.948,356.147,670.085,356.848z"/>
	</g>
	<g>
		<path fill="#FFFFFF" d="M381.842,412.488v26.832h-7.509v-20.207c-2.005,0.971-3.865,1.514-5.582,1.631v-3.537
			c3.944-0.395,6.723-1.967,8.334-4.719H381.842z"/>
		<path fill="#FFFFFF" d="M391.552,430.475l3.598-0.197c-0.302,1.035-0.473,1.959-0.512,2.773c-0.131,2.867,1.383,4.303,4.541,4.303
			c3.105,0,4.658-1.75,4.658-5.248c0-3.537-1.854-5.307-5.563-5.307l-2.123,0.039v-3.164l1.533,0.02c3.904,0,5.857-1.65,5.857-4.953
			c0-2.871-1.383-4.305-4.147-4.305c-2.726,0-4.088,1.264-4.088,3.793c0,0.615,0.078,1.33,0.235,2.143l-3.597-0.746
			c0-5.072,2.948-7.607,8.845-7.607c6.801,0,10.201,2.32,10.201,6.959c0,3.039-1.92,5.104-5.759,6.191
			c4.351,0.994,6.525,3.25,6.525,6.762c0,5.229-3.623,7.842-10.869,7.842c-6.447,0-9.671-2.162-9.671-6.486
			C391.218,432.473,391.329,431.535,391.552,430.475z"/>
		<path fill="#FFFFFF" d="M453.35,412.488v26.832h-7.509v-18.674l-5.228,18.674h-4.345l-5.365-18.359v18.359h-2.614v-26.832h7.901
			l4.6,16.197l4.579-16.197H453.35z"/>
		<path fill="#FFFFFF" d="M470.175,412.488l7.47,26.832h-7.823l-1.592-5.818h-8.079l-1.71,5.818h-3.047l7.941-26.832H470.175z
			 M460.917,430.809h6.585l-3.165-11.893L460.917,430.809z"/>
		<path fill="#FFFFFF" d="M479.747,439.32v-26.832h11.538c3.001,0,5.398,0.635,7.194,1.898c1.795,1.264,2.692,2.957,2.692,5.08
			c0,3.25-1.926,5.365-5.778,6.35c1.979,0.732,3.26,1.539,3.843,2.418c0.583,0.877,0.979,2.582,1.189,5.109
			c0.248,3.016,0.753,5.006,1.513,5.977h-8.451c-0.538-1.246-0.807-2.799-0.807-4.66l-0.039-1.592l-0.039-2.004
			c0-3.094-1.245-4.639-3.734-4.639h-1.337v12.895H479.747z M487.531,424.203h1.572c2.948,0,4.423-1.539,4.423-4.617
			c0-3.08-1.475-4.619-4.423-4.619h-1.572V424.203z"/>
		<path fill="#FFFFFF" d="M522.95,428.549l3.322,0.863c0.053,0.682,0.078,1.271,0.078,1.77c0,2.607-0.943,4.691-2.83,6.25
			c-1.887,1.561-4.416,2.34-7.587,2.34c-7.953,0-11.931-4.475-11.931-13.424c0-4.246,1.159-7.689,3.479-10.33
			c2.318-2.641,5.34-3.961,9.061-3.961c5.806,0,8.708,2.791,8.708,8.373l-3.342,1.535c0.039-0.787,0.059-1.396,0.059-1.83
			c0-3.957-1.586-5.936-4.755-5.936c-3.355,0-5.033,4.199-5.033,12.6c0,7.221,1.875,10.83,5.62,10.83
			c1.547,0,2.834-0.615,3.863-1.848c1.029-1.23,1.543-2.771,1.543-4.619C523.206,430.572,523.12,429.701,522.95,428.549z"/>
		<path fill="#FFFFFF" d="M537.063,425.975v13.346h-7.783v-26.832h7.783v10.793h6.348v-10.793h7.785v26.832h-7.785v-13.346H537.063z
			"/>
		<path fill="#FFFFFF" d="M587.54,432.873v6.447h-20.01v-3.795c1.639-1.809,3.52-3.734,5.641-5.777
			c4.756-4.547,7.135-8.027,7.135-10.438c0-3.211-1.27-4.816-3.813-4.816c-3.094,0-4.639,1.939-4.639,5.818
			c0,0.918,0.223,2.209,0.668,3.871l-4.146-0.982c-0.314-1.23-0.473-2.221-0.473-2.967c0-5.439,3.361-8.158,10.084-8.158
			c2.842,0,5.182,0.701,7.016,2.104c1.836,1.402,2.752,3.197,2.752,5.385c0,2.504-1.814,5.23-5.443,8.178l-2.438,1.965l-2.693,2.262
			c-0.17,0.145-0.59,0.445-1.258,0.904H587.54z"/>
		<path fill="#FFFFFF" d="M602.438,412.076c7.482,0,11.225,4.613,11.225,13.838c0,9.227-3.742,13.838-11.225,13.838
			c-7.496,0-11.242-4.611-11.242-13.838C591.196,416.689,594.942,412.076,602.438,412.076z M602.438,414.219
			c-2.045,0-3.066,3.898-3.066,11.695s1.021,11.695,3.066,11.695c2.031,0,3.047-3.898,3.047-11.695S604.47,414.219,602.438,414.219z
			"/>
		<path fill="#FFFFFF" d="M631.667,412.488v26.832h-7.51v-20.207c-2.004,0.971-3.865,1.514-5.582,1.631v-3.537
			c3.945-0.395,6.725-1.967,8.334-4.719H631.667z"/>
		<path fill="#FFFFFF" d="M644.835,426.543c-2.396-1.678-3.596-3.779-3.596-6.309c0-2.424,0.934-4.385,2.801-5.877
			c1.867-1.494,4.32-2.242,7.361-2.242c2.66,0,4.813,0.58,6.457,1.74s2.467,2.676,2.467,4.551c0,2.084-1.094,3.754-3.283,5.012
			c3.578,1.887,5.367,4.41,5.367,7.568c0,2.633-1.027,4.766-3.076,6.396c-2.051,1.631-4.734,2.447-8.051,2.447
			c-3.066,0-5.607-0.736-7.625-2.211s-3.027-3.324-3.027-5.553C640.63,429.643,642.032,427.801,644.835,426.543z M646.722,427.664
			c-1.781,1.1-2.672,2.568-2.672,4.402c0,1.547,0.695,2.871,2.084,3.971c1.389,1.102,3.047,1.652,4.973,1.652
			c1.506,0,2.785-0.408,3.834-1.221c1.047-0.813,1.572-1.795,1.572-2.947c0-1.887-1.494-3.277-4.482-4.166
			C650.562,428.922,648.794,428.357,646.722,427.664z M655.214,422.594c1.127-0.984,1.691-2.15,1.691-3.5
			c0-3.225-1.895-4.834-5.682-4.834c-3.211,0-4.816,1.158-4.816,3.479c0,1.402,1.443,2.555,4.324,3.459l3.049,0.943
			C654.081,422.246,654.56,422.395,655.214,422.594z"/>
	</g>
</g>
</svg>
