<?xml version="1.0" encoding="utf-8"?>
<!-- Generator: Adobe Illustrator 15.1.0, SVG Export Plug-In . SVG Version: 6.00 Build 0)  -->
<!DOCTYPE svg PUBLIC "-//W3C//DTD SVG 1.1//EN" "http://www.w3.org/Graphics/SVG/1.1/DTD/svg11.dtd">
<svg version="1.1" id="Layer_1" xmlns="http://www.w3.org/2000/svg" xmlns:xlink="http://www.w3.org/1999/xlink" x="0px" y="0px"
	 width="800px" height="478.918px" viewBox="0 0 800 478.918" enable-background="new 0 0 800 478.918" xml:space="preserve">
<g>
	<g>
		<g>
			<g>
				<linearGradient id="SVGID_1_" gradientUnits="userSpaceOnUse" x1="79.4927" y1="-70.9121" x2="844.767" y2="405.4329">
					<stop  offset="0" style="stop-color:#BE965D"/>
					<stop  offset="0.2784" style="stop-color:#976F40"/>
					<stop  offset="0.4259" style="stop-color:#C99B61"/>
					<stop  offset="0.5584" style="stop-color:#F0BE7B"/>
					<stop  offset="0.6275" style="stop-color:#FFCB85"/>
					<stop  offset="0.7085" style="stop-color:#EEBC79"/>
					<stop  offset="0.8693" style="stop-color:#C0935B"/>
					<stop  offset="1" style="stop-color:#976F40"/>
				</linearGradient>
				<path fill="url(#SVGID_1_)" d="M9.212,130.815c203.316,0,406.631,0,609.948,0c56.982,0,113.963,0,170.943,0
					c3.14,0,3.146-4.88,0-4.88c-203.318,0-406.635,0-609.951,0c-56.98,0-113.96,0-170.941,0
					C6.071,125.935,6.066,130.815,9.212,130.815L9.212,130.815z"/>
			</g>
			<g>
				<linearGradient id="SVGID_2_" gradientUnits="userSpaceOnUse" x1="-4.1479" y1="95.5239" x2="761.1252" y2="571.8683">
					<stop  offset="0" style="stop-color:#BE965D"/>
					<stop  offset="0.2784" style="stop-color:#976F40"/>
					<stop  offset="0.4259" style="stop-color:#C99B61"/>
					<stop  offset="0.5584" style="stop-color:#F0BE7B"/>
					<stop  offset="0.6275" style="stop-color:#FFCB85"/>
					<stop  offset="0.7085" style="stop-color:#EEBC79"/>
					<stop  offset="0.8693" style="stop-color:#C0935B"/>
					<stop  offset="1" style="stop-color:#976F40"/>
				</linearGradient>
				<path fill="url(#SVGID_2_)" d="M9.212,349.313c203.316,0,406.631,0,609.948,0c56.982,0,113.963,0,170.943,0
					c3.14,0,3.146-4.88,0-4.88c-203.318,0-406.635,0-609.951,0c-56.98,0-113.96,0-170.941,0
					C6.071,344.433,6.066,349.313,9.212,349.313L9.212,349.313z"/>
			</g>
		</g>
		<g>
			<linearGradient id="SVGID_3_" gradientUnits="userSpaceOnUse" x1="92.0537" y1="-91.1104" x2="857.3492" y2="385.2479">
				<stop  offset="0" style="stop-color:#BE965D"/>
				<stop  offset="0.2784" style="stop-color:#976F40"/>
				<stop  offset="0.4259" style="stop-color:#C99B61"/>
				<stop  offset="0.5584" style="stop-color:#F0BE7B"/>
				<stop  offset="0.6275" style="stop-color:#FFCB85"/>
				<stop  offset="0.7085" style="stop-color:#EEBC79"/>
				<stop  offset="0.8693" style="stop-color:#C0935B"/>
				<stop  offset="1" style="stop-color:#976F40"/>
			</linearGradient>
			<path fill="url(#SVGID_3_)" d="M359.417,117.6c17.566,0.979,31.667-13.523,34.381-30.084
				c3.239-19.781-7.365-37.574-21.499-50.462c-2.316-2.112-5.779,1.329-3.451,3.451c17.903,16.324,33.488,52.373,5.612,68.37
				c-12.508,7.179-29.242,3.618-35.203-10.382c-6.31-14.824,5.229-32.606,21.939-27.03c4.081,1.93,7.076,5.746,8.111,10.136
				c0.532,2.268,0.487,4.736-0.239,6.956c-0.289,0.88-0.713,1.751-1.242,2.544c0.312-3.383-1.728-7.288-5.884-8.378
				c-9.357-2.456-13.168,8.12-7.562,14.448c6.123,6.91,16.625,4.012,20.29-3.869c4.246-9.128-1.163-20.259-9.274-25.116
				c-0.118-0.073-0.233-0.151-0.354-0.222c-0.007-0.005-0.017-0.011-0.024-0.017c-0.016-0.007-0.03-0.01-0.044-0.019
				c-0.526-0.307-1.068-0.596-1.632-0.844c-0.059-0.026-0.118-0.035-0.175-0.058c-0.128-0.069-0.259-0.137-0.408-0.188
				c-13.903-4.831-28.107,4.339-30.138,18.827C330.358,101.795,343.33,116.704,359.417,117.6z"/>
			<linearGradient id="SVGID_4_" gradientUnits="userSpaceOnUse" x1="-16.7236" y1="115.7129" x2="748.559" y2="592.0631">
				<stop  offset="0" style="stop-color:#BE965D"/>
				<stop  offset="0.2784" style="stop-color:#976F40"/>
				<stop  offset="0.4259" style="stop-color:#C99B61"/>
				<stop  offset="0.5584" style="stop-color:#F0BE7B"/>
				<stop  offset="0.6275" style="stop-color:#FFCB85"/>
				<stop  offset="0.7085" style="stop-color:#EEBC79"/>
				<stop  offset="0.8693" style="stop-color:#C0935B"/>
				<stop  offset="1" style="stop-color:#976F40"/>
			</linearGradient>
			<path fill="url(#SVGID_4_)" d="M439.897,357.646c-17.565-0.978-31.669,13.521-34.383,30.086
				c-3.237,19.779,7.366,37.574,21.499,50.46c2.316,2.114,5.779-1.328,3.451-3.451c-17.9-16.322-33.485-52.369-5.612-68.367
				c12.507-7.181,29.242-3.617,35.202,10.382c6.311,14.824-5.227,32.604-21.938,27.028c-4.081-1.93-7.077-5.742-8.109-10.137
				c-0.534-2.269-0.49-4.733,0.237-6.956c0.287-0.877,0.714-1.749,1.242-2.542c-0.311,3.382,1.727,7.287,5.882,8.377
				c9.357,2.455,13.17-8.118,7.564-14.448c-6.123-6.91-16.626-4.012-20.289,3.868c-4.248,9.128,1.164,20.263,9.272,25.119
				c0.119,0.072,0.234,0.149,0.354,0.219c0.011,0.006,0.018,0.012,0.027,0.018c0.012,0.009,0.026,0.012,0.042,0.02
				c0.529,0.308,1.068,0.596,1.632,0.843c0.061,0.029,0.116,0.037,0.176,0.061c0.129,0.066,0.259,0.135,0.406,0.187
				c13.904,4.829,28.107-4.342,30.141-18.827C468.953,373.451,455.985,358.541,439.897,357.646z"/>
			<linearGradient id="SVGID_5_" gradientUnits="userSpaceOnUse" x1="110.8618" y1="-121.314" x2="876.1418" y2="355.0346">
				<stop  offset="0" style="stop-color:#BE965D"/>
				<stop  offset="0.2784" style="stop-color:#976F40"/>
				<stop  offset="0.4259" style="stop-color:#C99B61"/>
				<stop  offset="0.5584" style="stop-color:#F0BE7B"/>
				<stop  offset="0.6275" style="stop-color:#FFCB85"/>
				<stop  offset="0.7085" style="stop-color:#EEBC79"/>
				<stop  offset="0.8693" style="stop-color:#C0935B"/>
				<stop  offset="1" style="stop-color:#976F40"/>
			</linearGradient>
			<path fill="url(#SVGID_5_)" d="M405.273,85.975c2.209,17.182,16.397,32.637,34.624,31.625
				c15.58-0.864,28.293-14.871,26.93-30.527c-1.315-15.104-15.745-25.284-30.273-20.236c-0.147,0.051-0.277,0.119-0.403,0.188
				c-0.063,0.021-0.118,0.032-0.179,0.058c-0.563,0.249-1.103,0.537-1.632,0.844c-0.016,0.008-0.03,0.011-0.042,0.019
				c-0.01,0.006-0.02,0.012-0.027,0.017c-0.119,0.069-0.231,0.147-0.349,0.219c-8.123,4.861-13.508,15.983-9.277,25.118
				c3.653,7.893,14.17,10.768,20.289,3.869c5.622-6.34,1.752-16.892-7.564-14.448c-4.11,1.079-6.148,4.916-5.888,8.274
				c-0.295-0.485-0.551-0.962-0.751-1.382c-1.188-2.482-1.352-5.347-0.723-8.015c1.035-4.392,4.027-8.206,8.11-10.137
				c15.268-5.081,27.586,10.109,22.935,24.779c-4.784,15.101-23.139,20.704-36.2,12.634c-27.197-16.8-12.857-51.526,5.612-68.37
				c2.325-2.12-1.133-5.564-3.451-3.451C413.284,49.573,402.799,66.71,405.273,85.975z"/>
			<linearGradient id="SVGID_6_" gradientUnits="userSpaceOnUse" x1="-35.5288" y1="145.9189" x2="729.7621" y2="622.2743">
				<stop  offset="0" style="stop-color:#BE965D"/>
				<stop  offset="0.2784" style="stop-color:#976F40"/>
				<stop  offset="0.4259" style="stop-color:#C99B61"/>
				<stop  offset="0.5584" style="stop-color:#F0BE7B"/>
				<stop  offset="0.6275" style="stop-color:#FFCB85"/>
				<stop  offset="0.7085" style="stop-color:#EEBC79"/>
				<stop  offset="0.8693" style="stop-color:#C0935B"/>
				<stop  offset="1" style="stop-color:#976F40"/>
			</linearGradient>
			<path fill="url(#SVGID_6_)" d="M394.04,389.271c-2.208-17.183-16.397-32.634-34.623-31.624
				c-15.582,0.865-28.295,14.87-26.931,30.525c1.319,15.106,15.746,25.286,30.271,20.239c0.149-0.052,0.279-0.12,0.408-0.187
				c0.058-0.023,0.117-0.031,0.175-0.061c0.564-0.247,1.106-0.535,1.632-0.843c0.014-0.008,0.029-0.011,0.044-0.02
				c0.007-0.006,0.017-0.012,0.026-0.018c0.118-0.069,0.23-0.146,0.347-0.219c8.124-4.859,13.508-15.983,9.28-25.119
				c-3.652-7.891-14.171-10.767-20.29-3.868c-5.622,6.341-1.754,16.893,7.562,14.448c4.115-1.079,6.153-4.918,5.891-8.273
				c0.294,0.485,0.549,0.963,0.752,1.383c1.185,2.479,1.352,5.346,0.722,8.012c-1.037,4.395-4.029,8.207-8.111,10.14
				c-15.27,5.079-27.585-10.107-22.937-24.78c4.785-15.1,23.14-20.705,36.201-12.633c27.197,16.797,12.857,51.527-5.612,68.367
				c-2.325,2.123,1.134,5.567,3.451,3.451C386.029,425.675,396.514,408.535,394.04,389.271z"/>
			<linearGradient id="SVGID_7_" gradientUnits="userSpaceOnUse" x1="121.1167" y1="-137.8125" x2="886.4247" y2="338.5535">
				<stop  offset="0" style="stop-color:#BE965D"/>
				<stop  offset="0.2784" style="stop-color:#976F40"/>
				<stop  offset="0.4259" style="stop-color:#C99B61"/>
				<stop  offset="0.5584" style="stop-color:#F0BE7B"/>
				<stop  offset="0.6275" style="stop-color:#FFCB85"/>
				<stop  offset="0.7085" style="stop-color:#EEBC79"/>
				<stop  offset="0.8693" style="stop-color:#C0935B"/>
				<stop  offset="1" style="stop-color:#976F40"/>
			</linearGradient>
			<path fill="url(#SVGID_7_)" d="M398.592,65.956c0.677,0.335,1.455,0.335,2.128,0.001c0.835-0.289,1.473-0.951,1.467-1.874
				c4.96-12.058,14.638-27.621,13.477-40.998c-0.737-8.492-7.074-15.97-16.007-15.912c-30.427,0.198-7.796,44.164-2.528,56.906
				C397.121,65.001,397.758,65.665,398.592,65.956z M394.961,17.866c3.028-2.019,6.361-2.019,9.39,0
				c9.51,7.314,0.548,27.341-4.692,39.565C394.429,45.199,385.491,25.151,394.961,17.866z"/>
			<linearGradient id="SVGID_8_" gradientUnits="userSpaceOnUse" x1="-45.8086" y1="162.4023" x2="719.4995" y2="638.7684">
				<stop  offset="0" style="stop-color:#BE965D"/>
				<stop  offset="0.2784" style="stop-color:#976F40"/>
				<stop  offset="0.4259" style="stop-color:#C99B61"/>
				<stop  offset="0.5584" style="stop-color:#F0BE7B"/>
				<stop  offset="0.6275" style="stop-color:#FFCB85"/>
				<stop  offset="0.7085" style="stop-color:#EEBC79"/>
				<stop  offset="0.8693" style="stop-color:#C0935B"/>
				<stop  offset="1" style="stop-color:#976F40"/>
			</linearGradient>
			<path fill="url(#SVGID_8_)" d="M400.72,409.289c-0.673-0.334-1.451-0.334-2.128,0c-0.834,0.29-1.471,0.951-1.465,1.875
				c-4.96,12.058-14.639,27.621-13.477,40.999c0.736,8.489,7.074,15.969,16.006,15.911c30.428-0.198,7.796-44.162,2.528-56.905
				C402.192,410.246,401.555,409.579,400.72,409.289z M404.351,457.379c-3.028,2.02-6.361,2.02-9.39,0
				c-9.508-7.313-0.543-27.339,4.693-39.563C404.883,430.049,413.821,450.095,404.351,457.379z"/>
			<linearGradient id="SVGID_9_" gradientUnits="userSpaceOnUse" x1="86.5332" y1="-82.2358" x2="851.8232" y2="394.119">
				<stop  offset="0" style="stop-color:#BE965D"/>
				<stop  offset="0.2784" style="stop-color:#976F40"/>
				<stop  offset="0.4259" style="stop-color:#C99B61"/>
				<stop  offset="0.5584" style="stop-color:#F0BE7B"/>
				<stop  offset="0.6275" style="stop-color:#FFCB85"/>
				<stop  offset="0.7085" style="stop-color:#EEBC79"/>
				<stop  offset="0.8693" style="stop-color:#C0935B"/>
				<stop  offset="1" style="stop-color:#976F40"/>
			</linearGradient>
			<path fill="url(#SVGID_9_)" d="M319.259,92.777c0.051,0.077,0.105,0.148,0.163,0.214c0.035,0.04,0.069,0.077,0.108,0.113
				c0.686,0.685,1.645,0.701,2.46,0.298c0.056-0.023,0.109-0.044,0.166-0.07c0.382-0.16,0.725-0.426,0.991-0.8
				c0.024-0.033,0.049-0.064,0.073-0.098c0.112-0.176,0.213-0.368,0.288-0.59c4.127-12.281,13.086-28.827,11.157-42.163
				c-1.246-8.604-8.003-15.703-17.122-15.021c-30.148,2.256-5.046,44.46,1.171,57.084C318.793,92.15,318.98,92.501,319.259,92.777z
				 M320.983,84.104c-0.075,0.213-0.151,0.427-0.226,0.637c-0.154-0.306-0.311-0.616-0.469-0.932
				c-1.956-4.036-3.879-8.084-5.791-12.141c-4.211-9.92-6.878-20.542-0.615-26.229c2.794-1.964,6-2.27,9.039-0.5
				c7.071,4.786,5.236,16.573,1.991,27.473C323.608,76.313,322.306,80.21,320.983,84.104z"/>
			<linearGradient id="SVGID_10_" gradientUnits="userSpaceOnUse" x1="-11.2085" y1="106.8359" x2="754.0815" y2="583.1907">
				<stop  offset="0" style="stop-color:#BE965D"/>
				<stop  offset="0.2784" style="stop-color:#976F40"/>
				<stop  offset="0.4259" style="stop-color:#C99B61"/>
				<stop  offset="0.5584" style="stop-color:#F0BE7B"/>
				<stop  offset="0.6275" style="stop-color:#FFCB85"/>
				<stop  offset="0.7085" style="stop-color:#EEBC79"/>
				<stop  offset="0.8693" style="stop-color:#C0935B"/>
				<stop  offset="1" style="stop-color:#976F40"/>
			</linearGradient>
			<path fill="url(#SVGID_10_)" d="M480.054,382.47c-0.052-0.078-0.104-0.146-0.161-0.213c-0.036-0.04-0.07-0.078-0.109-0.112
				c-0.686-0.688-1.645-0.704-2.457-0.302c-0.056,0.022-0.112,0.046-0.167,0.072c-0.385,0.157-0.726,0.428-0.992,0.799
				c-0.024,0.032-0.049,0.063-0.073,0.098c-0.112,0.176-0.213,0.368-0.287,0.59c-4.127,12.279-13.086,28.829-11.156,42.164
				c1.243,8.604,8.003,15.704,17.123,15.02c30.145-2.257,5.044-44.459-1.17-57.083C480.522,383.1,480.333,382.746,480.054,382.47z
				 M478.328,391.143c0.079-0.216,0.154-0.429,0.228-0.636c0.153,0.306,0.311,0.613,0.469,0.93c1.954,4.034,3.882,8.086,5.79,12.141
				c4.215,9.922,6.879,20.545,0.617,26.229c-2.797,1.967-6,2.272-9.04,0.501c-7.068-4.785-5.233-16.573-1.988-27.472
				C475.703,398.934,477.009,395.033,478.328,391.143z"/>
			<linearGradient id="SVGID_11_" gradientUnits="userSpaceOnUse" x1="131.2993" y1="-154.1719" x2="896.5859" y2="322.1808">
				<stop  offset="0" style="stop-color:#BE965D"/>
				<stop  offset="0.2784" style="stop-color:#976F40"/>
				<stop  offset="0.4259" style="stop-color:#C99B61"/>
				<stop  offset="0.5584" style="stop-color:#F0BE7B"/>
				<stop  offset="0.6275" style="stop-color:#FFCB85"/>
				<stop  offset="0.7085" style="stop-color:#EEBC79"/>
				<stop  offset="0.8693" style="stop-color:#C0935B"/>
				<stop  offset="1" style="stop-color:#976F40"/>
			</linearGradient>
			<path fill="url(#SVGID_11_)" d="M476.096,92.436c0.02,0.029,0.041,0.057,0.064,0.084c0.271,0.385,0.619,0.656,1.012,0.815
				c0.042,0.018,0.081,0.034,0.123,0.053c0.819,0.419,1.797,0.411,2.493-0.287c0.037-0.034,0.068-0.07,0.102-0.107
				c0.057-0.066,0.111-0.137,0.164-0.212c0.279-0.278,0.472-0.632,0.55-1.04c6.253-12.704,31.311-54.826,1.17-57.082
				c-8.97-0.671-15.719,6.214-17.08,14.696c-2.158,13.438,6.969,30.158,11.113,42.487C475.881,92.068,475.983,92.259,476.096,92.436
				z M474.488,72.663c-3.281-10.973-5.197-22.917,1.903-27.724c3.038-1.768,6.243-1.463,9.038,0.5
				c6.324,5.744,3.509,16.573-0.796,26.613c-1.796,3.809-3.6,7.614-5.437,11.403c-0.219,0.435-0.432,0.861-0.642,1.278
				c-0.066-0.183-0.131-0.372-0.197-0.559C477.058,80.341,475.773,76.502,474.488,72.663z"/>
			<linearGradient id="SVGID_12_" gradientUnits="userSpaceOnUse" x1="-55.9512" y1="178.7856" x2="709.2758" y2="655.1012">
				<stop  offset="0" style="stop-color:#BE965D"/>
				<stop  offset="0.2784" style="stop-color:#976F40"/>
				<stop  offset="0.4259" style="stop-color:#C99B61"/>
				<stop  offset="0.5584" style="stop-color:#F0BE7B"/>
				<stop  offset="0.6275" style="stop-color:#FFCB85"/>
				<stop  offset="0.7085" style="stop-color:#EEBC79"/>
				<stop  offset="0.8693" style="stop-color:#C0935B"/>
				<stop  offset="1" style="stop-color:#976F40"/>
			</linearGradient>
			<path fill="url(#SVGID_12_)" d="M323.216,382.809c-0.019-0.028-0.042-0.055-0.063-0.083c-0.271-0.383-0.62-0.655-1.012-0.813
				c-0.039-0.021-0.078-0.038-0.12-0.052c-0.821-0.42-1.799-0.411-2.495,0.287c-0.036,0.034-0.07,0.066-0.105,0.106
				c-0.056,0.063-0.109,0.135-0.161,0.213c-0.28,0.279-0.47,0.633-0.55,1.038c-6.255,12.705-31.311,54.826-1.169,57.08
				c8.966,0.673,15.716-6.211,17.077-14.694c2.16-13.438-6.968-30.158-11.112-42.489
				C323.432,383.18,323.331,382.987,323.216,382.809z M324.824,402.579c3.285,10.978,5.198,22.92-1.902,27.729
				c-3.036,1.769-6.242,1.466-9.039-0.501c-6.325-5.745-3.505-16.572,0.795-26.614c1.796-3.811,3.599-7.609,5.437-11.399
				c0.22-0.438,0.434-0.863,0.643-1.283c0.064,0.19,0.134,0.377,0.201,0.566C322.257,394.907,323.541,398.743,324.824,402.579z"/>
			<linearGradient id="SVGID_13_" gradientUnits="userSpaceOnUse" x1="74.5913" y1="-63.0508" x2="839.8821" y2="413.3045">
				<stop  offset="0" style="stop-color:#BE965D"/>
				<stop  offset="0.2784" style="stop-color:#976F40"/>
				<stop  offset="0.4259" style="stop-color:#C99B61"/>
				<stop  offset="0.5584" style="stop-color:#F0BE7B"/>
				<stop  offset="0.6275" style="stop-color:#FFCB85"/>
				<stop  offset="0.7085" style="stop-color:#EEBC79"/>
				<stop  offset="0.8693" style="stop-color:#C0935B"/>
				<stop  offset="1" style="stop-color:#976F40"/>
			</linearGradient>
			<path fill="url(#SVGID_13_)" d="M309.034,97.688c0.207,0.099,0.413,0.159,0.616,0.202c0.049,0.008,0.095,0.013,0.141,0.019
				c0.213,0.031,0.417,0.037,0.619,0.015c0.007-0.001,0.014-0.001,0.024-0.002c0.158-0.019,0.312-0.054,0.46-0.104
				c1.021-0.203,1.879-0.942,1.879-2.032c0.003-0.064-0.003-0.129-0.007-0.194c-0.006-0.063-0.01-0.122-0.021-0.186
				c0.019-0.466-0.105-0.926-0.427-1.314c-4.315-11.875-7.523-27.371-15.734-37.123c-6.146-7.3-16.775-10.122-24.457-3.276
				c-7.195,6.415-6.337,16.845-0.302,23.699C280.66,87.431,297.264,92.093,309.034,97.688z M275.745,64.794
				c0.785-3.41,3.272-5.606,6.639-6.225c9.31-0.616,13.651,9.334,16.642,16.356c2.178,5.122,4.309,10.266,6.441,15.409
				c-4.816-2.503-9.633-5.007-14.427-7.552C284.421,79.266,274.145,73.954,275.745,64.794z"/>
			<linearGradient id="SVGID_14_" gradientUnits="userSpaceOnUse" x1="0.7588" y1="87.6665" x2="766.0107" y2="563.9976">
				<stop  offset="0" style="stop-color:#BE965D"/>
				<stop  offset="0.2784" style="stop-color:#976F40"/>
				<stop  offset="0.4259" style="stop-color:#C99B61"/>
				<stop  offset="0.5584" style="stop-color:#F0BE7B"/>
				<stop  offset="0.6275" style="stop-color:#FFCB85"/>
				<stop  offset="0.7085" style="stop-color:#EEBC79"/>
				<stop  offset="0.8693" style="stop-color:#C0935B"/>
				<stop  offset="1" style="stop-color:#976F40"/>
			</linearGradient>
			<path fill="url(#SVGID_14_)" d="M490.278,377.558c-0.208-0.098-0.412-0.161-0.615-0.201c-0.046-0.009-0.094-0.012-0.141-0.021
				c-0.21-0.031-0.419-0.034-0.618-0.014c-0.008,0.003-0.015,0.003-0.025,0.003c-0.157,0.02-0.309,0.055-0.458,0.104
				c-1.02,0.204-1.88,0.94-1.88,2.033c-0.001,0.063,0,0.126,0.008,0.192c0.006,0.063,0.009,0.124,0.02,0.187
				c-0.02,0.466,0.108,0.927,0.428,1.314c4.313,11.874,7.522,27.371,15.732,37.123c6.15,7.299,16.776,10.122,24.457,3.275
				c7.196-6.416,6.338-16.843,0.304-23.699C518.653,387.818,502.049,383.151,490.278,377.558z M523.568,410.45
				c-0.787,3.414-3.273,5.607-6.641,6.229c-9.309,0.612-13.649-9.338-16.639-16.36c-2.182-5.119-4.311-10.264-6.441-15.405
				c4.816,2.502,9.633,5.007,14.426,7.552C514.894,395.982,525.168,401.291,523.568,410.45z"/>
			<linearGradient id="SVGID_15_" gradientUnits="userSpaceOnUse" x1="133.332" y1="-157.3711" x2="898.569" y2="318.9507">
				<stop  offset="0" style="stop-color:#BE965D"/>
				<stop  offset="0.2784" style="stop-color:#976F40"/>
				<stop  offset="0.4259" style="stop-color:#C99B61"/>
				<stop  offset="0.5584" style="stop-color:#F0BE7B"/>
				<stop  offset="0.6275" style="stop-color:#FFCB85"/>
				<stop  offset="0.7085" style="stop-color:#EEBC79"/>
				<stop  offset="0.8693" style="stop-color:#C0935B"/>
				<stop  offset="1" style="stop-color:#976F40"/>
			</linearGradient>
			<path fill="url(#SVGID_15_)" d="M486.568,95.403c-0.01,0.064-0.014,0.124-0.02,0.185c-0.008,0.069-0.009,0.137-0.008,0.204
				c0.003,1.076,0.846,1.81,1.851,2.021c0.015,0.003,0.029,0.006,0.044,0.01c0.136,0.043,0.275,0.078,0.419,0.097
				c0.027,0.004,0.052,0.004,0.077,0.005c0.185,0.019,0.378,0.015,0.574-0.014c0.055-0.007,0.105-0.012,0.16-0.021
				c0.201-0.042,0.404-0.103,0.612-0.202c11.515-5.473,27.316-9.998,36.374-19.338c6.646-6.851,8.149-17.87,0.533-24.658
				c-7.566-6.744-18.09-4.115-24.264,3.028c-8.371,9.683-11.603,25.461-15.926,37.372C486.677,94.48,486.552,94.938,486.568,95.403z
				 M516.928,58.569c3.367,0.618,5.856,2.817,6.641,6.225c1.6,9.16-8.675,14.472-15.295,17.988
				c-4.793,2.545-9.609,5.048-14.426,7.552c2.131-5.143,4.26-10.287,6.441-15.409C503.278,67.904,507.619,57.953,516.928,58.569z"/>
			<linearGradient id="SVGID_16_" gradientUnits="userSpaceOnUse" x1="-57.9761" y1="181.9902" x2="707.3098" y2="658.3424">
				<stop  offset="0" style="stop-color:#BE965D"/>
				<stop  offset="0.2784" style="stop-color:#976F40"/>
				<stop  offset="0.4259" style="stop-color:#C99B61"/>
				<stop  offset="0.5584" style="stop-color:#F0BE7B"/>
				<stop  offset="0.6275" style="stop-color:#FFCB85"/>
				<stop  offset="0.7085" style="stop-color:#EEBC79"/>
				<stop  offset="0.8693" style="stop-color:#C0935B"/>
				<stop  offset="1" style="stop-color:#976F40"/>
			</linearGradient>
			<path fill="url(#SVGID_16_)" d="M312.744,379.844c0.011-0.063,0.014-0.123,0.021-0.184c0.004-0.072,0.01-0.136,0.007-0.204
				c-0.004-1.076-0.844-1.809-1.849-2.021c-0.018-0.006-0.032-0.006-0.047-0.012c-0.137-0.043-0.275-0.078-0.418-0.095
				c-0.024-0.006-0.049-0.006-0.076-0.009c-0.186-0.018-0.378-0.012-0.574,0.015c-0.053,0.008-0.108,0.014-0.161,0.022
				c-0.2,0.04-0.406,0.104-0.613,0.201c-11.514,5.476-27.316,9.999-36.374,19.337c-6.647,6.853-8.15,17.869-0.535,24.659
				c7.567,6.743,18.091,4.115,24.267-3.028c8.37-9.683,11.601-25.462,15.924-37.373C312.636,380.768,312.76,380.307,312.744,379.844
				z M282.384,416.68c-3.366-0.622-5.854-2.818-6.639-6.229c-1.601-9.159,8.676-14.468,15.294-17.984
				c4.794-2.545,9.611-5.05,14.427-7.552c-2.132,5.142-4.263,10.286-6.441,15.405C296.035,407.342,291.694,417.292,282.384,416.68z"
				/>
			<linearGradient id="SVGID_17_" gradientUnits="userSpaceOnUse" x1="55.1489" y1="-31.8081" x2="820.4296" y2="444.5409">
				<stop  offset="0" style="stop-color:#BE965D"/>
				<stop  offset="0.2784" style="stop-color:#976F40"/>
				<stop  offset="0.4259" style="stop-color:#C99B61"/>
				<stop  offset="0.5584" style="stop-color:#F0BE7B"/>
				<stop  offset="0.6275" style="stop-color:#FFCB85"/>
				<stop  offset="0.7085" style="stop-color:#EEBC79"/>
				<stop  offset="0.8693" style="stop-color:#C0935B"/>
				<stop  offset="1" style="stop-color:#976F40"/>
			</linearGradient>
			<path fill="url(#SVGID_17_)" d="M248.523,97.577c-4.478,30.639,44.226,13.646,56.699,10.623v-0.001
				c0.023-0.006,0.042-0.014,0.064-0.022c0.207-0.055,0.393-0.133,0.561-0.223c0.039-0.023,0.078-0.047,0.116-0.073
				c0.693-0.434,1.001-1.152,0.991-1.895c0.072-0.608-0.084-1.229-0.539-1.737c-0.029-0.033-0.056-0.065-0.085-0.097
				c-0.149-0.148-0.317-0.29-0.525-0.413c-10.992-6.467-24.113-17.387-37.045-19.414C259.529,82.877,249.973,87.661,248.523,97.577z
				 M258.24,103.432c-1.409-2.983-0.853-6.35,1.353-8.768c8.856-8.554,27.228,3.265,38.566,10.231
				C285.347,108.25,264.256,114.225,258.24,103.432z"/>
			<linearGradient id="SVGID_18_" gradientUnits="userSpaceOnUse" x1="20.1885" y1="56.417" x2="785.4691" y2="532.766">
				<stop  offset="0" style="stop-color:#BE965D"/>
				<stop  offset="0.2784" style="stop-color:#976F40"/>
				<stop  offset="0.4259" style="stop-color:#C99B61"/>
				<stop  offset="0.5584" style="stop-color:#F0BE7B"/>
				<stop  offset="0.6275" style="stop-color:#FFCB85"/>
				<stop  offset="0.7085" style="stop-color:#EEBC79"/>
				<stop  offset="0.8693" style="stop-color:#C0935B"/>
				<stop  offset="1" style="stop-color:#976F40"/>
			</linearGradient>
			<path fill="url(#SVGID_18_)" d="M550.789,377.67c4.478-30.641-44.227-13.646-56.7-10.623l0,0
				c-0.021,0.009-0.042,0.015-0.061,0.023c-0.21,0.055-0.396,0.132-0.563,0.224c-0.039,0.023-0.078,0.047-0.118,0.072
				c-0.692,0.435-0.999,1.153-0.987,1.898c-0.073,0.606,0.083,1.225,0.539,1.736c0.027,0.032,0.053,0.063,0.083,0.095
				c0.148,0.15,0.316,0.291,0.525,0.412c10.992,6.47,24.111,17.389,37.045,19.416C539.784,392.371,549.34,387.586,550.789,377.67z
				 M541.072,371.815c1.411,2.981,0.854,6.35-1.354,8.768c-8.852,8.553-27.226-3.267-38.564-10.231
				C513.966,366.995,535.055,361.02,541.072,371.815z"/>
			<linearGradient id="SVGID_19_" gradientUnits="userSpaceOnUse" x1="126.6128" y1="-146.6299" x2="891.9003" y2="329.7234">
				<stop  offset="0" style="stop-color:#BE965D"/>
				<stop  offset="0.2784" style="stop-color:#976F40"/>
				<stop  offset="0.4259" style="stop-color:#C99B61"/>
				<stop  offset="0.5584" style="stop-color:#F0BE7B"/>
				<stop  offset="0.6275" style="stop-color:#FFCB85"/>
				<stop  offset="0.7085" style="stop-color:#EEBC79"/>
				<stop  offset="0.8693" style="stop-color:#C0935B"/>
				<stop  offset="1" style="stop-color:#976F40"/>
			</linearGradient>
			<path fill="url(#SVGID_19_)" d="M493.507,103.738c-0.209,0.123-0.377,0.264-0.525,0.414c-0.027,0.029-0.055,0.06-0.08,0.091
				c-0.455,0.506-0.61,1.124-0.545,1.73c-0.012,0.747,0.293,1.469,0.99,1.906c0.04,0.026,0.076,0.049,0.118,0.072
				c0.165,0.091,0.348,0.167,0.557,0.224c0.028,0.011,0.061,0.02,0.09,0.029c12.384,3.005,28.129,9.664,41.083,7.88
				c9.256-1.276,17.045-8.59,15.595-18.507c-1.371-9.385-10.082-14.297-18.974-13.408
				C518.432,85.509,504.682,97.164,493.507,103.738z M539.718,94.664c2.209,2.418,2.766,5.785,1.354,8.768
				c-5.961,10.69-27.086,4.79-39.909,1.458C512.499,97.927,530.875,86.123,539.718,94.664z"/>
			<linearGradient id="SVGID_20_" gradientUnits="userSpaceOnUse" x1="-51.2842" y1="171.2324" x2="714.0034" y2="647.5857">
				<stop  offset="0" style="stop-color:#BE965D"/>
				<stop  offset="0.2784" style="stop-color:#976F40"/>
				<stop  offset="0.4259" style="stop-color:#C99B61"/>
				<stop  offset="0.5584" style="stop-color:#F0BE7B"/>
				<stop  offset="0.6275" style="stop-color:#FFCB85"/>
				<stop  offset="0.7085" style="stop-color:#EEBC79"/>
				<stop  offset="0.8693" style="stop-color:#C0935B"/>
				<stop  offset="1" style="stop-color:#976F40"/>
			</linearGradient>
			<path fill="url(#SVGID_20_)" d="M305.806,371.508c0.208-0.121,0.375-0.262,0.525-0.412c0.029-0.031,0.053-0.06,0.081-0.092
				c0.455-0.506,0.613-1.127,0.543-1.731c0.016-0.747-0.292-1.469-0.991-1.906c-0.036-0.022-0.075-0.049-0.113-0.069
				c-0.167-0.095-0.353-0.169-0.557-0.224c-0.032-0.012-0.062-0.021-0.093-0.032c-12.38-3.005-28.126-9.665-41.082-7.876
				c-9.254,1.273-17.046,8.587-15.596,18.505c1.373,9.387,10.085,14.298,18.974,13.406
				C280.881,389.736,294.633,378.084,305.806,371.508z M259.593,380.583c-2.206-2.418-2.762-5.783-1.353-8.768
				c5.96-10.692,27.086-4.791,39.911-1.458C286.813,377.319,268.437,389.124,259.593,380.583z"/>
			<linearGradient id="SVGID_21_" gradientUnits="userSpaceOnUse" x1="88.3354" y1="-85.0986" x2="853.5858" y2="391.2315">
				<stop  offset="0" style="stop-color:#BE965D"/>
				<stop  offset="0.2784" style="stop-color:#976F40"/>
				<stop  offset="0.4259" style="stop-color:#C99B61"/>
				<stop  offset="0.5584" style="stop-color:#F0BE7B"/>
				<stop  offset="0.6275" style="stop-color:#FFCB85"/>
				<stop  offset="0.7085" style="stop-color:#EEBC79"/>
				<stop  offset="0.8693" style="stop-color:#C0935B"/>
				<stop  offset="1" style="stop-color:#976F40"/>
			</linearGradient>
			<path fill="url(#SVGID_21_)" d="M399.656,99.792c-4.733,0-8.742,3.871-8.928,8.593c-0.19,4.844,3.409,8.468,7.94,9.159
				c0.286,0.107,0.612,0.163,0.988,0.144c0.367,0.02,0.686-0.037,0.966-0.137c4.41-0.664,7.981-4.096,7.981-8.812
				C408.604,103.879,404.515,99.792,399.656,99.792z M399.656,112.806c-5.211-0.281-5.255-8.134,0-8.134
				C404.917,104.672,404.871,112.525,399.656,112.806z"/>
			<linearGradient id="SVGID_22_" gradientUnits="userSpaceOnUse" x1="-12.9702" y1="109.7236" x2="752.2801" y2="586.0537">
				<stop  offset="0" style="stop-color:#BE965D"/>
				<stop  offset="0.2784" style="stop-color:#976F40"/>
				<stop  offset="0.4259" style="stop-color:#C99B61"/>
				<stop  offset="0.5584" style="stop-color:#F0BE7B"/>
				<stop  offset="0.6275" style="stop-color:#FFCB85"/>
				<stop  offset="0.7085" style="stop-color:#EEBC79"/>
				<stop  offset="0.8693" style="stop-color:#C0935B"/>
				<stop  offset="1" style="stop-color:#976F40"/>
			</linearGradient>
			<path fill="url(#SVGID_22_)" d="M399.656,357.561c-0.365-0.021-0.683,0.034-0.963,0.138c-4.409,0.661-7.984,4.095-7.984,8.812
				c0,4.856,4.091,8.946,8.948,8.946c4.735,0,8.744-3.874,8.929-8.593c0.189-4.846-3.406-8.469-7.94-9.162
				C400.359,357.595,400.032,357.54,399.656,357.561z M399.656,370.575c-5.26,0-5.211-7.854,0-8.135
				C404.871,362.722,404.912,370.575,399.656,370.575z"/>
			<linearGradient id="SVGID_23_" gradientUnits="userSpaceOnUse" x1="66.5898" y1="-50.2295" x2="831.9194" y2="426.15">
				<stop  offset="0" style="stop-color:#BE965D"/>
				<stop  offset="0.2784" style="stop-color:#976F40"/>
				<stop  offset="0.4259" style="stop-color:#C99B61"/>
				<stop  offset="0.5584" style="stop-color:#F0BE7B"/>
				<stop  offset="0.6275" style="stop-color:#FFCB85"/>
				<stop  offset="0.7085" style="stop-color:#EEBC79"/>
				<stop  offset="0.8693" style="stop-color:#C0935B"/>
				<stop  offset="1" style="stop-color:#976F40"/>
			</linearGradient>
			<path fill="url(#SVGID_23_)" d="M321.893,99.792c-4.733,0-8.745,3.871-8.931,8.593c-0.189,4.844,3.409,8.468,7.94,9.159
				c0.286,0.107,0.616,0.163,0.991,0.144c0.367,0.02,0.685-0.037,0.965-0.137c4.409-0.664,7.983-4.096,7.983-8.812
				C330.841,103.879,326.749,99.792,321.893,99.792z M321.893,112.806c-5.213-0.281-5.258-8.134,0-8.134
				C327.154,104.672,327.105,112.525,321.893,112.806z"/>
			<linearGradient id="SVGID_24_" gradientUnits="userSpaceOnUse" x1="8.7476" y1="74.8379" x2="773.9948" y2="551.1661">
				<stop  offset="0" style="stop-color:#BE965D"/>
				<stop  offset="0.2784" style="stop-color:#976F40"/>
				<stop  offset="0.4259" style="stop-color:#C99B61"/>
				<stop  offset="0.5584" style="stop-color:#F0BE7B"/>
				<stop  offset="0.6275" style="stop-color:#FFCB85"/>
				<stop  offset="0.7085" style="stop-color:#EEBC79"/>
				<stop  offset="0.8693" style="stop-color:#C0935B"/>
				<stop  offset="1" style="stop-color:#976F40"/>
			</linearGradient>
			<path fill="url(#SVGID_24_)" d="M477.421,357.561c-0.366-0.021-0.686,0.034-0.966,0.138c-4.409,0.661-7.981,4.095-7.981,8.812
				c0,4.856,4.089,8.946,8.947,8.946c4.733,0,8.742-3.874,8.928-8.593c0.191-4.846-3.407-8.469-7.939-9.162
				C478.124,357.595,477.796,357.54,477.421,357.561z M477.421,370.575c-5.261,0-5.214-7.854,0-8.135
				C482.634,362.722,482.677,370.575,477.421,370.575z"/>
			<linearGradient id="SVGID_25_" gradientUnits="userSpaceOnUse" x1="110.0542" y1="-119.9834" x2="875.3015" y2="356.3448">
				<stop  offset="0" style="stop-color:#BE965D"/>
				<stop  offset="0.2784" style="stop-color:#976F40"/>
				<stop  offset="0.4259" style="stop-color:#C99B61"/>
				<stop  offset="0.5584" style="stop-color:#F0BE7B"/>
				<stop  offset="0.6275" style="stop-color:#FFCB85"/>
				<stop  offset="0.7085" style="stop-color:#EEBC79"/>
				<stop  offset="0.8693" style="stop-color:#C0935B"/>
				<stop  offset="1" style="stop-color:#976F40"/>
			</linearGradient>
			<path fill="url(#SVGID_25_)" d="M477.421,99.792c-4.733,0-8.742,3.871-8.928,8.593c-0.192,4.844,3.406,8.468,7.938,9.159
				c0.286,0.107,0.615,0.163,0.99,0.144c0.367,0.02,0.684-0.037,0.964-0.137c4.409-0.664,7.984-4.096,7.984-8.812
				C486.369,103.879,482.276,99.792,477.421,99.792z M477.421,112.806c-5.214-0.281-5.258-8.134,0-8.134
				C482.683,104.672,482.634,112.525,477.421,112.806z"/>
			<linearGradient id="SVGID_26_" gradientUnits="userSpaceOnUse" x1="-34.7051" y1="144.5986" x2="730.5826" y2="620.952">
				<stop  offset="0" style="stop-color:#BE965D"/>
				<stop  offset="0.2784" style="stop-color:#976F40"/>
				<stop  offset="0.4259" style="stop-color:#C99B61"/>
				<stop  offset="0.5584" style="stop-color:#F0BE7B"/>
				<stop  offset="0.6275" style="stop-color:#FFCB85"/>
				<stop  offset="0.7085" style="stop-color:#EEBC79"/>
				<stop  offset="0.8693" style="stop-color:#C0935B"/>
				<stop  offset="1" style="stop-color:#976F40"/>
			</linearGradient>
			<path fill="url(#SVGID_26_)" d="M321.893,357.561c-0.365-0.021-0.684,0.034-0.966,0.138c-4.408,0.661-7.981,4.095-7.981,8.812
				c0,4.856,4.091,8.946,8.948,8.946c4.735,0,8.744-3.874,8.929-8.593c0.19-4.846-3.409-8.469-7.94-9.162
				C322.596,357.595,322.27,357.54,321.893,357.561z M321.893,370.575c-5.263,0-5.213-7.854,0-8.135
				C327.105,362.722,327.15,370.575,321.893,370.575z"/>
			<linearGradient id="SVGID_27_" gradientUnits="userSpaceOnUse" x1="41.3608" y1="-9.6587" x2="806.6485" y2="466.6947">
				<stop  offset="0" style="stop-color:#BE965D"/>
				<stop  offset="0.2784" style="stop-color:#976F40"/>
				<stop  offset="0.4259" style="stop-color:#C99B61"/>
				<stop  offset="0.5584" style="stop-color:#F0BE7B"/>
				<stop  offset="0.6275" style="stop-color:#FFCB85"/>
				<stop  offset="0.7085" style="stop-color:#EEBC79"/>
				<stop  offset="0.8693" style="stop-color:#C0935B"/>
				<stop  offset="1" style="stop-color:#976F40"/>
			</linearGradient>
			<path fill="url(#SVGID_27_)" d="M212.066,106.074c0.285,0.107,0.615,0.164,0.991,0.143c0.366,0.019,0.683-0.035,0.964-0.137
				c4.409-0.662,7.984-4.096,7.984-8.812c0-4.857-4.092-8.948-8.948-8.948c-4.733,0-8.745,3.873-8.929,8.594
				C203.936,101.758,207.535,105.382,212.066,106.074z M213.057,93.203c5.261,0,5.212,7.854,0,8.134
				C207.843,101.056,207.799,93.203,213.057,93.203z"/>
			<linearGradient id="SVGID_28_" gradientUnits="userSpaceOnUse" x1="33.937" y1="34.2402" x2="799.2681" y2="510.6206">
				<stop  offset="0" style="stop-color:#BE965D"/>
				<stop  offset="0.2784" style="stop-color:#976F40"/>
				<stop  offset="0.4259" style="stop-color:#C99B61"/>
				<stop  offset="0.5584" style="stop-color:#F0BE7B"/>
				<stop  offset="0.6275" style="stop-color:#FFCB85"/>
				<stop  offset="0.7085" style="stop-color:#EEBC79"/>
				<stop  offset="0.8693" style="stop-color:#C0935B"/>
				<stop  offset="1" style="stop-color:#976F40"/>
			</linearGradient>
			<path fill="url(#SVGID_28_)" d="M587.246,369.172c-0.286-0.106-0.612-0.163-0.989-0.144c-0.365-0.02-0.686,0.037-0.966,0.138
				c-4.408,0.662-7.981,4.096-7.981,8.812c0,4.86,4.091,8.946,8.947,8.946c4.735,0,8.744-3.87,8.93-8.593
				C595.376,373.486,591.777,369.862,587.246,369.172z M586.257,382.044c-5.259,0-5.213-7.851,0-8.136
				C591.47,374.193,591.514,382.044,586.257,382.044z"/>
			<linearGradient id="SVGID_29_" gradientUnits="userSpaceOnUse" x1="145.5703" y1="-177.0918" x2="910.8595" y2="299.2625">
				<stop  offset="0" style="stop-color:#BE965D"/>
				<stop  offset="0.2784" style="stop-color:#976F40"/>
				<stop  offset="0.4259" style="stop-color:#C99B61"/>
				<stop  offset="0.5584" style="stop-color:#F0BE7B"/>
				<stop  offset="0.6275" style="stop-color:#FFCB85"/>
				<stop  offset="0.7085" style="stop-color:#EEBC79"/>
				<stop  offset="0.8693" style="stop-color:#C0935B"/>
				<stop  offset="1" style="stop-color:#976F40"/>
			</linearGradient>
			<path fill="url(#SVGID_29_)" d="M585.267,106.074c0.286,0.107,0.615,0.164,0.99,0.143c0.367,0.019,0.684-0.035,0.965-0.137
				c4.409-0.662,7.983-4.096,7.983-8.812c0-4.857-4.092-8.948-8.948-8.948c-4.733,0-8.745,3.873-8.928,8.594
				C577.137,101.76,580.736,105.382,585.267,106.074z M586.257,93.203c5.262,0,5.213,7.854,0,8.134
				C581.044,101.056,580.999,93.203,586.257,93.203z"/>
			<linearGradient id="SVGID_30_" gradientUnits="userSpaceOnUse" x1="-70.2422" y1="201.6929" x2="695.0455" y2="678.0462">
				<stop  offset="0" style="stop-color:#BE965D"/>
				<stop  offset="0.2784" style="stop-color:#976F40"/>
				<stop  offset="0.4259" style="stop-color:#C99B61"/>
				<stop  offset="0.5584" style="stop-color:#F0BE7B"/>
				<stop  offset="0.6275" style="stop-color:#FFCB85"/>
				<stop  offset="0.7085" style="stop-color:#EEBC79"/>
				<stop  offset="0.8693" style="stop-color:#C0935B"/>
				<stop  offset="1" style="stop-color:#976F40"/>
			</linearGradient>
			<path fill="url(#SVGID_30_)" d="M214.045,369.172c-0.285-0.106-0.612-0.163-0.988-0.144c-0.366-0.02-0.686,0.037-0.966,0.138
				c-4.409,0.662-7.981,4.096-7.981,8.812c0,4.86,4.09,8.946,8.948,8.946c4.733,0,8.743-3.87,8.928-8.593
				C222.176,373.486,218.576,369.862,214.045,369.172z M213.057,382.044c-5.263,0-5.214-7.851,0-8.136
				C218.269,374.193,218.313,382.044,213.057,382.044z"/>
			<linearGradient id="SVGID_31_" gradientUnits="userSpaceOnUse" x1="1.4248" y1="54.54" x2="766.5563" y2="530.7962">
				<stop  offset="0" style="stop-color:#BE965D"/>
				<stop  offset="0.2784" style="stop-color:#976F40"/>
				<stop  offset="0.4259" style="stop-color:#C99B61"/>
				<stop  offset="0.5584" style="stop-color:#F0BE7B"/>
				<stop  offset="0.6275" style="stop-color:#FFCB85"/>
				<stop  offset="0.7085" style="stop-color:#EEBC79"/>
				<stop  offset="0.8693" style="stop-color:#C0935B"/>
				<stop  offset="1" style="stop-color:#976F40"/>
			</linearGradient>
			<path fill="url(#SVGID_31_)" d="M76.879,106.027c0.303,0.143,0.637,0.219,0.987,0.189c0.346,0.029,0.678-0.046,0.98-0.188
				c1.745-0.495,3.084-1.897,3.084-3.878c0-2.206-1.859-4.068-4.064-4.068c-2.207,0-4.068,1.862-4.068,4.068
				C73.798,104.13,75.137,105.531,76.879,106.027z"/>
			<linearGradient id="SVGID_32_" gradientUnits="userSpaceOnUse" x1="73.9009" y1="-29.9395" x2="839.2127" y2="446.4289">
				<stop  offset="0" style="stop-color:#BE965D"/>
				<stop  offset="0.2784" style="stop-color:#976F40"/>
				<stop  offset="0.4259" style="stop-color:#C99B61"/>
				<stop  offset="0.5584" style="stop-color:#F0BE7B"/>
				<stop  offset="0.6275" style="stop-color:#FFCB85"/>
				<stop  offset="0.7085" style="stop-color:#EEBC79"/>
				<stop  offset="0.8693" style="stop-color:#C0935B"/>
				<stop  offset="1" style="stop-color:#976F40"/>
			</linearGradient>
			<path fill="url(#SVGID_32_)" d="M722.436,369.219c-0.305-0.142-0.637-0.216-0.986-0.19c-0.35-0.025-0.679,0.046-0.983,0.188
				c-1.741,0.5-3.084,1.9-3.084,3.882c0,2.206,1.859,4.066,4.067,4.066c2.206,0,4.068-1.86,4.068-4.066
				C725.518,371.116,724.176,369.716,722.436,369.219z"/>
			<linearGradient id="SVGID_33_" gradientUnits="userSpaceOnUse" x1="181.043" y1="-234.2559" x2="946.4428" y2="242.1673">
				<stop  offset="0" style="stop-color:#BE965D"/>
				<stop  offset="0.2784" style="stop-color:#976F40"/>
				<stop  offset="0.4259" style="stop-color:#C99B61"/>
				<stop  offset="0.5584" style="stop-color:#F0BE7B"/>
				<stop  offset="0.6275" style="stop-color:#FFCB85"/>
				<stop  offset="0.7085" style="stop-color:#EEBC79"/>
				<stop  offset="0.8693" style="stop-color:#C0935B"/>
				<stop  offset="1" style="stop-color:#976F40"/>
			</linearGradient>
			<path fill="url(#SVGID_33_)" d="M720.463,106.027c0.304,0.143,0.637,0.219,0.986,0.189c0.347,0.029,0.679-0.046,0.98-0.188
				c1.746-0.495,3.088-1.897,3.088-3.878c0-2.206-1.862-4.068-4.068-4.068c-2.208,0-4.067,1.862-4.067,4.068
				C717.382,104.13,718.722,105.531,720.463,106.027z"/>
			<linearGradient id="SVGID_34_" gradientUnits="userSpaceOnUse" x1="-105.7539" y1="258.833" x2="659.3763" y2="735.0883">
				<stop  offset="0" style="stop-color:#BE965D"/>
				<stop  offset="0.2784" style="stop-color:#976F40"/>
				<stop  offset="0.4259" style="stop-color:#C99B61"/>
				<stop  offset="0.5584" style="stop-color:#F0BE7B"/>
				<stop  offset="0.6275" style="stop-color:#FFCB85"/>
				<stop  offset="0.7085" style="stop-color:#EEBC79"/>
				<stop  offset="0.8693" style="stop-color:#C0935B"/>
				<stop  offset="1" style="stop-color:#976F40"/>
			</linearGradient>
			<path fill="url(#SVGID_34_)" d="M78.851,369.219c-0.305-0.142-0.637-0.216-0.985-0.19c-0.35-0.025-0.679,0.046-0.984,0.188
				c-1.742,0.497-3.084,1.9-3.084,3.882c0,2.206,1.861,4.066,4.068,4.066c2.206,0,4.064-1.86,4.064-4.066
				C81.93,371.116,80.591,369.716,78.851,369.219z"/>
			<linearGradient id="SVGID_35_" gradientUnits="userSpaceOnUse" x1="6.4473" y1="46.4268" x2="771.7632" y2="522.7977">
				<stop  offset="0" style="stop-color:#BE965D"/>
				<stop  offset="0.2784" style="stop-color:#976F40"/>
				<stop  offset="0.4259" style="stop-color:#C99B61"/>
				<stop  offset="0.5584" style="stop-color:#F0BE7B"/>
				<stop  offset="0.6275" style="stop-color:#FFCB85"/>
				<stop  offset="0.7085" style="stop-color:#EEBC79"/>
				<stop  offset="0.8693" style="stop-color:#C0935B"/>
				<stop  offset="1" style="stop-color:#976F40"/>
			</linearGradient>
			<path fill="url(#SVGID_35_)" d="M94.936,106.027c0.305,0.143,0.637,0.219,0.985,0.189c0.35,0.029,0.681-0.046,0.983-0.188
				c1.743-0.495,3.084-1.897,3.084-3.878c0-2.206-1.861-4.068-4.068-4.068c-2.206,0-4.067,1.862-4.067,4.068
				C91.854,104.13,93.196,105.531,94.936,106.027z"/>
			<linearGradient id="SVGID_36_" gradientUnits="userSpaceOnUse" x1="68.8584" y1="-21.8384" x2="834.1702" y2="454.53">
				<stop  offset="0" style="stop-color:#BE965D"/>
				<stop  offset="0.2784" style="stop-color:#976F40"/>
				<stop  offset="0.4259" style="stop-color:#C99B61"/>
				<stop  offset="0.5584" style="stop-color:#F0BE7B"/>
				<stop  offset="0.6275" style="stop-color:#FFCB85"/>
				<stop  offset="0.7085" style="stop-color:#EEBC79"/>
				<stop  offset="0.8693" style="stop-color:#C0935B"/>
				<stop  offset="1" style="stop-color:#976F40"/>
			</linearGradient>
			<path fill="url(#SVGID_36_)" d="M704.376,369.219c-0.305-0.142-0.637-0.216-0.984-0.19c-0.347-0.025-0.679,0.046-0.983,0.188
				c-1.743,0.5-3.085,1.9-3.085,3.882c0,2.206,1.861,4.066,4.068,4.066c2.205,0,4.066-1.86,4.066-4.066
				C707.458,371.116,706.119,369.716,704.376,369.219z"/>
			<linearGradient id="SVGID_37_" gradientUnits="userSpaceOnUse" x1="176.0649" y1="-226.1138" x2="941.3726" y2="250.252">
				<stop  offset="0" style="stop-color:#BE965D"/>
				<stop  offset="0.2784" style="stop-color:#976F40"/>
				<stop  offset="0.4259" style="stop-color:#C99B61"/>
				<stop  offset="0.5584" style="stop-color:#F0BE7B"/>
				<stop  offset="0.6275" style="stop-color:#FFCB85"/>
				<stop  offset="0.7085" style="stop-color:#EEBC79"/>
				<stop  offset="0.8693" style="stop-color:#C0935B"/>
				<stop  offset="1" style="stop-color:#976F40"/>
			</linearGradient>
			<path fill="url(#SVGID_37_)" d="M702.405,106.027c0.305,0.143,0.637,0.219,0.986,0.189c0.347,0.029,0.677-0.046,0.981-0.188
				c1.743-0.495,3.085-1.897,3.085-3.878c0-2.206-1.861-4.068-4.066-4.068c-2.207,0-4.068,1.862-4.068,4.068
				C699.323,104.13,700.662,105.531,702.405,106.027z"/>
			<linearGradient id="SVGID_38_" gradientUnits="userSpaceOnUse" x1="-100.7568" y1="250.7036" x2="664.5577" y2="727.0737">
				<stop  offset="0" style="stop-color:#BE965D"/>
				<stop  offset="0.2784" style="stop-color:#976F40"/>
				<stop  offset="0.4259" style="stop-color:#C99B61"/>
				<stop  offset="0.5584" style="stop-color:#F0BE7B"/>
				<stop  offset="0.6275" style="stop-color:#FFCB85"/>
				<stop  offset="0.7085" style="stop-color:#EEBC79"/>
				<stop  offset="0.8693" style="stop-color:#C0935B"/>
				<stop  offset="1" style="stop-color:#976F40"/>
			</linearGradient>
			<path fill="url(#SVGID_38_)" d="M96.908,369.219c-0.303-0.142-0.637-0.216-0.986-0.19c-0.346-0.025-0.678,0.046-0.98,0.188
				c-1.745,0.497-3.086,1.9-3.086,3.882c0,2.206,1.861,4.066,4.067,4.066c2.207,0,4.068-1.86,4.068-4.066
				C99.989,371.116,98.65,369.716,96.908,369.219z"/>
			<linearGradient id="SVGID_39_" gradientUnits="userSpaceOnUse" x1="11.4902" y1="38.3252" x2="776.8062" y2="514.6962">
				<stop  offset="0" style="stop-color:#BE965D"/>
				<stop  offset="0.2784" style="stop-color:#976F40"/>
				<stop  offset="0.4259" style="stop-color:#C99B61"/>
				<stop  offset="0.5584" style="stop-color:#F0BE7B"/>
				<stop  offset="0.6275" style="stop-color:#FFCB85"/>
				<stop  offset="0.7085" style="stop-color:#EEBC79"/>
				<stop  offset="0.8693" style="stop-color:#C0935B"/>
				<stop  offset="1" style="stop-color:#976F40"/>
			</linearGradient>
			<path fill="url(#SVGID_39_)" d="M112.995,106.027c0.306,0.143,0.637,0.219,0.986,0.189c0.346,0.029,0.678-0.046,0.983-0.188
				c1.743-0.495,3.084-1.897,3.084-3.878c0-2.206-1.861-4.068-4.067-4.068c-2.207,0-4.068,1.862-4.068,4.068
				C109.913,104.13,111.253,105.531,112.995,106.027z"/>
			<linearGradient id="SVGID_40_" gradientUnits="userSpaceOnUse" x1="63.8877" y1="-13.6919" x2="829.1115" y2="462.6217">
				<stop  offset="0" style="stop-color:#BE965D"/>
				<stop  offset="0.2784" style="stop-color:#976F40"/>
				<stop  offset="0.4259" style="stop-color:#C99B61"/>
				<stop  offset="0.5584" style="stop-color:#F0BE7B"/>
				<stop  offset="0.6275" style="stop-color:#FFCB85"/>
				<stop  offset="0.7085" style="stop-color:#EEBC79"/>
				<stop  offset="0.8693" style="stop-color:#C0935B"/>
				<stop  offset="1" style="stop-color:#976F40"/>
			</linearGradient>
			<path fill="url(#SVGID_40_)" d="M686.318,369.219c-0.304-0.142-0.637-0.216-0.986-0.19c-0.347-0.025-0.679,0.046-0.98,0.188
				c-1.746,0.5-3.085,1.9-3.085,3.882c0,2.206,1.859,4.066,4.065,4.066c2.208,0,4.067-1.86,4.067-4.066
				C689.399,371.116,688.06,369.716,686.318,369.219z"/>
			<linearGradient id="SVGID_41_" gradientUnits="userSpaceOnUse" x1="171.0791" y1="-217.9771" x2="936.3036" y2="258.337">
				<stop  offset="0" style="stop-color:#BE965D"/>
				<stop  offset="0.2784" style="stop-color:#976F40"/>
				<stop  offset="0.4259" style="stop-color:#C99B61"/>
				<stop  offset="0.5584" style="stop-color:#F0BE7B"/>
				<stop  offset="0.6275" style="stop-color:#FFCB85"/>
				<stop  offset="0.7085" style="stop-color:#EEBC79"/>
				<stop  offset="0.8693" style="stop-color:#C0935B"/>
				<stop  offset="1" style="stop-color:#976F40"/>
			</linearGradient>
			<path fill="url(#SVGID_41_)" d="M684.346,106.027c0.306,0.143,0.637,0.219,0.986,0.189c0.35,0.029,0.68-0.046,0.983-0.188
				c1.742-0.495,3.084-1.897,3.084-3.878c0-2.206-1.859-4.068-4.067-4.068c-2.206,0-4.065,1.862-4.065,4.068
				C681.267,104.13,682.605,105.531,684.346,106.027z"/>
			<linearGradient id="SVGID_42_" gradientUnits="userSpaceOnUse" x1="-95.689" y1="242.6177" x2="669.5334" y2="718.9304">
				<stop  offset="0" style="stop-color:#BE965D"/>
				<stop  offset="0.2784" style="stop-color:#976F40"/>
				<stop  offset="0.4259" style="stop-color:#C99B61"/>
				<stop  offset="0.5584" style="stop-color:#F0BE7B"/>
				<stop  offset="0.6275" style="stop-color:#FFCB85"/>
				<stop  offset="0.7085" style="stop-color:#EEBC79"/>
				<stop  offset="0.8693" style="stop-color:#C0935B"/>
				<stop  offset="1" style="stop-color:#976F40"/>
			</linearGradient>
			<path fill="url(#SVGID_42_)" d="M114.967,369.219c-0.306-0.142-0.637-0.216-0.986-0.19c-0.346-0.025-0.679,0.046-0.983,0.188
				c-1.743,0.497-3.084,1.9-3.084,3.882c0,2.206,1.861,4.066,4.068,4.066c2.206,0,4.067-1.86,4.067-4.066
				C118.048,371.116,116.708,369.716,114.967,369.219z"/>
			<linearGradient id="SVGID_43_" gradientUnits="userSpaceOnUse" x1="16.5596" y1="30.2397" x2="781.6911" y2="506.4959">
				<stop  offset="0" style="stop-color:#BE965D"/>
				<stop  offset="0.2784" style="stop-color:#976F40"/>
				<stop  offset="0.4259" style="stop-color:#C99B61"/>
				<stop  offset="0.5584" style="stop-color:#F0BE7B"/>
				<stop  offset="0.6275" style="stop-color:#FFCB85"/>
				<stop  offset="0.7085" style="stop-color:#EEBC79"/>
				<stop  offset="0.8693" style="stop-color:#C0935B"/>
				<stop  offset="1" style="stop-color:#976F40"/>
			</linearGradient>
			<path fill="url(#SVGID_43_)" d="M131.054,106.027c0.302,0.143,0.637,0.219,0.986,0.189c0.346,0.029,0.678-0.046,0.98-0.188
				c1.745-0.495,3.084-1.897,3.084-3.878c0-2.206-1.859-4.068-4.064-4.068c-2.207,0-4.068,1.862-4.068,4.068
				C127.972,104.13,129.312,105.531,131.054,106.027z"/>
			<linearGradient id="SVGID_44_" gradientUnits="userSpaceOnUse" x1="58.771" y1="-5.6362" x2="824.087" y2="470.7347">
				<stop  offset="0" style="stop-color:#BE965D"/>
				<stop  offset="0.2784" style="stop-color:#976F40"/>
				<stop  offset="0.4259" style="stop-color:#C99B61"/>
				<stop  offset="0.5584" style="stop-color:#F0BE7B"/>
				<stop  offset="0.6275" style="stop-color:#FFCB85"/>
				<stop  offset="0.7085" style="stop-color:#EEBC79"/>
				<stop  offset="0.8693" style="stop-color:#C0935B"/>
				<stop  offset="1" style="stop-color:#976F40"/>
			</linearGradient>
			<path fill="url(#SVGID_44_)" d="M668.262,369.219c-0.305-0.142-0.638-0.216-0.986-0.19c-0.35-0.025-0.681,0.046-0.983,0.188
				c-1.741,0.5-3.085,1.9-3.085,3.882c0,2.206,1.859,4.066,4.068,4.066c2.205,0,4.067-1.86,4.067-4.066
				C671.343,371.116,670.001,369.716,668.262,369.219z"/>
			<linearGradient id="SVGID_45_" gradientUnits="userSpaceOnUse" x1="165.9146" y1="-209.9517" x2="931.3234" y2="266.4771">
				<stop  offset="0" style="stop-color:#BE965D"/>
				<stop  offset="0.2784" style="stop-color:#976F40"/>
				<stop  offset="0.4259" style="stop-color:#C99B61"/>
				<stop  offset="0.5584" style="stop-color:#F0BE7B"/>
				<stop  offset="0.6275" style="stop-color:#FFCB85"/>
				<stop  offset="0.7085" style="stop-color:#EEBC79"/>
				<stop  offset="0.8693" style="stop-color:#C0935B"/>
				<stop  offset="1" style="stop-color:#976F40"/>
			</linearGradient>
			<path fill="url(#SVGID_45_)" d="M666.29,106.027c0.302,0.143,0.636,0.219,0.985,0.189c0.346,0.029,0.679-0.046,0.98-0.188
				c1.745-0.495,3.087-1.897,3.087-3.878c0-2.206-1.862-4.068-4.067-4.068c-2.209,0-4.068,1.862-4.068,4.068
				C663.207,104.13,664.548,105.531,666.29,106.027z"/>
			<linearGradient id="SVGID_46_" gradientUnits="userSpaceOnUse" x1="-90.6187" y1="234.5327" x2="674.5115" y2="710.788">
				<stop  offset="0" style="stop-color:#BE965D"/>
				<stop  offset="0.2784" style="stop-color:#976F40"/>
				<stop  offset="0.4259" style="stop-color:#C99B61"/>
				<stop  offset="0.5584" style="stop-color:#F0BE7B"/>
				<stop  offset="0.6275" style="stop-color:#FFCB85"/>
				<stop  offset="0.7085" style="stop-color:#EEBC79"/>
				<stop  offset="0.8693" style="stop-color:#C0935B"/>
				<stop  offset="1" style="stop-color:#976F40"/>
			</linearGradient>
			<path fill="url(#SVGID_46_)" d="M133.025,369.219c-0.305-0.142-0.637-0.216-0.985-0.19c-0.35-0.025-0.679,0.046-0.984,0.188
				c-1.742,0.497-3.084,1.9-3.084,3.882c0,2.206,1.861,4.066,4.068,4.066c2.206,0,4.064-1.86,4.064-4.066
				C136.104,371.116,134.765,369.716,133.025,369.219z"/>
			<linearGradient id="SVGID_47_" gradientUnits="userSpaceOnUse" x1="21.6055" y1="22.1406" x2="786.737" y2="498.3968">
				<stop  offset="0" style="stop-color:#BE965D"/>
				<stop  offset="0.2784" style="stop-color:#976F40"/>
				<stop  offset="0.4259" style="stop-color:#C99B61"/>
				<stop  offset="0.5584" style="stop-color:#F0BE7B"/>
				<stop  offset="0.6275" style="stop-color:#FFCB85"/>
				<stop  offset="0.7085" style="stop-color:#EEBC79"/>
				<stop  offset="0.8693" style="stop-color:#C0935B"/>
				<stop  offset="1" style="stop-color:#976F40"/>
			</linearGradient>
			<path fill="url(#SVGID_47_)" d="M149.11,106.027c0.305,0.143,0.637,0.219,0.985,0.189c0.35,0.029,0.681-0.046,0.983-0.188
				c1.742-0.495,3.084-1.897,3.084-3.878c0-2.206-1.862-4.068-4.068-4.068c-2.206,0-4.064,1.862-4.064,4.068
				C146.031,104.13,147.371,105.531,149.11,106.027z"/>
			<linearGradient id="SVGID_48_" gradientUnits="userSpaceOnUse" x1="53.8003" y1="2.5098" x2="819.024" y2="478.8233">
				<stop  offset="0" style="stop-color:#BE965D"/>
				<stop  offset="0.2784" style="stop-color:#976F40"/>
				<stop  offset="0.4259" style="stop-color:#C99B61"/>
				<stop  offset="0.5584" style="stop-color:#F0BE7B"/>
				<stop  offset="0.6275" style="stop-color:#FFCB85"/>
				<stop  offset="0.7085" style="stop-color:#EEBC79"/>
				<stop  offset="0.8693" style="stop-color:#C0935B"/>
				<stop  offset="1" style="stop-color:#976F40"/>
			</linearGradient>
			<path fill="url(#SVGID_48_)" d="M650.202,369.219c-0.302-0.142-0.638-0.216-0.985-0.19c-0.347-0.025-0.679,0.046-0.983,0.188
				c-1.742,0.5-3.084,1.9-3.084,3.882c0,2.206,1.86,4.066,4.067,4.066c2.206,0,4.066-1.86,4.066-4.066
				C653.283,371.116,651.944,369.716,650.202,369.219z"/>
			<linearGradient id="SVGID_49_" gradientUnits="userSpaceOnUse" x1="160.9912" y1="-201.7759" x2="926.2157" y2="274.5381">
				<stop  offset="0" style="stop-color:#BE965D"/>
				<stop  offset="0.2784" style="stop-color:#976F40"/>
				<stop  offset="0.4259" style="stop-color:#C99B61"/>
				<stop  offset="0.5584" style="stop-color:#F0BE7B"/>
				<stop  offset="0.6275" style="stop-color:#FFCB85"/>
				<stop  offset="0.7085" style="stop-color:#EEBC79"/>
				<stop  offset="0.8693" style="stop-color:#C0935B"/>
				<stop  offset="1" style="stop-color:#976F40"/>
			</linearGradient>
			<path fill="url(#SVGID_49_)" d="M648.23,106.027c0.305,0.143,0.637,0.219,0.986,0.189c0.347,0.029,0.678-0.046,0.982-0.188
				c1.742-0.495,3.084-1.897,3.084-3.878c0-2.206-1.86-4.068-4.066-4.068c-2.207,0-4.067,1.862-4.067,4.068
				C645.149,104.13,646.488,105.531,648.23,106.027z"/>
			<linearGradient id="SVGID_50_" gradientUnits="userSpaceOnUse" x1="-85.5732" y1="226.4341" x2="679.5569" y2="702.6894">
				<stop  offset="0" style="stop-color:#BE965D"/>
				<stop  offset="0.2784" style="stop-color:#976F40"/>
				<stop  offset="0.4259" style="stop-color:#C99B61"/>
				<stop  offset="0.5584" style="stop-color:#F0BE7B"/>
				<stop  offset="0.6275" style="stop-color:#FFCB85"/>
				<stop  offset="0.7085" style="stop-color:#EEBC79"/>
				<stop  offset="0.8693" style="stop-color:#C0935B"/>
				<stop  offset="1" style="stop-color:#976F40"/>
			</linearGradient>
			<path fill="url(#SVGID_50_)" d="M151.082,369.219c-0.302-0.142-0.637-0.216-0.986-0.19c-0.346-0.025-0.678,0.046-0.98,0.188
				c-1.745,0.497-3.084,1.9-3.084,3.882c0,2.206,1.859,4.066,4.064,4.066c2.206,0,4.068-1.86,4.068-4.066
				C154.164,371.116,152.824,369.716,151.082,369.219z"/>
			<linearGradient id="SVGID_51_" gradientUnits="userSpaceOnUse" x1="26.6333" y1="14.0298" x2="791.8571" y2="490.3434">
				<stop  offset="0" style="stop-color:#BE965D"/>
				<stop  offset="0.2784" style="stop-color:#976F40"/>
				<stop  offset="0.4259" style="stop-color:#C99B61"/>
				<stop  offset="0.5584" style="stop-color:#F0BE7B"/>
				<stop  offset="0.6275" style="stop-color:#FFCB85"/>
				<stop  offset="0.7085" style="stop-color:#EEBC79"/>
				<stop  offset="0.8693" style="stop-color:#C0935B"/>
				<stop  offset="1" style="stop-color:#976F40"/>
			</linearGradient>
			<path fill="url(#SVGID_51_)" d="M167.169,106.027c0.305,0.143,0.637,0.219,0.986,0.189c0.346,0.029,0.679-0.046,0.983-0.188
				c1.743-0.495,3.084-1.897,3.084-3.878c0-2.206-1.861-4.068-4.068-4.068c-2.206,0-4.067,1.862-4.067,4.068
				C164.088,104.13,165.427,105.531,167.169,106.027z"/>
			<linearGradient id="SVGID_52_" gradientUnits="userSpaceOnUse" x1="48.6855" y1="10.5664" x2="814.0015" y2="486.9374">
				<stop  offset="0" style="stop-color:#BE965D"/>
				<stop  offset="0.2784" style="stop-color:#976F40"/>
				<stop  offset="0.4259" style="stop-color:#C99B61"/>
				<stop  offset="0.5584" style="stop-color:#F0BE7B"/>
				<stop  offset="0.6275" style="stop-color:#FFCB85"/>
				<stop  offset="0.7085" style="stop-color:#EEBC79"/>
				<stop  offset="0.8693" style="stop-color:#C0935B"/>
				<stop  offset="1" style="stop-color:#976F40"/>
			</linearGradient>
			<path fill="url(#SVGID_52_)" d="M632.144,369.219c-0.303-0.142-0.637-0.216-0.986-0.19c-0.347-0.025-0.679,0.046-0.98,0.188
				c-1.745,0.5-3.087,1.9-3.087,3.882c0,2.206,1.862,4.066,4.067,4.066c2.209,0,4.067-1.86,4.067-4.066
				C635.225,371.116,633.885,369.716,632.144,369.219z"/>
			<linearGradient id="SVGID_53_" gradientUnits="userSpaceOnUse" x1="155.8896" y1="-193.7109" x2="921.2063" y2="282.6605">
				<stop  offset="0" style="stop-color:#BE965D"/>
				<stop  offset="0.2784" style="stop-color:#976F40"/>
				<stop  offset="0.4259" style="stop-color:#C99B61"/>
				<stop  offset="0.5584" style="stop-color:#F0BE7B"/>
				<stop  offset="0.6275" style="stop-color:#FFCB85"/>
				<stop  offset="0.7085" style="stop-color:#EEBC79"/>
				<stop  offset="0.8693" style="stop-color:#C0935B"/>
				<stop  offset="1" style="stop-color:#976F40"/>
			</linearGradient>
			<path fill="url(#SVGID_53_)" d="M630.171,106.027c0.307,0.143,0.637,0.219,0.986,0.189c0.35,0.029,0.681-0.046,0.983-0.188
				c1.743-0.495,3.084-1.897,3.084-3.878c0-2.206-1.858-4.068-4.067-4.068c-2.205,0-4.067,1.862-4.067,4.068
				C627.09,104.13,628.432,105.531,630.171,106.027z"/>
			<linearGradient id="SVGID_54_" gradientUnits="userSpaceOnUse" x1="-80.5884" y1="218.2959" x2="684.7261" y2="694.666">
				<stop  offset="0" style="stop-color:#BE965D"/>
				<stop  offset="0.2784" style="stop-color:#976F40"/>
				<stop  offset="0.4259" style="stop-color:#C99B61"/>
				<stop  offset="0.5584" style="stop-color:#F0BE7B"/>
				<stop  offset="0.6275" style="stop-color:#FFCB85"/>
				<stop  offset="0.7085" style="stop-color:#EEBC79"/>
				<stop  offset="0.8693" style="stop-color:#C0935B"/>
				<stop  offset="1" style="stop-color:#976F40"/>
			</linearGradient>
			<path fill="url(#SVGID_54_)" d="M169.141,369.219c-0.303-0.142-0.637-0.216-0.986-0.19c-0.346-0.025-0.678,0.046-0.983,0.188
				c-1.743,0.497-3.084,1.9-3.084,3.882c0,2.206,1.861,4.066,4.067,4.066c2.207,0,4.068-1.86,4.068-4.066
				C172.223,371.116,170.883,369.716,169.141,369.219z"/>
			<linearGradient id="SVGID_55_" gradientUnits="userSpaceOnUse" x1="31.6777" y1="5.9292" x2="796.9015" y2="482.2428">
				<stop  offset="0" style="stop-color:#BE965D"/>
				<stop  offset="0.2784" style="stop-color:#976F40"/>
				<stop  offset="0.4259" style="stop-color:#C99B61"/>
				<stop  offset="0.5584" style="stop-color:#F0BE7B"/>
				<stop  offset="0.6275" style="stop-color:#FFCB85"/>
				<stop  offset="0.7085" style="stop-color:#EEBC79"/>
				<stop  offset="0.8693" style="stop-color:#C0935B"/>
				<stop  offset="1" style="stop-color:#976F40"/>
			</linearGradient>
			<path fill="url(#SVGID_55_)" d="M185.228,106.027c0.303,0.143,0.637,0.219,0.986,0.189c0.346,0.029,0.678-0.046,0.98-0.188
				c1.745-0.495,3.084-1.897,3.084-3.878c0-2.206-1.859-4.068-4.065-4.068c-2.207,0-4.068,1.862-4.068,4.068
				C182.146,104.13,183.486,105.531,185.228,106.027z"/>
			<linearGradient id="SVGID_56_" gradientUnits="userSpaceOnUse" x1="43.6445" y1="18.6685" x2="808.9605" y2="495.0394">
				<stop  offset="0" style="stop-color:#BE965D"/>
				<stop  offset="0.2784" style="stop-color:#976F40"/>
				<stop  offset="0.4259" style="stop-color:#C99B61"/>
				<stop  offset="0.5584" style="stop-color:#F0BE7B"/>
				<stop  offset="0.6275" style="stop-color:#FFCB85"/>
				<stop  offset="0.7085" style="stop-color:#EEBC79"/>
				<stop  offset="0.8693" style="stop-color:#C0935B"/>
				<stop  offset="1" style="stop-color:#976F40"/>
			</linearGradient>
			<path fill="url(#SVGID_56_)" d="M614.087,369.219c-0.305-0.142-0.637-0.216-0.986-0.19c-0.348-0.025-0.68,0.046-0.983,0.188
				c-1.741,0.5-3.084,1.9-3.084,3.882c0,2.206,1.861,4.066,4.067,4.066s4.067-1.86,4.067-4.066
				C617.168,371.116,615.827,369.716,614.087,369.219z"/>
			<linearGradient id="SVGID_57_" gradientUnits="userSpaceOnUse" x1="150.9053" y1="-185.5737" x2="916.1298" y2="290.7403">
				<stop  offset="0" style="stop-color:#BE965D"/>
				<stop  offset="0.2784" style="stop-color:#976F40"/>
				<stop  offset="0.4259" style="stop-color:#C99B61"/>
				<stop  offset="0.5584" style="stop-color:#F0BE7B"/>
				<stop  offset="0.6275" style="stop-color:#FFCB85"/>
				<stop  offset="0.7085" style="stop-color:#EEBC79"/>
				<stop  offset="0.8693" style="stop-color:#C0935B"/>
				<stop  offset="1" style="stop-color:#976F40"/>
			</linearGradient>
			<path fill="url(#SVGID_57_)" d="M612.116,106.027c0.302,0.143,0.637,0.219,0.984,0.189c0.347,0.029,0.679-0.046,0.98-0.188
				c1.746-0.495,3.087-1.897,3.087-3.878c0-2.206-1.861-4.068-4.067-4.068s-4.067,1.862-4.067,4.068
				C609.033,104.13,610.373,105.531,612.116,106.027z"/>
			<linearGradient id="SVGID_58_" gradientUnits="userSpaceOnUse" x1="-75.5137" y1="210.2144" x2="689.7087" y2="686.527">
				<stop  offset="0" style="stop-color:#BE965D"/>
				<stop  offset="0.2784" style="stop-color:#976F40"/>
				<stop  offset="0.4259" style="stop-color:#C99B61"/>
				<stop  offset="0.5584" style="stop-color:#F0BE7B"/>
				<stop  offset="0.6275" style="stop-color:#FFCB85"/>
				<stop  offset="0.7085" style="stop-color:#EEBC79"/>
				<stop  offset="0.8693" style="stop-color:#C0935B"/>
				<stop  offset="1" style="stop-color:#976F40"/>
			</linearGradient>
			<path fill="url(#SVGID_58_)" d="M187.2,369.219c-0.305-0.142-0.637-0.216-0.985-0.19c-0.35-0.025-0.681,0.046-0.983,0.188
				c-1.743,0.497-3.084,1.9-3.084,3.882c0,2.206,1.861,4.066,4.068,4.066c2.206,0,4.065-1.86,4.065-4.066
				C190.279,371.116,188.94,369.716,187.2,369.219z"/>
			<linearGradient id="SVGID_59_" gradientUnits="userSpaceOnUse" x1="27.79" y1="12.1509" x2="793.0578" y2="488.4918">
				<stop  offset="0" style="stop-color:#BE965D"/>
				<stop  offset="0.2784" style="stop-color:#976F40"/>
				<stop  offset="0.4259" style="stop-color:#C99B61"/>
				<stop  offset="0.5584" style="stop-color:#F0BE7B"/>
				<stop  offset="0.6275" style="stop-color:#FFCB85"/>
				<stop  offset="0.7085" style="stop-color:#EEBC79"/>
				<stop  offset="0.8693" style="stop-color:#C0935B"/>
				<stop  offset="1" style="stop-color:#976F40"/>
			</linearGradient>
			<path fill="url(#SVGID_59_)" d="M61.922,117.636c59.806,0,119.609,0,179.415,0c0.542,0.124,1.053,0.042,1.491-0.191
				c0.773-0.327,1.222-1.04,1.344-1.812c0.119-0.557,0.052-1.141-0.253-1.652c-0.242-0.476-0.64-0.861-1.191-1.064
				c-17.349-10.74-7.906-40.192,12.576-38.609c3.133,0.243,3.116-4.639,0-4.88c-12.13-0.938-20.95,6.891-24.562,16.756
				c-0.166,0.199-0.297,0.448-0.378,0.751c-0.196,0.72-0.361,1.429-0.508,2.134c-0.754,2.956-1.064,6.024-0.861,9.05
				c0.007,1.406,0.056,2.832,0.149,4.306c0.371,6.069-2.73,9.097-7.14,10.331c-53.359,0-106.721,0-160.083,0
				C58.781,112.756,58.776,117.636,61.922,117.636z"/>
			<linearGradient id="SVGID_60_" gradientUnits="userSpaceOnUse" x1="47.5547" y1="12.4609" x2="812.8258" y2="488.804">
				<stop  offset="0" style="stop-color:#BE965D"/>
				<stop  offset="0.2784" style="stop-color:#976F40"/>
				<stop  offset="0.4259" style="stop-color:#C99B61"/>
				<stop  offset="0.5584" style="stop-color:#F0BE7B"/>
				<stop  offset="0.6275" style="stop-color:#FFCB85"/>
				<stop  offset="0.7085" style="stop-color:#EEBC79"/>
				<stop  offset="0.8693" style="stop-color:#C0935B"/>
				<stop  offset="1" style="stop-color:#976F40"/>
			</linearGradient>
			<path fill="url(#SVGID_60_)" d="M737.393,357.609c-59.805,0-119.611,0-179.418,0c-0.541-0.124-1.051-0.038-1.488,0.192
				c-0.776,0.328-1.225,1.038-1.348,1.814c-0.119,0.552-0.05,1.139,0.255,1.647c0.241,0.478,0.639,0.866,1.19,1.067
				c17.351,10.737,7.905,40.194-12.575,38.609c-3.132-0.244-3.116,4.639,0,4.88c12.13,0.938,20.952-6.89,24.563-16.757
				c0.164-0.198,0.297-0.448,0.378-0.753c0.194-0.717,0.36-1.427,0.508-2.134c0.752-2.954,1.064-6.025,0.86-9.05
				c-0.006-1.404-0.057-2.833-0.147-4.306c-0.373-6.067,2.731-9.099,7.138-10.332c53.362,0,106.723,0,160.085,0
				C740.533,362.489,740.538,357.609,737.393,357.609z"/>
			<linearGradient id="SVGID_61_" gradientUnits="userSpaceOnUse" x1="154.5967" y1="-191.5693" x2="919.8677" y2="284.7737">
				<stop  offset="0" style="stop-color:#BE965D"/>
				<stop  offset="0.2784" style="stop-color:#976F40"/>
				<stop  offset="0.4259" style="stop-color:#C99B61"/>
				<stop  offset="0.5584" style="stop-color:#F0BE7B"/>
				<stop  offset="0.6275" style="stop-color:#FFCB85"/>
				<stop  offset="0.7085" style="stop-color:#EEBC79"/>
				<stop  offset="0.8693" style="stop-color:#C0935B"/>
				<stop  offset="1" style="stop-color:#976F40"/>
			</linearGradient>
			<path fill="url(#SVGID_61_)" d="M544.009,74.308c20.462-1.583,29.943,27.86,12.575,38.609c-0.549,0.203-0.944,0.586-1.187,1.059
				c-0.306,0.51-0.378,1.096-0.259,1.649c0.121,0.779,0.569,1.491,1.345,1.82c0.438,0.232,0.95,0.317,1.491,0.191
				c59.807,0,119.613,0,179.418,0c3.141,0,3.146-4.88,0-4.88c-53.377,0-106.75,0-160.123,0c-4.386-1.229-7.473-4.245-7.1-10.331
				c0.091-1.475,0.142-2.905,0.147-4.314c0.202-3.021-0.111-6.082-0.86-9.031c-0.147-0.709-0.312-1.423-0.508-2.145
				c-0.081-0.304-0.214-0.552-0.378-0.751c-3.61-9.865-12.432-17.695-24.563-16.756C540.896,69.668,540.873,74.55,544.009,74.308z"
				/>
			<linearGradient id="SVGID_62_" gradientUnits="userSpaceOnUse" x1="-79.2534" y1="216.1792" x2="686.0215" y2="692.5246">
				<stop  offset="0" style="stop-color:#BE965D"/>
				<stop  offset="0.2784" style="stop-color:#976F40"/>
				<stop  offset="0.4259" style="stop-color:#C99B61"/>
				<stop  offset="0.5584" style="stop-color:#F0BE7B"/>
				<stop  offset="0.6275" style="stop-color:#FFCB85"/>
				<stop  offset="0.7085" style="stop-color:#EEBC79"/>
				<stop  offset="0.8693" style="stop-color:#C0935B"/>
				<stop  offset="1" style="stop-color:#976F40"/>
			</linearGradient>
			<path fill="url(#SVGID_62_)" d="M255.304,400.94c-20.462,1.582-29.944-27.86-12.576-38.609c0.548-0.201,0.943-0.587,1.185-1.059
				c0.308-0.512,0.378-1.096,0.262-1.653c-0.12-0.776-0.568-1.486-1.344-1.817c-0.44-0.233-0.949-0.316-1.494-0.192
				c-59.806,0-119.611,0-179.415,0c-3.141,0-3.146,4.88,0,4.88c53.374,0,106.748,0,160.125,0c4.385,1.23,7.471,4.244,7.098,10.332
				c-0.093,1.476-0.142,2.904-0.146,4.313c-0.205,3.02,0.107,6.082,0.856,9.036c0.15,0.707,0.315,1.42,0.511,2.14
				c0.081,0.305,0.212,0.555,0.378,0.753c3.609,9.867,12.43,17.694,24.562,16.757C258.416,405.579,258.442,400.696,255.304,400.94z"
				/>
		</g>
	</g>
	<g>
		<path fill="#FFFFFF" d="M187.556,213.038c-1.3-2.118-3.162-4.96-5.583-8.534c-4.117-6.112-7.339-11.181-9.667-15.207
			c-2.331-4.023-3.677-7.427-4.041-10.212c-0.18-1.271-0.271-2.48-0.271-3.63c0-4.358,1.013-8.081,3.041-11.165
			c2.028-3.087,4.736-5.388,8.125-6.9c3.39-1.514,7.082-2.271,11.076-2.271c4.78,0,8.669,1.272,11.663,3.815
			c2.997,2.539,4.495,5.961,4.495,10.257c0,4.719-1.015,8.518-3.04,11.393c-2.03,2.875-5.071,4.312-9.124,4.312
			c-1.999,0-3.738-0.591-5.219-1.771c-1.486-1.179-2.225-2.555-2.225-4.128c4.599-1.15,7.73-3.209,9.396-6.174
			c1.664-2.965,2.496-6.022,2.496-9.169c0-1.874-0.576-3.314-1.725-4.312c-1.152-0.998-2.724-1.498-4.722-1.498
			c-2.301,0-4.689,0.623-7.171,1.862c-2.481,1.239-4.553,3.041-6.217,5.4c-1.667,2.361-2.496,5.116-2.496,8.262
			c0,1.937,0.815,4.342,2.45,7.217c1.635,2.875,4.053,6.523,7.261,10.939c3.994,5.749,7.038,10.5,9.124,14.252
			c2.088,3.752,3.132,7.204,3.132,10.348c0,3.814-1.059,7.053-3.177,9.714c-2.12,2.663-5.114,3.994-8.986,3.994
			c-3.995,0-7.522-0.759-10.578-2.269c-3.055-1.513-5.432-3.602-7.125-6.263c-1.696-2.663-2.543-5.598-2.543-8.807
			c0-2.601,0.62-4.855,1.862-6.764c1.24-1.905,2.979-2.86,5.22-2.86c1.21,0,2.254,0.245,3.133,0.728
			c0.876,0.486,1.315,1.211,1.315,2.179c-1.393,0.425-2.33,1.271-2.813,2.543c-0.486,1.268-0.728,2.813-0.728,4.628
			c0,1.876,0.574,3.936,1.725,6.173c1.149,2.24,2.586,4.145,4.312,5.72c1.725,1.574,3.373,2.359,4.949,2.359
			c1.693,0,3.008-0.529,3.948-1.589c0.937-1.058,1.408-2.556,1.408-4.495c0-1.149-0.123-2.237-0.364-3.267
			C189.63,216.761,188.856,215.158,187.556,213.038z"/>
		<path fill="#FFFFFF" d="M253.872,197.968c0.907,0,1.362,0.605,1.362,1.814c0,0.425-0.091,0.969-0.273,1.635
			c-1.996,6.476-3.829,11.637-5.49,15.479c-1.668,3.845-3.542,6.778-5.63,8.806c-2.088,2.027-4.555,3.041-7.398,3.041
			c-2.12,0-4.102-0.938-5.946-2.814c-1.847-1.874-3.313-4.114-4.404-6.718c-1.088-2.601-1.574-4.811-1.451-6.627
			c-0.667,1.513-1.74,3.494-3.224,5.947c-1.484,2.452-3.177,4.66-5.083,6.627c-1.905,1.965-3.738,2.949-5.493,2.949
			c-2.24,0-3.995-1.33-5.266-3.994c-1.271-2.662-1.906-5.718-1.906-9.169c0-3.57,0.74-7.172,2.226-10.803
			c1.481-3.63,3.584-6.702,6.308-9.214c2.723-2.51,5.871-3.947,9.441-4.311c0.424-0.062,1.059-0.09,1.908-0.09
			c2.843,0,5.068,0.588,6.671,1.769c1.603,1.182,2.406,2.527,2.406,4.042c0,1.632-0.439,2.92-1.316,3.858
			c-0.878,0.939-1.952,1.346-3.223,1.224c0.302-0.907,0.454-1.635,0.454-2.178c0-0.907-0.212-1.604-0.634-2.089
			c-0.425-0.483-1.001-0.693-1.726-0.634c-2.301,0.242-4.707,2.013-7.218,5.31c-2.513,3.301-4.629,7.082-6.354,11.349
			c-1.725,4.268-2.589,7.731-2.589,10.395c0,1.21,0.332,1.816,1,1.816c0.725,0,1.828-0.65,3.313-1.953
			c1.481-1.301,3.041-3.192,4.675-5.674c1.633-2.482,3.055-5.356,4.266-8.626c0.302-0.785,0.454-1.51,0.454-2.178
			c0-0.664-0.152-1.301-0.454-1.905c0.183-0.303,0.681-0.635,1.498-0.998c0.817-0.364,1.74-0.545,2.77-0.545
			c1.874,0,3.099,0.364,3.674,1.088c0.576,0.728,0.922,2.24,1.045,4.538c0,0.426,0.093,2.135,0.273,5.13
			c0.181,2.995,0.649,5.629,1.408,7.898c0.754,2.269,1.769,3.403,3.041,3.403c2.542,0,4.734-1.239,6.58-3.721
			c1.848-2.482,3.36-5.493,4.54-9.033c1.18-3.542,2.588-8.307,4.222-14.296C252.994,198.151,253.508,197.968,253.872,197.968z"/>
		<path fill="#FFFFFF" d="M261.224,213.491c-0.061,1.393-0.123,2.421-0.181,3.087c-0.183,1.999-0.273,3.904-0.273,5.72
			c0,0.788,0.059,1.786,0.181,2.996c1.394-1.029,2.633-3.087,3.724-6.174c1.087-3.086,2.781-8.745,5.082-16.976
			c0.909-3.329,2.299-6.022,4.175-8.081c1.876-2.055,3.813-3.084,5.812-3.084c1.33,0,2.436,0.361,3.314,1.088
			c0.875,0.726,1.315,1.513,1.315,2.36c0,0.726-0.242,1.241-0.728,1.544c-0.423-0.184-0.875-0.273-1.362-0.273
			c-1.876,0-3.645,1.439-5.31,4.311c-1.667,2.877-3.676,7.099-6.036,12.665c-2.422,5.57-4.39,9.655-5.902,12.256
			s-3.116,3.812-4.81,3.631c-2.059-0.181-3.709-1.347-4.949-3.494c-1.241-2.146-2.149-4.554-2.722-7.218
			c-0.577-2.662-1.136-5.99-1.68-9.985c-0.122-0.605-0.183-1.242-0.183-1.908c-0.364-2.905-0.804-5.279-1.315-7.125
			c-0.515-1.848-1.439-3.011-2.77-3.497c0.059-0.725,0.634-1.362,1.726-1.907c1.088-0.543,2.269-0.756,3.54-0.634
			c2.903,0.304,5.038,1.179,6.4,2.633c1.362,1.452,2.208,3.252,2.543,5.401c0.331,2.149,0.498,5.129,0.498,8.942
			C261.314,210.858,261.283,212.101,261.224,213.491z"/>
		<path fill="#FFFFFF" d="M314.057,209.907c0.483-0.331,0.998-0.5,1.542-0.5c0.907,0,1.681,0.364,2.316,1.088
			c0.634,0.728,0.954,1.787,0.954,3.181c0,2.48-0.759,4.902-2.272,7.261s-3.526,4.282-6.036,5.763
			c-2.511,1.484-5.159,2.226-7.943,2.226c-3.875,0-7.142-0.864-9.805-2.587c-2.665-1.725-4.66-4.026-5.99-6.9
			c-1.332-2.874-1.999-6.066-1.999-9.577c0-3.329,0.833-6.323,2.498-8.987c1.664-2.662,3.872-4.736,6.627-6.22
			c2.752-1.481,5.644-2.223,8.669-2.223c2.42,0,4.417,0.426,5.993,1.272c1.571,0.846,2.359,2.208,2.359,4.084
			c0,1.635-0.455,3.3-1.362,4.992c-0.907,1.696-2.135,3.087-3.676,4.175c-1.543,1.091-3.224,1.635-5.04,1.635
			c-1.332,0-2.755-0.241-4.265-0.725c-0.183,0.423-0.364,1.225-0.546,2.404c-0.181,1.18-0.271,2.648-0.271,4.404
			c0,3.208,0.635,5.914,1.906,8.125c1.271,2.208,3.025,3.313,5.266,3.313c1.635,0,3.313-0.62,5.038-1.862
			c1.726-1.24,3.146-2.798,4.266-4.675c1.119-1.876,1.681-3.662,1.681-5.356c0-1.091-0.273-2.089-0.818-2.997
			C313.268,210.679,313.571,210.239,314.057,209.907z M302.708,197.698c-1.271,1.029-2.392,2.301-3.357,3.811
			c-0.969,1.512-1.606,2.906-1.908,4.178c0.183,0.18,0.484,0.316,0.907,0.407c0.424,0.091,0.756,0.137,1.001,0.137
			c1.088,0,2.237-0.318,3.448-0.955c1.209-0.634,2.239-1.556,3.085-2.77c0.847-1.208,1.271-2.662,1.271-4.355
			c0-0.728-0.061-1.24-0.18-1.544c-0.123-0.302-0.335-0.455-0.637-0.455C305.189,196.152,303.979,196.667,302.708,197.698z"/>
		<path fill="#FFFFFF" d="M378.872,197.061c0.605,0,1.091,0.258,1.452,0.771c0.364,0.515,0.424,1.075,0.183,1.681
			c-3.392,8.23-7.171,15.387-11.349,21.47c-4.174,6.081-8.593,9.123-13.251,9.123c-3.694,0-6.342-1.846-7.944-5.539
			c-1.603-3.689-2.407-8.321-2.407-13.888c0-2.907,0.184-5.659,0.545-8.262c0.364-2.663,0.863-5.356,1.498-8.08
			c0.637-2.723,1.073-4.478,1.317-5.266c-0.85-0.181-1.695-0.271-2.542-0.271c-1.333,0-2.528,0.213-3.585,0.634
			c-1.061,0.425-1.803,0.969-2.226,1.635c-0.666,0-1.211-0.348-1.635-1.044c-0.421-0.696-0.634-1.557-0.634-2.587
			c0-1.209,0.486-2.104,1.452-2.679c0.968-0.574,2.237-0.861,3.813-0.861c2.359,0,4.539,0.423,6.535,1.269
			c0.727-1.632,1.09-3.326,1.09-5.082c0-1.211-0.211-2.208-0.637-2.997c0.184-0.545,0.756-1.045,1.726-1.498
			c0.969-0.455,2.058-0.682,3.27-0.682c1.874,0,3.116,0.608,3.721,1.817c0.605,1.21,0.907,2.995,0.907,5.356
			c0,1.392-0.105,2.723-0.316,3.995c-0.212,1.27-0.349,2.029-0.41,2.27c0.484,0.18,1,0.271,1.544,0.271
			c1.026,0,2.01-0.227,2.95-0.68c0.936-0.454,1.618-1.014,2.042-1.679c0.907-0.12,1.618,0.046,2.132,0.5
			c0.515,0.455,0.802,1.074,0.864,1.859c0.119,1.091-0.396,1.908-1.544,2.452c-1.15,0.545-2.601,0.818-4.356,0.818
			c-1.514,0-2.966-0.183-4.357-0.546c-1.271,4.601-2.421,9.746-3.451,15.433c-1.03,5.691-1.542,10.38-1.542,14.072
			c0,4.117,0.753,6.173,2.269,6.173c2.601,0,5.324-1.664,8.168-4.994c2.845-3.326,5.432-7.231,7.763-11.71
			c2.33-4.478,4.069-8.443,5.218-11.893C377.449,197.514,378.024,197.061,378.872,197.061z"/>
		<path fill="#FFFFFF" d="M422.719,197.968c0.909,0,1.362,0.605,1.362,1.814c0,0.425-0.09,0.969-0.271,1.635
			c-1.999,6.476-3.829,11.637-5.493,15.479c-1.666,3.845-3.54,6.778-5.629,8.806s-4.554,3.041-7.397,3.041
			c-3.938,0-6.886-1.497-8.851-4.493c-1.97-2.997-2.953-6.854-2.953-11.575c-0.061-0.847-0.089-2.237-0.089-4.175
			c0-2.118,0.089-4.478,0.273-7.082c-1.214,0.605-2.982,2.755-5.313,6.447c-2.329,3.692-4.416,7.64-6.263,11.847
			s-2.767,7.337-2.767,9.394c-1.091-0.061-2.166-0.543-3.224-1.451c-1.06-0.909-1.771-2.237-2.132-3.995
			c-1.333-7.082-1.999-14.646-1.999-22.695c0-3.329,0.059-5.901,0.18-7.715c0.184-3.025,0.548-6.295,1.091-9.805
			c0.543-3.511,0.875-5.658,0.998-6.446c0.605-3.329,1.044-6.006,1.317-8.033c0.271-2.027,0.408-3.859,0.408-5.493
			c0-2.42-0.364-4.206-1.088-5.356c1.452-2.301,3.357-3.449,5.717-3.449c0.788,0,1.635,0.151,2.542,0.453
			c1.512,0.545,2.481,1.984,2.906,4.312c0.423,2.331,0.636,4.888,0.636,7.671c0,2.604-0.289,5.645-0.861,9.125
			c-0.577,3.479-1.409,7.793-2.496,12.934c-1.273,6.296-2.197,11.244-2.771,14.843c-0.575,3.602-0.802,6.854-0.68,9.76
			c0.181-0.242,1.862-3.328,5.038-9.26c3.178-5.931,6.279-8.896,9.305-8.896c3.329,0,5.734,0.833,7.218,2.496
			c1.481,1.667,2.224,3.799,2.224,6.4c0,0.666-0.03,1.182-0.091,1.543c-0.605,5.931-0.907,10.167-0.907,12.709
			c0,2.359,0.241,4.085,0.726,5.176c0.483,1.088,1.302,1.632,2.45,1.632c2.542,0,4.736-1.239,6.581-3.721
			c1.848-2.482,3.36-5.493,4.541-9.033c1.179-3.542,2.587-8.307,4.222-14.296C421.842,198.151,422.356,197.968,422.719,197.968z"/>
		<path fill="#FFFFFF" d="M444.233,209.907c0.483-0.331,0.998-0.5,1.543-0.5c0.907,0,1.681,0.364,2.315,1.088
			c0.634,0.728,0.954,1.787,0.954,3.181c0,2.48-0.759,4.902-2.271,7.261c-1.514,2.359-3.527,4.282-6.037,5.763
			c-2.511,1.484-5.158,2.226-7.943,2.226c-3.873,0-7.142-0.864-9.803-2.587c-2.665-1.725-4.66-4.026-5.99-6.9
			c-1.333-2.874-1.999-6.066-1.999-9.577c0-3.329,0.833-6.323,2.496-8.987c1.664-2.662,3.872-4.736,6.627-6.22
			c2.752-1.481,5.644-2.223,8.669-2.223c2.422,0,4.417,0.426,5.993,1.272c1.571,0.846,2.359,2.208,2.359,4.084
			c0,1.635-0.453,3.3-1.361,4.992c-0.907,1.696-2.136,3.087-3.677,4.175c-1.543,1.091-3.224,1.635-5.038,1.635
			c-1.333,0-2.755-0.241-4.267-0.725c-0.183,0.423-0.363,1.225-0.546,2.404c-0.18,1.18-0.271,2.648-0.271,4.404
			c0,3.208,0.634,5.914,1.905,8.125c1.271,2.208,3.025,3.313,5.266,3.313c1.635,0,3.314-0.62,5.039-1.862
			c1.725-1.24,3.145-2.798,4.265-4.675s1.682-3.662,1.682-5.356c0-1.091-0.273-2.089-0.817-2.997
			C443.445,210.679,443.748,210.239,444.233,209.907z M432.885,197.698c-1.271,1.029-2.392,2.301-3.357,3.811
			c-0.969,1.512-1.606,2.906-1.908,4.178c0.183,0.18,0.486,0.316,0.907,0.407c0.426,0.091,0.757,0.137,1.001,0.137
			c1.089,0,2.237-0.318,3.448-0.955c1.21-0.634,2.24-1.556,3.087-2.77c0.847-1.208,1.271-2.662,1.271-4.355
			c0-0.728-0.062-1.24-0.181-1.544c-0.122-0.302-0.334-0.455-0.637-0.455C435.366,196.152,434.156,196.667,432.885,197.698z"/>
		<path fill="#FFFFFF" d="M522.213,158.752c5.505,2.906,9.715,7.142,12.618,12.709c2.905,5.569,4.235,12.255,3.994,20.063
			c-0.18,5.388-1.905,10.894-5.175,16.522c-3.268,5.629-7.398,10.272-12.392,13.935c-4.992,3.662-9.972,5.493-14.933,5.493
			c-1.088,0-1.876-0.288-2.359-0.864c-0.486-0.572-0.667-1.224-0.545-1.951c0-0.303,0.091-0.62,0.271-0.952
			c0.183-0.332,0.422-0.559,0.727-0.681c0.786,0.303,1.511,0.454,2.18,0.454c2.843,0,5.976-1.694,9.394-5.084
			c3.419-3.391,6.34-7.716,8.761-12.982c2.42-5.266,3.723-10.56,3.904-15.887c0.241-5.687-0.591-10.877-2.496-15.568
			c-1.907-4.689-4.736-8.398-8.486-11.122c-3.756-2.722-8.173-4.083-13.256-4.083c0.786,0.907,1.345,1.876,1.68,2.906
			c0.332,1.029,0.5,2.42,0.5,4.174c0,0.545-0.062,1.848-0.183,3.905c-0.304,3.572-1.12,10.65-2.45,21.243
			c-0.908,6.897-1.62,12.649-2.135,17.246c-0.515,4.603-0.771,8.475-0.771,11.62c0,4.541,0.605,7.053,1.815,7.536
			c0,0.666-0.271,1.209-0.817,1.635c-0.545,0.421-1.179,0.575-1.906,0.453c-2.784-0.364-4.812-2.965-6.082-7.805
			c-1.27-4.841-1.907-11.076-1.907-18.701c0-7.748,0.577-15.844,1.726-24.287c1.149-8.442,2.542-15.053,4.176-19.835
			c-2.481,0.426-4.767,1.53-6.852,3.314c-2.089,1.786-3.756,3.994-4.995,6.627s-1.859,5.312-1.859,8.035
			c0,1.453,0.18,2.875,0.544,4.266c-0.666,0.424-1.484,0.637-2.451,0.637c-1.211,0-2.422-0.379-3.633-1.136
			c-1.209-0.756-2.088-1.74-2.633-2.949c-0.907-1.999-1.361-3.872-1.361-5.629c0-4.781,2.937-9.048,8.807-12.801
			c2.179-1.39,5.039-2.555,8.58-3.494c3.54-0.938,7.095-1.376,10.665-1.317C510.259,154.394,516.706,155.847,522.213,158.752z"/>
		<path fill="#FFFFFF" d="M591.75,197.968c0.908,0,1.361,0.605,1.361,1.814c0,0.425-0.091,0.969-0.273,1.635
			c-1.995,6.476-3.827,11.637-5.489,15.479c-1.667,3.845-3.54,6.778-5.629,8.806c-2.09,2.027-4.556,3.041-7.398,3.041
			c-2.12,0-4.102-0.938-5.946-2.814c-1.848-1.874-3.314-4.114-4.404-6.718c-1.089-2.601-1.575-4.811-1.452-6.627
			c-0.666,1.513-1.74,3.494-3.224,5.947c-1.482,2.452-3.177,4.66-5.082,6.627c-1.906,1.965-3.738,2.949-5.492,2.949
			c-2.24,0-3.995-1.33-5.268-3.994c-1.271-2.662-1.904-5.718-1.904-9.169c0-3.57,0.738-7.172,2.226-10.803
			c1.48-3.63,3.584-6.702,6.308-9.214c2.722-2.51,5.869-3.947,9.439-4.311c0.424-0.062,1.06-0.09,1.908-0.09
			c2.843,0,5.068,0.588,6.672,1.769c1.604,1.182,2.405,2.527,2.405,4.042c0,1.632-0.438,2.92-1.315,3.858
			c-0.877,0.939-1.951,1.346-3.223,1.224c0.302-0.907,0.453-1.635,0.453-2.178c0-0.907-0.211-1.604-0.634-2.089
			c-0.425-0.483-1.001-0.693-1.726-0.634c-2.301,0.242-4.706,2.013-7.217,5.31c-2.514,3.301-4.63,7.082-6.354,11.349
			c-1.726,4.268-2.59,7.731-2.59,10.395c0,1.21,0.332,1.816,1.001,1.816c0.725,0,1.827-0.65,3.313-1.953
			c1.481-1.301,3.041-3.192,4.676-5.674c1.632-2.482,3.054-5.356,4.265-8.626c0.304-0.785,0.455-1.51,0.455-2.178
			c0-0.664-0.151-1.301-0.455-1.905c0.185-0.303,0.682-0.635,1.498-0.998c0.818-0.364,1.74-0.545,2.77-0.545
			c1.875,0,3.101,0.364,3.676,1.088c0.575,0.728,0.921,2.24,1.044,4.538c0,0.426,0.093,2.135,0.272,5.13
			c0.182,2.995,0.65,5.629,1.409,7.898c0.754,2.269,1.769,3.403,3.04,3.403c2.542,0,4.733-1.239,6.581-3.721s3.36-5.493,4.538-9.033
			c1.182-3.542,2.589-8.307,4.222-14.296C590.871,198.151,591.386,197.968,591.75,197.968z"/>
		<path fill="#FFFFFF" d="M621.888,197.061c0.605,0,1.091,0.258,1.452,0.771c0.363,0.515,0.424,1.075,0.183,1.681
			c-3.392,8.23-7.171,15.387-11.35,21.47c-4.174,6.081-8.594,9.123-13.251,9.123c-3.693,0-6.343-1.846-7.945-5.539
			c-1.604-3.689-2.406-8.321-2.406-13.888c0-2.907,0.183-5.659,0.545-8.262c0.363-2.663,0.863-5.356,1.497-8.08
			c0.638-2.723,1.074-4.478,1.318-5.266c-0.85-0.181-1.694-0.271-2.542-0.271c-1.333,0-2.529,0.213-3.584,0.634
			c-1.062,0.425-1.804,0.969-2.227,1.635c-0.665,0-1.21-0.348-1.635-1.044c-0.423-0.696-0.634-1.557-0.634-2.587
			c0-1.209,0.486-2.104,1.452-2.679c0.968-0.574,2.237-0.861,3.813-0.861c2.359,0,4.538,0.423,6.535,1.269
			c0.726-1.632,1.09-3.326,1.09-5.082c0-1.211-0.212-2.208-0.637-2.997c0.184-0.545,0.756-1.045,1.725-1.498
			c0.97-0.455,2.058-0.682,3.271-0.682c1.873,0,3.115,0.608,3.721,1.817c0.605,1.21,0.907,2.995,0.907,5.356
			c0,1.392-0.104,2.723-0.316,3.995c-0.213,1.27-0.35,2.029-0.409,2.27c0.484,0.18,0.999,0.271,1.544,0.271
			c1.026,0,2.01-0.227,2.949-0.68c0.938-0.454,1.617-1.014,2.043-1.679c0.907-0.12,1.617,0.046,2.132,0.5
			c0.516,0.455,0.803,1.074,0.864,1.859c0.12,1.091-0.396,1.908-1.544,2.452c-1.15,0.545-2.603,0.818-4.356,0.818
			c-1.516,0-2.967-0.183-4.356-0.546c-1.273,4.601-2.422,9.746-3.451,15.433c-1.029,5.691-1.543,10.38-1.543,14.072
			c0,4.117,0.755,6.173,2.271,6.173c2.601,0,5.323-1.664,8.168-4.994c2.846-3.326,5.433-7.231,7.762-11.71
			c2.331-4.478,4.071-8.443,5.22-11.893C620.466,197.514,621.041,197.061,621.888,197.061z"/>
		<path fill="#FFFFFF" d="M643.765,209.907c0.483-0.331,0.998-0.5,1.543-0.5c0.907,0,1.681,0.364,2.314,1.088
			c0.636,0.728,0.955,1.787,0.955,3.181c0,2.48-0.759,4.902-2.271,7.261s-3.526,4.282-6.036,5.763
			c-2.513,1.484-5.159,2.226-7.943,2.226c-3.875,0-7.142-0.864-9.805-2.587c-2.664-1.725-4.66-4.026-5.99-6.9
			c-1.331-2.874-1.998-6.066-1.998-9.577c0-3.329,0.832-6.323,2.496-8.987c1.665-2.662,3.873-4.736,6.627-6.22
			c2.753-1.481,5.645-2.223,8.67-2.223c2.42,0,4.416,0.426,5.993,1.272c1.571,0.846,2.359,2.208,2.359,4.084
			c0,1.635-0.454,3.3-1.361,4.992c-0.907,1.696-2.136,3.087-3.678,4.175c-1.542,1.091-3.223,1.635-5.039,1.635
			c-1.333,0-2.755-0.241-4.265-0.725c-0.184,0.423-0.363,1.225-0.546,2.404c-0.182,1.18-0.271,2.648-0.271,4.404
			c0,3.208,0.634,5.914,1.906,8.125c1.271,2.208,3.025,3.313,5.266,3.313c1.635,0,3.313-0.62,5.038-1.862
			c1.726-1.24,3.146-2.798,4.265-4.675c1.12-1.876,1.683-3.662,1.683-5.356c0-1.091-0.273-2.089-0.818-2.997
			C642.977,210.679,643.28,210.239,643.765,209.907z M632.417,197.698c-1.271,1.029-2.392,2.301-3.357,3.811
			c-0.969,1.512-1.606,2.906-1.908,4.178c0.183,0.18,0.484,0.316,0.907,0.407c0.425,0.091,0.757,0.137,1.001,0.137
			c1.087,0,2.237-0.318,3.446-0.955c1.211-0.634,2.24-1.556,3.087-2.77c0.848-1.208,1.271-2.662,1.271-4.355
			c0-0.728-0.061-1.24-0.18-1.544c-0.122-0.302-0.335-0.455-0.637-0.455C634.898,196.152,633.688,196.667,632.417,197.698z"/>
	</g>
	<g>
		<path fill="#FFFFFF" d="M208.017,279.622v39.505h-11.056v-29.75c-2.952,1.428-5.692,2.229-8.219,2.4v-5.209
			c5.807-0.579,9.897-2.895,12.271-6.946H208.017z"/>
		<path fill="#FFFFFF" d="M222.313,306.104l5.296-0.289c-0.444,1.523-0.695,2.884-0.752,4.082c-0.193,4.223,2.035,6.337,6.685,6.337
			c4.573,0,6.859-2.577,6.859-7.728c0-5.209-2.73-7.814-8.19-7.814l-3.125,0.059v-4.66l2.257,0.03c5.75,0,8.625-2.432,8.625-7.293
			c0-4.228-2.036-6.339-6.106-6.339c-4.014,0-6.02,1.861-6.02,5.584c0,0.907,0.116,1.959,0.347,3.156l-5.296-1.1
			c0-7.467,4.341-11.201,13.023-11.201c10.013,0,15.02,3.416,15.02,10.246c0,4.477-2.827,7.515-8.48,9.116
			c6.406,1.465,9.608,4.785,9.608,9.956c0,7.698-5.335,11.546-16.004,11.546c-9.493,0-14.239-3.183-14.239-9.549
			C221.821,309.047,221.985,307.666,222.313,306.104z"/>
		<path fill="#FFFFFF" d="M313.303,279.622v39.505h-11.056v-27.493l-7.698,27.493h-6.396l-7.9-27.03v27.03h-3.849v-39.505h11.634
			l6.772,23.847l6.743-23.847H313.303z"/>
		<path fill="#FFFFFF" d="M338.076,279.622l10.998,39.505h-11.518l-2.345-8.566h-11.895l-2.518,8.566h-4.486l11.692-39.505H338.076z
			 M324.445,306.595h9.695l-4.66-17.509L324.445,306.595z"/>
		<path fill="#FFFFFF" d="M352.169,319.127v-39.505h16.988c4.418,0,7.949,0.934,10.592,2.794c2.644,1.862,3.965,4.355,3.965,7.481
			c0,4.785-2.836,7.899-8.509,9.349c2.913,1.078,4.8,2.266,5.659,3.559c0.858,1.291,1.442,3.802,1.751,7.524
			c0.366,4.438,1.108,7.369,2.228,8.798h-12.444c-0.792-1.833-1.187-4.119-1.187-6.859l-0.057-2.344l-0.059-2.952
			c0-4.554-1.833-6.83-5.498-6.83h-1.969v18.985H352.169z M363.63,296.871h2.316c4.341,0,6.511-2.267,6.511-6.8
			c0-4.534-2.17-6.802-6.511-6.802h-2.316V296.871z"/>
		<path fill="#FFFFFF" d="M415.781,303.268l4.892,1.272c0.078,1.004,0.115,1.872,0.115,2.605c0,3.839-1.389,6.906-4.167,9.202
			c-2.778,2.298-6.502,3.444-11.172,3.444c-11.71,0-17.567-6.587-17.567-19.765c0-6.252,1.707-11.32,5.123-15.21
			c3.414-3.887,7.862-5.831,13.34-5.831c8.55,0,12.823,4.108,12.823,12.328l-4.92,2.26c0.057-1.159,0.086-2.057,0.086-2.693
			c0-5.828-2.335-8.739-7.003-8.739c-4.94,0-7.41,6.183-7.41,18.55c0,10.631,2.761,15.947,8.276,15.947
			c2.277,0,4.173-0.907,5.688-2.721c1.515-1.813,2.271-4.082,2.271-6.801C416.158,306.247,416.031,304.965,415.781,303.268z"/>
		<path fill="#FFFFFF" d="M436.562,299.478v19.649h-11.46v-39.505h11.46v15.89h9.346v-15.89h11.463v39.505h-11.463v-19.649H436.562z
			"/>
		<path fill="#FFFFFF" d="M510.882,309.635v9.492H481.42v-5.586c2.412-2.662,5.182-5.498,8.305-8.508
			c7.003-6.694,10.505-11.819,10.505-15.367c0-4.729-1.869-7.091-5.613-7.091c-4.555,0-6.829,2.855-6.829,8.567
			c0,1.35,0.327,3.251,0.983,5.699l-6.105-1.446c-0.463-1.813-0.696-3.271-0.696-4.37c0-8.007,4.949-12.01,14.848-12.01
			c4.185,0,7.629,1.032,10.33,3.097c2.703,2.063,4.052,4.708,4.052,7.929c0,3.686-2.672,7.699-8.015,12.039l-3.589,2.895
			l-3.966,3.328c-0.25,0.213-0.869,0.656-1.853,1.332H510.882z"/>
		<path fill="#FFFFFF" d="M532.817,279.016c11.018,0,16.527,6.791,16.527,20.374c0,13.584-5.51,20.373-16.527,20.373
			c-11.037,0-16.553-6.789-16.553-20.373C516.265,285.807,521.78,279.016,532.817,279.016z M532.817,282.169
			c-3.011,0-4.515,5.741-4.515,17.221c0,11.479,1.504,17.22,4.515,17.22c2.991,0,4.486-5.741,4.486-17.22
			C537.304,287.91,535.809,282.169,532.817,282.169z"/>
		<path fill="#FFFFFF" d="M575.853,279.622v39.505h-11.057v-29.75c-2.95,1.428-5.691,2.229-8.219,2.4v-5.209
			c5.809-0.579,9.901-2.895,12.271-6.946H575.853z"/>
		<path fill="#FFFFFF" d="M595.241,300.315c-3.528-2.47-5.294-5.565-5.294-9.29c0-3.568,1.374-6.454,4.123-8.652
			c2.749-2.2,6.361-3.3,10.839-3.3c3.917,0,7.086,0.854,9.507,2.561c2.422,1.708,3.633,3.941,3.633,6.7
			c0,3.068-1.611,5.527-4.835,7.379c5.269,2.778,7.903,6.494,7.903,11.144c0,3.878-1.513,7.017-4.529,9.42
			c-3.02,2.401-6.971,3.604-11.854,3.604c-4.515,0-8.256-1.086-11.227-3.256c-2.971-2.171-4.457-4.896-4.457-8.177
			C589.05,304.878,591.114,302.168,595.241,300.315z M598.019,301.965c-2.622,1.621-3.934,3.782-3.934,6.482
			c0,2.277,1.023,4.227,3.068,5.848c2.045,1.62,4.486,2.432,7.321,2.432c2.218,0,4.102-0.6,5.646-1.796
			c1.541-1.196,2.314-2.644,2.314-4.34c0-2.779-2.199-4.825-6.6-6.136C603.673,303.817,601.07,302.987,598.019,301.965z
			 M610.522,294.5c1.659-1.449,2.49-3.165,2.49-5.153c0-4.747-2.789-7.118-8.365-7.118c-4.728,0-7.092,1.707-7.092,5.122
			c0,2.064,2.126,3.762,6.367,5.093l4.489,1.39C608.854,293.988,609.56,294.208,610.522,294.5z"/>
	</g>
</g>
</svg>
